<?xml version="1.0" standalone="no"?>
<!DOCTYPE svg PUBLIC "-//W3C//DTD SVG 20010904//EN"
 "http://www.w3.org/TR/2001/REC-SVG-20010904/DTD/svg10.dtd">
<svg version="1.0" xmlns="http://www.w3.org/2000/svg"
 width="1190.000000pt" height="1684.000000pt" viewBox="0 0 1190.000000 1684.000000"
 preserveAspectRatio="xMidYMid meet">

<g transform="translate(0.000000,1684.000000) scale(0.100000,-0.100000)"
fill="#000000" stroke="none">
<path d="M2281 9908 c-13 -62 -30 -135 -37 -161 -9 -33 -10 -45 -2 -41 8 5 9
1 5 -12 -7 -18 -6 -18 6 -2 11 14 16 15 26 5 7 -7 11 -7 10 -2 -1 6 3 21 10
35 l11 25 -3 -27 c-5 -37 1 -35 18 5 8 17 15 25 15 17 0 -8 21 32 46 88 l46
104 -24 25 c-25 27 -69 53 -90 53 -9 0 -21 -37 -37 -112z m4 -177 c3 -5 2 -12
-3 -15 -5 -3 -9 1 -9 9 0 17 3 19 12 6z"/>
</g>
</svg>
