<?xml version="1.0" standalone="no"?>
<!DOCTYPE svg PUBLIC "-//W3C//DTD SVG 20010904//EN"
 "http://www.w3.org/TR/2001/REC-SVG-20010904/DTD/svg10.dtd">
<svg version="1.0" xmlns="http://www.w3.org/2000/svg"
 width="1190.000000pt" height="1684.000000pt" viewBox="0 0 1190.000000 1684.000000"
 preserveAspectRatio="xMidYMid meet">

<g transform="translate(0.000000,1684.000000) scale(0.100000,-0.100000)"
fill="#000000" stroke="none">
<path d="M2053 10513 c-47 -44 -132 -199 -148 -271 -10 -45 -20 -47 -50 -8
-22 29 -27 45 -26 96 0 33 -4 60 -8 60 -4 0 -17 -10 -29 -23 -34 -36 -30 -97
9 -141 16 -19 39 -38 50 -41 11 -4 19 -15 19 -28 0 -26 -31 -140 -40 -147 -4
-3 -12 -25 -18 -50 -6 -25 -25 -76 -41 -115 -26 -60 -34 -70 -53 -68 -157 16
-167 16 -193 -1 -30 -19 -31 -37 -8 -74 31 -48 55 -61 107 -62 41 0 56 5 91
35 l42 34 81 -39 c45 -22 85 -40 90 -40 5 0 37 -9 71 -21 l63 -20 42 20 c40
18 84 66 72 78 -2 3 -21 0 -41 -7 -20 -6 -44 -9 -53 -5 -9 3 -52 13 -96 21
-43 8 -86 19 -95 24 -9 5 -35 14 -58 20 -24 6 -43 12 -43 14 0 2 15 31 34 64
19 33 39 77 46 97 7 20 18 49 26 63 8 15 14 32 14 37 0 6 11 37 25 70 19 48
29 61 52 67 87 21 106 28 148 54 25 16 45 32 45 35 0 3 9 15 19 26 35 37 65
114 65 165 0 41 -5 53 -34 83 -30 31 -40 35 -85 35 -45 0 -56 -4 -92 -37z
m137 -50 c0 -124 -105 -273 -192 -273 -27 0 -39 22 -20 34 5 3 17 35 27 71 9
36 21 65 25 65 4 0 11 12 15 27 11 45 55 112 83 126 36 18 62 -3 62 -50z
m-522 -722 c40 -16 42 -18 25 -33 -35 -30 -59 -36 -112 -29 -19 2 -41 33 -41
57 0 22 4 24 43 23 23 0 61 -8 85 -18z"/>
<path d="M3563 10527 c-28 -37 -145 -277 -158 -327 -4 -14 -13 -34 -19 -45 -7
-11 -16 -33 -20 -50 -4 -16 -21 -58 -37 -93 -16 -34 -29 -67 -29 -72 0 -6 -4
-10 -9 -10 -5 0 -13 -10 -17 -22 -9 -30 -69 -116 -100 -145 -28 -26 -60 -36
-95 -31 -21 3 -24 9 -27 51 -3 38 4 63 32 121 59 125 154 202 227 183 15 -4
19 -1 17 11 -5 27 -77 27 -132 2 -47 -23 -159 -134 -171 -169 -3 -12 -10 -21
-14 -21 -5 0 -14 -20 -21 -45 -7 -25 -17 -48 -21 -51 -5 -3 -9 -22 -9 -42 0
-76 82 -126 146 -89 36 20 117 101 147 145 15 23 29 42 31 42 2 0 0 -17 -5
-37 -23 -98 5 -163 68 -163 35 0 98 32 138 71 17 16 34 29 37 29 4 0 9 -13 13
-30 7 -33 57 -80 84 -80 9 0 22 -5 29 -12 8 -8 25 -7 69 7 71 21 122 53 177
111 23 24 44 44 47 44 2 0 5 -19 6 -41 0 -24 10 -53 21 -68 17 -22 27 -26 74
-26 52 0 57 3 107 50 29 28 57 52 62 53 5 2 9 -10 9 -28 0 -20 9 -40 26 -57
23 -23 31 -25 75 -20 52 6 117 45 146 86 21 30 30 26 36 -17 4 -25 18 -49 42
-72 30 -29 42 -34 84 -34 61 0 123 30 187 91 43 42 47 43 60 26 7 -10 14 -22
14 -28 1 -20 38 -54 66 -61 16 -4 34 -11 41 -16 12 -9 36 -4 118 26 37 13 45
18 110 81 45 43 85 99 85 120 0 4 -17 -15 -37 -42 -44 -57 -78 -92 -115 -116
-38 -24 -117 -39 -153 -29 -34 10 -63 54 -64 98 -1 29 3 32 52 47 28 9 64 19
79 22 14 4 34 14 45 23 10 10 30 25 46 35 66 43 103 159 61 193 -26 20 -114
13 -149 -12 -15 -10 -36 -24 -46 -30 -38 -22 -117 -135 -140 -200 -18 -52 -34
-76 -76 -114 -29 -27 -63 -51 -75 -55 -13 -3 -33 -11 -45 -17 -29 -14 -69 -3
-100 28 -24 24 -25 31 -20 91 3 36 9 68 14 72 6 3 13 19 17 36 16 64 113 165
158 165 9 0 21 -7 28 -15 13 -16 11 -25 -22 -89 -15 -28 5 -43 36 -27 26 14
36 38 36 84 0 36 -43 77 -82 77 -43 0 -118 -42 -163 -92 -39 -44 -85 -122 -85
-144 0 -20 -68 -106 -103 -130 -39 -26 -86 -31 -105 -12 -22 22 -9 166 17 188
20 17 81 145 81 171 0 62 -102 -30 -134 -122 -10 -30 -23 -58 -27 -63 -5 -6
-9 -17 -9 -26 0 -9 -13 -34 -30 -56 -16 -21 -30 -44 -30 -50 0 -15 -75 -64
-98 -64 -11 0 -27 9 -37 20 -15 16 -17 33 -13 105 l4 85 58 58 c31 31 74 82
93 112 20 30 39 57 43 60 3 3 14 24 24 48 11 23 23 42 28 42 4 0 8 6 8 13 0 6
12 39 26 72 35 85 45 142 32 193 -19 77 -59 51 -156 -102 -18 -28 -40 -68 -49
-88 -9 -21 -20 -38 -25 -38 -4 0 -8 -5 -8 -11 0 -6 -14 -41 -31 -78 -58 -124
-67 -146 -79 -191 -7 -25 -16 -49 -20 -55 -4 -5 -11 -29 -15 -52 -5 -32 -20
-55 -68 -106 -75 -78 -112 -98 -183 -100 -68 -1 -94 21 -101 84 -5 49 -2 52
97 78 75 21 156 83 179 139 16 39 17 98 1 117 -22 27 -126 14 -169 -21 -20
-16 -98 -93 -116 -114 -7 -8 -16 -25 -19 -37 -4 -13 -11 -23 -16 -23 -5 0 -12
-16 -16 -35 -9 -50 -64 -116 -117 -144 -43 -22 -47 -22 -62 -7 -29 28 -8 159
49 311 31 82 27 74 104 235 97 205 115 249 109 265 -9 23 -43 18 -64 -8z m747
-107 c0 -59 -99 -256 -193 -382 -89 -120 -85 -71 13 137 15 33 31 70 35 83 3
12 10 22 15 22 4 0 10 10 14 23 3 13 13 33 23 45 10 12 29 39 43 62 29 48 50
52 50 10z m-460 -364 c0 -19 -6 -41 -13 -48 -7 -7 -16 -21 -19 -30 -8 -20
-104 -92 -138 -103 -14 -4 -30 -12 -37 -17 -23 -18 -25 13 -3 59 43 92 128
173 182 173 25 0 28 -3 28 -34z m1340 4 c0 -33 -18 -78 -41 -100 -28 -28 -104
-78 -141 -93 -37 -15 -38 -15 -38 5 0 32 54 120 102 164 46 43 62 52 96 53 18
1 22 -4 22 -29z"/>
<path d="M6187 10508 c-19 -24 -42 -64 -52 -90 -10 -27 -21 -48 -25 -48 -4 0
-13 -20 -20 -45 -7 -25 -16 -45 -21 -45 -4 0 -11 -15 -14 -32 -4 -18 -16 -51
-26 -72 -11 -22 -19 -44 -19 -49 0 -6 -11 -33 -24 -61 -13 -28 -38 -84 -56
-123 -18 -40 -36 -73 -41 -73 -4 0 -10 -8 -13 -18 -9 -26 -103 -122 -120 -122
-8 0 -21 -2 -28 -5 -21 -8 -58 29 -58 59 0 14 5 26 10 26 6 0 10 11 10 24 0
39 67 158 116 203 46 44 93 60 139 49 32 -8 32 7 1 24 -45 23 -109 5 -177 -52
-33 -27 -65 -61 -71 -74 -6 -13 -15 -24 -19 -24 -4 0 -23 -32 -43 -71 -46 -89
-49 -150 -11 -192 31 -33 81 -36 118 -7 14 11 29 20 34 20 12 0 52 45 87 97
50 75 55 74 49 -10 -5 -72 -5 -76 21 -102 38 -38 82 -29 158 30 59 46 78 50
78 15 0 -26 57 -80 85 -80 13 0 27 -5 30 -11 4 -6 14 -7 24 -4 9 4 34 12 56
17 40 9 130 63 154 92 18 22 28 20 37 -6 19 -62 79 -108 141 -108 40 0 65 13
116 60 37 34 37 35 37 111 0 54 -7 99 -25 155 -14 43 -25 102 -25 131 0 28 -5
55 -11 58 -19 12 -49 -26 -49 -64 0 -50 -89 -180 -139 -204 -14 -6 -36 -31
-48 -55 -19 -38 -48 -71 -95 -107 -41 -32 -132 -51 -173 -35 -39 15 -45 26
-45 81 0 51 2 53 102 84 132 41 229 184 167 246 -49 49 -173 0 -249 -98 -19
-25 -40 -51 -46 -57 -7 -7 -20 -36 -30 -65 -24 -68 -74 -126 -132 -153 -43
-21 -45 -21 -58 -3 -23 31 -17 88 24 230 12 39 28 84 36 100 9 17 16 36 16 44
0 7 8 30 19 50 54 106 148 308 164 354 8 22 -2 47 -18 47 -8 0 -29 -19 -48
-42z m288 -427 c10 -17 -13 -93 -37 -118 -39 -42 -167 -118 -187 -112 -15 5
38 115 80 163 54 63 126 96 144 67z m292 -132 c13 -69 15 -179 4 -218 -4 -14
-21 -33 -39 -43 -31 -17 -34 -17 -69 0 -20 9 -39 24 -43 32 -4 8 -12 25 -18
37 -16 31 -15 51 4 70 14 15 18 14 39 -8 41 -43 66 -60 98 -65 27 -5 25 -2
-18 19 -31 15 -59 39 -72 61 -22 34 -22 37 -5 64 37 60 88 121 97 118 6 -1 15
-32 22 -67z"/>
<path d="M9355 10496 c-26 -29 -52 -64 -59 -77 -7 -13 -29 -51 -47 -84 -31
-55 -103 -210 -143 -310 -9 -22 -22 -66 -31 -98 -8 -32 -24 -75 -37 -95 -12
-19 -16 -32 -9 -27 17 10 31 -12 31 -51 0 -49 29 -74 86 -74 l49 0 -34 18
c-43 21 -54 54 -45 143 5 61 9 70 46 105 22 22 44 48 49 59 6 11 -2 5 -18 -13
-40 -46 -54 -42 -38 11 29 92 113 270 169 357 13 19 30 47 40 63 17 29 56 37
56 12 0 -51 -74 -216 -146 -328 -45 -68 -51 -83 -35 -73 13 8 93 132 121 186
40 78 80 184 86 226 6 41 -16 104 -36 104 -5 0 -30 -24 -55 -54z"/>
<path d="M9666 10529 c-77 -61 -230 -349 -291 -550 -14 -46 -36 -105 -49 -131
-13 -26 -19 -45 -14 -42 14 9 28 -16 28 -52 0 -45 36 -74 91 -74 l44 1 -33 14
c-43 19 -55 54 -48 138 7 80 15 98 51 117 15 8 33 28 41 45 l15 30 -29 -34
c-40 -47 -53 -37 -32 24 50 143 131 306 193 391 30 40 67 59 67 33 0 -21 -23
-104 -31 -113 -5 -6 -9 -16 -9 -23 0 -17 -108 -212 -132 -237 -19 -21 -25 -41
-9 -32 11 7 97 137 112 169 5 12 19 38 29 57 11 19 31 71 45 115 27 82 27 124
2 159 -12 16 -14 16 -41 -5z"/>
<path d="M3954 10338 c-58 -60 -84 -118 -52 -118 20 0 130 119 126 137 -6 31
-32 24 -74 -19z"/>
<path d="M4438 10294 c-44 -28 -50 -60 -14 -74 38 -14 84 8 92 44 5 22 2 33
-12 43 -23 16 -22 17 -66 -13z"/>
<path d="M8973 10289 c-41 -26 -43 -56 -6 -65 35 -9 77 14 81 45 6 43 -27 51
-75 20z"/>
<path d="M10186 10142 c-2 -4 -7 -25 -11 -47 -4 -22 -12 -48 -17 -58 -7 -14
-6 -18 8 -15 9 2 18 -4 20 -12 2 -8 8 -35 14 -59 12 -50 16 -161 7 -206 -7
-35 -49 -75 -78 -75 -58 0 -109 58 -109 125 0 43 22 55 51 29 20 -18 20 -17
-1 19 -22 37 -22 38 -4 59 11 12 -2 5 -27 -15 -26 -21 -52 -51 -59 -67 -7 -17
-16 -30 -21 -30 -5 0 -14 -10 -20 -22 -11 -21 -11 -22 4 -9 20 16 47 8 47 -14
0 -49 64 -95 130 -95 91 0 160 67 160 153 0 28 -4 64 -10 81 -5 17 -19 63 -32
101 -12 39 -22 91 -22 118 0 31 -4 47 -12 47 -7 0 -15 -3 -18 -8z"/>
<path d="M7367 10133 c-4 -3 -7 -24 -7 -45 0 -21 -4 -38 -8 -38 -5 0 -14 -51
-20 -112 -18 -165 -36 -246 -98 -435 -13 -39 -24 -80 -24 -91 0 -29 26 -34 43
-9 20 32 89 255 104 340 3 15 9 30 14 33 5 3 9 18 9 33 0 67 112 216 177 233
52 15 81 1 93 -43 20 -75 -9 -165 -75 -234 -30 -30 -89 -65 -113 -65 -29 0
-53 -11 -46 -21 3 -5 17 -9 31 -9 158 0 322 215 269 353 -26 69 -93 95 -159
61 -35 -19 -107 -86 -107 -101 0 -6 -9 -18 -19 -27 -22 -20 -22 -27 -2 84 9
44 8 59 -4 77 -15 22 -44 30 -58 16z"/>
<path d="M8352 10128 c-7 -7 -12 -25 -12 -40 0 -15 -7 -70 -16 -120 -18 -105
-41 -152 -107 -217 -36 -35 -53 -44 -83 -45 -31 -1 -40 4 -53 26 -15 26 -14
31 23 106 37 75 40 102 13 102 -7 -1 -36 -34 -66 -75 -30 -41 -78 -98 -108
-126 -45 -42 -58 -50 -86 -47 -30 3 -32 6 -35 46 -9 120 149 341 243 342 38 0
64 -27 67 -72 3 -40 4 -41 21 -24 25 25 21 58 -11 89 -57 55 -163 24 -265 -79
-109 -110 -160 -262 -105 -313 49 -47 104 -34 173 40 50 53 66 58 72 19 2 -13
13 -34 24 -46 41 -44 142 -9 206 71 34 43 56 47 47 8 -11 -49 -44 -165 -76
-265 -26 -82 -29 -100 -18 -113 19 -22 37 -2 55 61 8 27 24 81 35 119 12 39
33 113 46 165 13 52 32 113 41 134 17 38 20 61 26 185 2 44 -1 56 -19 67 -15
11 -23 11 -32 2z"/>
<path d="M2458 10102 c-98 -56 -179 -154 -199 -239 -6 -27 -15 -56 -20 -65 -5
-10 -5 -20 1 -23 6 -3 10 -17 10 -30 0 -53 113 -121 163 -97 12 6 36 13 52 17
51 10 150 90 184 146 8 13 21 34 29 47 26 40 -6 23 -37 -20 -55 -76 -73 -98
-83 -98 -5 0 -22 -10 -37 -21 -32 -24 -97 -39 -135 -32 -43 9 -66 39 -66 87 0
42 1 43 43 56 83 27 143 59 185 99 47 46 62 76 62 124 0 38 -7 50 -37 66 -33
17 -63 12 -115 -17z m103 -28 c9 -10 9 -18 2 -22 -6 -4 -13 -20 -17 -37 -4
-16 -21 -44 -39 -62 -39 -38 -164 -106 -172 -94 -5 9 21 64 64 134 24 39 102
96 132 97 9 0 22 -7 30 -16z"/>
<path d="M9816 10100 c-94 -47 -176 -144 -210 -247 -10 -29 -22 -55 -27 -58
-16 -10 -10 -25 8 -18 11 4 14 3 9 -5 -12 -20 30 -86 64 -101 38 -16 129 -16
144 0 8 8 2 9 -21 4 -43 -9 -97 10 -111 38 -25 50 -25 85 0 110 22 21 23 26 9
35 -36 24 111 222 176 238 37 10 53 -2 53 -40 0 -40 -29 -94 -61 -116 -12 -8
-34 -25 -50 -38 -15 -12 -41 -27 -58 -33 -17 -6 -31 -15 -31 -20 0 -12 -3 -12
59 11 29 10 61 26 71 35 9 8 21 15 27 15 5 0 25 21 43 46 25 35 33 58 34 91 2
72 -48 93 -128 53z"/>
<path d="M8522 10073 c-33 -16 -120 -118 -110 -129 3 -2 18 12 33 32 36 47 82
74 127 74 50 0 68 -27 68 -100 0 -123 -95 -236 -220 -261 -32 -6 -31 -7 16 -8
78 -2 160 44 208 117 72 109 82 208 26 264 -23 22 -37 28 -72 28 -24 0 -58 -8
-76 -17z"/>
<path d="M8869 10063 c-52 -57 -109 -210 -109 -293 0 -36 5 -52 23 -68 28 -26
93 -30 123 -7 18 13 16 14 -21 15 -54 0 -65 13 -65 76 0 58 19 110 80 215 23
38 38 74 35 79 -11 18 -41 10 -66 -17z"/>
<path d="M10116 9973 c-6 -14 -5 -15 5 -6 7 7 10 15 7 18 -3 3 -9 -2 -12 -12z"/>
<path d="M6982 9858 c-7 -7 -12 -16 -12 -21 0 -5 -17 -25 -37 -44 -28 -26 -31
-32 -13 -23 29 15 39 25 63 63 20 30 19 45 -1 25z"/>
<path d="M8960 9739 l-35 -31 31 16 c17 8 34 22 37 31 8 20 8 20 -33 -16z"/>
<path d="M9889 9723 c-13 -17 -13 -17 6 -3 11 8 22 16 24 17 2 2 0 3 -6 3 -6
0 -17 -8 -24 -17z"/>
<path d="M5187 7751 c-25 -27 -98 -120 -163 -207 -159 -214 -232 -304 -250
-304 -18 0 -32 33 -124 293 -40 114 -81 219 -92 232 -24 31 -70 33 -98 5 -15
-15 -20 -33 -20 -74 0 -81 -25 -206 -95 -483 -36 -139 -65 -267 -65 -286 0
-64 56 -101 92 -59 8 9 20 51 27 92 6 41 31 165 56 275 24 110 49 228 56 263
7 34 16 62 20 62 9 0 33 -62 95 -244 51 -146 63 -173 93 -200 46 -41 106 14
309 284 169 226 169 226 178 217 4 -4 2 -44 -4 -89 -14 -98 -39 -344 -48 -479
-10 -147 14 -194 91 -175 28 7 42 55 31 109 -23 115 -15 269 29 599 l23 173
-24 23 c-39 34 -65 28 -117 -27z"/>
<path d="M5789 7566 c-136 -48 -259 -211 -296 -391 -30 -148 8 -254 105 -297
62 -28 160 -21 237 16 62 31 159 115 180 157 18 33 20 79 4 79 -6 0 -38 -25
-71 -55 -78 -72 -146 -106 -225 -113 -61 -5 -63 -4 -98 31 -27 27 -35 43 -35
71 0 33 5 39 46 64 239 142 326 233 328 345 1 43 -3 52 -32 78 -36 33 -81 37
-143 15z m71 -91 c34 -41 -40 -137 -176 -228 -40 -26 -75 -47 -78 -47 -11 0 6
53 36 113 61 123 178 210 218 162z"/>
<path d="M7096 7514 c-9 -8 -16 -28 -16 -44 0 -16 -13 -89 -30 -162 -41 -185
-46 -251 -26 -320 50 -174 218 -135 376 86 l55 77 7 -96 c11 -157 53 -216 128
-185 35 14 39 39 10 65 -56 50 -64 238 -19 428 21 91 21 99 6 114 -13 13 -23
15 -44 7 -23 -8 -35 -26 -69 -110 -56 -139 -105 -223 -170 -293 -93 -101 -174
-124 -190 -53 -3 15 -7 33 -10 40 -8 28 19 166 51 263 36 107 44 166 23 187
-17 17 -64 15 -82 -4z"/>
<path d="M6211 7484 c-18 -22 -21 -41 -21 -113 0 -47 -7 -140 -16 -206 -29
-233 -30 -250 -3 -269 13 -9 32 -16 41 -16 36 0 89 67 169 215 93 172 128 225
165 254 69 54 104 1 125 -189 19 -183 50 -240 129 -240 46 0 101 35 115 73 12
35 -7 50 -41 35 -12 -6 -34 -8 -47 -4 -32 8 -42 38 -62 181 -27 195 -60 268
-129 280 -80 15 -165 -56 -250 -211 -95 -173 -120 -214 -127 -206 -4 4 3 66
17 137 29 151 35 265 15 289 -20 24 -57 19 -80 -10z"/>
</g>
</svg>
