<?xml version="1.0" standalone="no"?>
<!DOCTYPE svg PUBLIC "-//W3C//DTD SVG 20010904//EN"
 "http://www.w3.org/TR/2001/REC-SVG-20010904/DTD/svg10.dtd">
<svg version="1.0" xmlns="http://www.w3.org/2000/svg"
 width="1190.000000pt" height="1684.000000pt" viewBox="0 0 1190.000000 1684.000000"
 preserveAspectRatio="xMidYMid meet">
<metadata>
Created by potrace 1.16, written by Peter Selinger 2001-2019
</metadata>
<g transform="translate(0.000000,1684.000000) scale(0.100000,-0.100000)"
fill="#000000" stroke="none">
<path d="M6060 10908 c-19 -5 -60 -16 -90 -25 -55 -15 -188 -60 -307 -104
l-63 -23 0 -461 0 -462 -87 1 c-93 0 -121 -8 -192 -62 -36 -27 -70 -91 -71
-132 0 -72 94 -140 193 -140 53 0 58 2 68 27 13 34 33 80 69 158 15 33 31 71
35 84 4 13 25 62 46 109 l39 84 0 278 0 277 83 25 c45 14 107 33 139 42 46 14
58 22 66 45 l10 28 -41 -9 c-23 -6 -84 -21 -135 -34 -51 -13 -98 -25 -105 -27
-8 -1 -13 15 -15 49 -2 42 0 53 15 59 56 22 242 88 268 94 60 15 92 39 109 81
23 57 25 55 -34 38z"/>
<path d="M6795 9155 c-34 -68 -44 -99 -37 -108 7 -8 4 -38 -9 -97 -44 -197
-33 -341 30 -413 l29 -32 11 25 c5 14 27 85 47 158 36 131 56 172 35 72 -19
-87 -14 -142 17 -201 24 -46 32 -54 57 -54 38 0 64 44 72 120 6 61 -1 68 -37
30 -23 -24 -50 -33 -50 -17 0 5 7 31 15 58 21 67 30 192 16 227 -13 32 -31 42
-66 33 -21 -5 -36 -27 -73 -104 -36 -74 -48 -91 -50 -73 -6 42 39 282 59 315
10 17 19 48 19 68 0 41 -15 88 -28 88 -5 0 -31 -43 -57 -95z"/>
<path d="M3385 9183 c-4 -27 -10 -70 -15 -98 -5 -27 -16 -111 -25 -185 -16
-135 -40 -246 -58 -257 -5 -3 -27 0 -50 7 -52 14 -97 1 -97 -30 0 -11 22 -43
48 -70 54 -56 83 -63 127 -29 26 21 28 21 63 4 21 -10 66 -20 102 -22 80 -6
96 7 112 96 13 67 7 83 -20 58 -30 -28 -89 -47 -143 -47 -45 0 -50 2 -44 18
22 56 45 177 51 267 7 100 16 128 27 85 7 -29 24 -25 42 10 19 36 20 159 3
182 -21 26 -68 52 -68 38 0 -9 -6 -8 -18 3 -27 25 -30 22 -37 -30z"/>
<path d="M8420 9128 c-55 -62 -69 -86 -70 -115 0 -15 6 -23 18 -23 24 0 118
65 137 94 14 22 14 28 1 60 -8 20 -21 36 -28 36 -7 0 -33 -23 -58 -52z"/>
<path d="M4999 9168 c0 -2 -2 -15 -4 -31 -4 -33 -24 -135 -31 -159 -4 -14 -17
-18 -61 -18 l-55 0 7 -27 c10 -42 34 -74 64 -85 l26 -10 -3 -104 c-4 -116 4
-143 65 -213 46 -55 79 -54 107 3 21 44 28 147 9 153 -6 2 -27 -10 -46 -26
-19 -17 -37 -31 -41 -31 -8 0 -8 178 0 207 4 15 17 23 41 28 58 11 85 33 81
69 -3 29 -6 31 -54 36 l-50 5 14 85 c14 83 14 84 -8 102 -18 15 -58 25 -61 16z"/>
<path d="M7950 9140 c0 -25 -7 -71 -26 -157 -4 -21 -10 -23 -59 -23 -46 0 -55
-3 -55 -17 0 -28 37 -82 65 -95 24 -11 25 -14 25 -116 0 -87 4 -112 21 -148
54 -107 117 -134 151 -64 20 43 32 130 19 149 -10 15 -7 16 -78 -35 l-23 -16
0 111 c0 98 2 112 18 117 9 3 37 13 62 22 41 16 45 20 45 52 l0 35 -52 3 -52
3 5 32 c3 18 10 57 16 86 10 51 9 56 -12 73 -12 10 -33 18 -46 18 -20 0 -24
-5 -24 -30z"/>
<path d="M4694 8952 c-26 -21 -40 -56 -59 -147 -26 -122 -13 -224 34 -277 78
-88 180 15 189 191 6 109 -10 182 -49 221 -35 35 -82 40 -115 12z m86 -139 c0
-69 -29 -160 -59 -187 -17 -15 -19 -15 -25 -1 -15 39 20 238 47 273 19 25 37
-16 37 -85z"/>
<path d="M6541 8931 c-62 -62 -111 -176 -111 -257 0 -90 60 -194 111 -194 64
0 137 83 147 168 6 53 13 55 -78 -20 -79 -65 -130 -70 -130 -13 0 41 39 149
71 200 l33 50 11 -58 c19 -90 35 -90 54 1 16 79 14 119 -9 142 -30 30 -55 25
-99 -19z"/>
<path d="M4295 8928 c-11 -69 -25 -216 -25 -276 0 -66 14 -104 48 -136 28 -25
42 -13 42 37 1 70 26 189 53 247 30 65 32 49 11 -75 -19 -111 -10 -158 41
-213 l33 -37 27 25 c37 35 66 105 72 178 7 73 -1 77 -51 25 -19 -21 -38 -35
-41 -31 -3 3 -1 34 5 69 18 111 14 166 -15 194 -29 30 -75 33 -98 7 -9 -10
-26 -40 -39 -67 -19 -43 -23 -47 -25 -25 -11 88 -15 110 -23 110 -5 0 -12 -15
-15 -32z"/>
<path d="M6114 8949 c-12 -20 -37 -315 -30 -353 8 -44 59 -106 75 -91 6 6 15
49 20 97 6 48 15 106 22 130 12 45 48 122 54 116 2 -2 -5 -52 -15 -111 -11
-67 -15 -119 -10 -136 11 -41 35 -84 58 -104 19 -17 22 -17 45 -2 47 30 106
222 75 241 -6 4 -28 -11 -49 -32 l-40 -39 7 122 7 121 -26 26 c-47 47 -91 32
-127 -43 -13 -28 -27 -51 -32 -51 -4 0 -8 24 -8 54 0 53 -11 78 -26 55z"/>
<path d="M7536 8933 c-11 -55 -26 -209 -26 -276 0 -71 13 -108 48 -141 28 -25
42 -13 42 37 0 23 4 69 10 101 11 67 61 207 68 188 2 -7 -4 -57 -13 -111 -20
-117 -12 -158 39 -217 l34 -39 27 25 c37 35 66 105 72 178 7 73 -1 77 -51 25
-19 -21 -37 -35 -40 -32 -3 2 -1 34 4 69 17 117 13 168 -15 195 -29 30 -75 33
-98 7 -9 -10 -26 -40 -38 -67 -24 -55 -25 -55 -34 28 -7 61 -20 74 -29 30z"/>
<path d="M5370 8939 c-13 -6 -31 -16 -40 -24 -8 -7 -26 -15 -40 -17 -15 -2
-26 -11 -29 -23 -2 -10 -22 -49 -45 -85 -35 -56 -41 -73 -41 -120 0 -82 35
-147 93 -172 40 -18 51 -19 96 -9 88 20 116 56 116 150 l0 65 -37 -36 c-75
-73 -192 -103 -214 -54 -9 19 -7 33 11 72 19 45 22 47 32 29 27 -48 56 -46
115 8 55 51 93 108 93 141 0 26 -50 86 -72 85 -7 0 -24 -5 -38 -10z"/>
<path d="M5914 8936 c-18 -8 -35 -19 -38 -25 -4 -6 -18 -11 -31 -11 -19 0 -26
-7 -31 -27 -4 -16 -18 -42 -30 -59 -69 -91 -77 -164 -27 -255 25 -47 74 -79
121 -79 38 0 114 33 128 56 22 32 33 90 27 130 l-6 34 -47 -43 c-49 -44 -103
-67 -158 -67 -53 0 -62 47 -21 114 16 27 17 27 24 7 7 -23 46 -37 68 -24 62
36 137 132 137 175 0 19 -10 40 -29 59 -33 32 -42 34 -87 15z"/>
<path d="M8306 8925 c-26 -14 -54 -25 -61 -25 -8 0 -21 -15 -29 -32 -7 -18
-30 -60 -50 -92 -45 -75 -48 -128 -10 -205 33 -66 62 -85 128 -85 105 0 156
53 156 161 l0 55 -41 -37 c-51 -45 -112 -74 -159 -75 -63 0 -75 32 -39 102
l21 42 15 -27 c20 -40 55 -35 109 15 58 53 98 121 90 151 -8 31 -37 64 -62 71
-13 4 -38 -3 -68 -19z"/>
<path d="M8664 8935 c-17 -8 -36 -20 -43 -28 -6 -8 -20 -13 -31 -10 -14 4 -21
-2 -26 -22 -4 -15 -22 -51 -41 -79 -52 -79 -60 -116 -38 -184 32 -101 103
-147 192 -123 56 15 90 45 103 89 11 42 13 105 3 115 -3 4 -25 -11 -49 -33
-53 -49 -107 -72 -159 -68 -36 3 -40 6 -43 32 -2 16 4 47 14 68 l17 39 22 -27
c35 -44 79 -23 159 74 48 59 50 108 5 146 -34 29 -41 30 -85 11z"/>
<path d="M3755 8887 c-65 -67 -126 -170 -132 -222 -4 -30 2 -54 23 -95 45 -89
72 -100 124 -47 17 17 41 49 51 70 22 42 34 42 42 0 8 -41 50 -98 74 -101 55
-8 102 63 103 155 0 63 -9 62 -63 -8 -20 -27 -45 -49 -54 -49 -13 0 -15 8 -9
53 21 162 20 190 -8 232 -39 60 -45 65 -73 65 -19 0 -42 -15 -78 -53z"/>
<path d="M7200 8883 c-70 -72 -133 -183 -132 -232 0 -20 12 -60 27 -89 27 -53
61 -80 89 -69 14 6 79 83 102 123 9 16 13 12 27 -31 38 -110 105 -126 151 -36
21 39 33 136 19 144 -6 4 -30 -18 -54 -48 -44 -55 -76 -68 -72 -30 1 11 7 66
14 122 12 100 12 103 -9 126 -12 13 -22 28 -22 34 0 17 -36 43 -60 43 -16 0
-43 -19 -80 -57z"/>
<path d="M6815 6895 c-15 -14 -25 -36 -25 -53 0 -38 -91 -572 -106 -624 -5
-16 -8 -14 -28 10 -13 15 -55 74 -93 132 -126 190 -184 301 -217 414 -9 31
-26 66 -36 76 -28 28 -82 26 -113 -2 -22 -20 -26 -37 -36 -138 -11 -101 -82
-476 -111 -579 -5 -20 -10 -64 -10 -98 0 -50 4 -67 20 -83 27 -27 71 -25 103
4 31 29 32 33 52 196 25 204 57 400 65 400 5 0 25 -30 46 -67 48 -88 155 -253
208 -323 23 -30 59 -83 80 -118 21 -34 46 -67 56 -72 45 -24 126 2 134 43 3
12 8 54 11 92 9 109 62 405 101 569 36 151 37 179 8 224 -20 31 -77 30 -109
-3z"/>
<path d="M4811 6863 c-26 -27 -112 -136 -193 -243 -81 -107 -159 -208 -172
-225 l-25 -29 -9 24 c-5 14 -42 114 -81 223 -39 109 -78 211 -86 227 -22 43
-58 64 -98 56 -63 -12 -69 -22 -83 -150 -9 -75 -40 -219 -84 -393 -38 -151
-70 -293 -70 -315 0 -30 7 -46 29 -69 34 -34 54 -36 97 -10 27 17 32 26 38 77
4 31 22 125 40 208 18 83 42 195 52 249 10 53 20 97 23 97 4 0 16 -35 28 -78
38 -137 85 -254 115 -288 71 -80 143 -26 363 273 65 90 120 161 122 159 2 -2
-3 -44 -11 -92 -27 -152 -46 -344 -46 -452 0 -96 2 -105 25 -127 16 -17 35
-25 60 -25 54 0 85 36 85 97 -1 26 -4 66 -9 88 -9 47 8 269 39 501 26 197 25
212 -19 241 -52 35 -78 30 -130 -24z"/>
<path d="M5630 6879 c-74 -10 -184 -21 -245 -25 -60 -4 -118 -11 -127 -16 -22
-11 -25 -75 -5 -102 11 -15 11 -37 0 -130 -20 -166 -62 -426 -78 -490 -28
-108 -15 -160 45 -176 34 -9 187 0 253 15 12 3 90 11 174 20 83 8 168 21 187
29 32 13 36 19 36 50 0 71 -45 86 -186 62 -56 -9 -153 -23 -215 -31 -151 -17
-149 -19 -126 117 10 56 21 106 25 110 5 5 55 15 113 23 57 8 153 21 213 29
122 17 146 30 146 82 0 64 -69 79 -222 50 -41 -8 -112 -18 -158 -22 l-83 -7 6
34 c29 156 45 213 63 219 31 12 180 28 318 36 117 6 132 9 153 30 28 28 30 67
3 94 -25 25 -99 25 -290 -1z"/>
<path d="M7213 6885 c-12 -8 -26 -30 -32 -48 -11 -34 -65 -353 -76 -448 -15
-133 47 -311 132 -375 152 -115 390 -96 545 44 81 73 110 152 128 346 7 67 20
175 31 241 23 145 24 184 3 213 -21 31 -77 30 -109 -2 -30 -30 -43 -77 -56
-206 -38 -376 -53 -446 -114 -507 -37 -37 -116 -63 -196 -63 -76 0 -143 43
-179 115 -23 45 -25 61 -24 165 1 72 10 156 23 225 48 244 47 233 26 273 -23
42 -65 53 -102 27z"/>
</g>
</svg>
