<?xml version="1.0" standalone="no"?>
<!DOCTYPE svg PUBLIC "-//W3C//DTD SVG 20010904//EN"
 "http://www.w3.org/TR/2001/REC-SVG-20010904/DTD/svg10.dtd">
<svg version="1.0" xmlns="http://www.w3.org/2000/svg"
 width="1190.000000pt" height="1684.000000pt" viewBox="0 0 1190.000000 1684.000000"
 preserveAspectRatio="xMidYMid meet">
<metadata>
Created by potrace 1.16, written by Peter Selinger 2001-2019
</metadata>
<g transform="translate(0.000000,1684.000000) scale(0.100000,-0.100000)"
fill="#000000" stroke="none">
<path d="M9725 9743 c-13 -12 -15 -26 -10 -59 5 -35 1 -50 -24 -95 -55 -98
-55 -97 -34 -73 10 11 35 39 55 63 20 24 41 40 46 37 23 -14 55 -103 56 -155
0 -45 -3 -56 -24 -73 -21 -17 -36 -19 -90 -16 l-65 4 40 -18 c72 -32 165 -18
209 30 10 12 21 41 23 66 5 36 0 54 -21 90 -15 25 -42 57 -61 72 -34 26 -35
29 -29 74 5 42 4 49 -14 59 -28 15 -38 14 -57 -6z"/>
<path d="M6585 9740 c-3 -5 -14 -7 -25 -5 -11 2 -20 3 -20 2 -1 -1 -3 -111 -6
-244 l-6 -243 51 0 51 0 0 238 c0 130 -4 242 -8 247 -10 14 -30 17 -37 5z"/>
<path d="M6814 9732 c-21 -14 -25 -45 -8 -63 10 -11 23 -19 31 -19 9 0 13 -15
14 -47 0 -36 3 -43 9 -28 5 11 9 32 9 48 1 22 6 27 29 28 15 0 36 4 47 8 41
17 45 5 45 -126 0 -171 21 -206 115 -189 40 8 57 26 23 26 -44 0 -48 14 -48
180 0 86 -3 159 -6 163 -4 3 -23 -1 -42 -9 -20 -8 -52 -17 -72 -20 -19 -3 -40
-7 -46 -9 -7 -2 -25 12 -42 31 -31 35 -39 39 -58 26z"/>
<path d="M7356 9710 c-68 -21 -111 -94 -110 -185 1 -67 17 -106 63 -149 38
-37 111 -47 159 -22 39 20 42 29 6 16 -15 -6 -42 -8 -61 -4 -49 9 -63 47 -63
169 0 108 14 150 58 166 46 18 93 -5 121 -58 14 -27 15 -182 1 -217 -7 -19 -6
-26 3 -26 7 0 17 -10 22 -22 19 -42 104 -49 151 -13 16 13 16 14 1 9 -9 -3
-28 -3 -42 0 l-25 6 0 165 0 165 -50 0 c-27 0 -50 -4 -50 -10 0 -14 -23 -12
-56 5 -32 16 -83 18 -128 5z"/>
<path d="M8015 9710 c-16 -7 -13 -9 17 -9 46 -1 46 -1 50 -178 3 -123 5 -134
28 -158 27 -29 93 -35 126 -10 19 14 19 14 -3 15 -46 0 -53 22 -53 163 0 73
-4 138 -9 145 -22 36 -107 53 -156 32z"/>
<path d="M8472 9712 c-34 -10 -90 -59 -108 -94 -22 -42 -21 -136 1 -179 22
-42 60 -76 103 -90 17 -6 32 -16 32 -22 0 -8 4 -7 12 1 7 7 25 12 40 12 24 0
88 24 88 33 0 2 -28 1 -63 -1 -56 -4 -67 -1 -92 21 -27 23 -29 30 -33 114 -7
137 18 188 96 203 l37 8 -45 0 c-25 0 -55 -3 -68 -6z"/>
<path d="M8865 9696 c-71 -43 -100 -143 -69 -241 23 -74 64 -107 140 -113 50
-4 58 -2 96 28 l40 33 25 -32 c28 -36 68 -41 124 -16 29 12 31 14 11 15 -13 0
-32 5 -43 10 -18 10 -19 23 -19 170 l0 160 -45 0 c-25 0 -45 -4 -45 -10 0 -15
-42 -11 -64 5 -31 23 -105 19 -151 -9z m181 -32 c24 -31 28 -47 32 -117 3 -71
0 -88 -20 -127 -18 -34 -31 -46 -56 -53 -44 -11 -82 9 -104 53 -23 47 -24 179
-2 223 26 51 34 57 80 57 38 0 46 -4 70 -36z"/>
<path d="M9390 9551 c6 -190 13 -211 75 -211 27 0 105 24 105 33 0 1 -17 2
-37 2 l-38 0 -5 152 c-6 172 -14 193 -72 193 l-33 0 5 -169z"/>
<path d="M10125 9705 c-116 -41 -154 -199 -71 -299 43 -53 86 -70 165 -64 41
3 66 11 87 28 18 14 21 20 9 15 -35 -15 -126 -18 -151 -4 -37 19 -57 85 -53
172 4 62 9 80 32 110 34 44 68 55 102 33 54 -36 39 -138 -27 -173 -27 -14 -29
-18 -14 -21 10 -2 38 4 63 13 94 36 114 148 33 190 -36 19 -122 19 -175 0z"/>
<path d="M7840 9530 l0 -180 50 0 50 0 0 154 c0 103 4 157 11 162 10 6 -80 44
-103 44 -4 0 -8 -81 -8 -180z"/>
<path d="M6070 9643 c0 -6 -9 -10 -20 -8 -11 2 -20 -2 -20 -8 0 -7 -4 -6 -10
3 -7 10 -10 -13 -10 -75 -1 -52 -7 -107 -15 -130 -8 -22 -15 -41 -15 -42 0 -2
9 -3 20 -3 11 0 29 -9 40 -20 23 -23 71 -26 115 -5 l30 13 -32 1 c-17 1 -34 5
-37 10 -3 5 -8 66 -10 136 -3 70 -7 130 -10 133 -3 3 -6 -1 -6 -9 0 -11 -2
-11 -10 1 -6 9 -10 10 -10 3z"/>
<path d="M5744 9571 c-14 -14 -16 -14 -9 -1 6 11 5 12 -4 4 -25 -23 -18 -86
19 -165 26 -57 148 -91 196 -54 17 13 17 14 2 15 -10 0 -18 -4 -18 -10 0 -17
-28 -11 -65 13 -40 25 -53 60 -56 153 -2 56 -4 60 -25 60 -13 0 -31 -7 -40
-15z"/>
<path d="M5505 9531 c-3 -6 -15 -8 -26 -6 -21 4 -21 2 -16 -64 8 -81 13 -98
38 -111 31 -17 99 -10 99 11 0 5 -8 9 -19 9 -23 0 -31 26 -31 108 0 63 -5 72
-29 50 -11 -10 -13 -10 -7 0 8 14 0 17 -9 3z"/>
<path d="M3940 7970 c0 -28 2 -30 40 -30 l40 0 0 -410 0 -410 -45 0 c-43 0
-45 -1 -45 -30 l0 -30 125 0 125 0 0 30 c0 29 -1 30 -50 30 l-50 0 0 363 c1
307 3 358 14 337 7 -14 78 -190 157 -392 l143 -368 31 0 31 0 143 368 c79 202
150 378 157 392 11 21 13 -30 14 -337 l0 -363 -45 0 c-43 0 -45 -1 -45 -30 l0
-30 205 0 205 0 0 30 c0 29 -2 30 -45 30 l-45 0 0 410 0 410 45 0 c43 0 45 1
45 30 l0 30 -168 0 -167 0 -108 -293 c-60 -162 -112 -300 -117 -307 -10 -17 3
-45 -144 315 l-115 280 -165 3 -166 2 0 -30z"/>
<path d="M5484 7747 c-107 -28 -185 -94 -233 -197 -21 -46 -25 -69 -25 -145 0
-117 31 -192 110 -265 74 -66 131 -85 264 -85 99 0 110 2 172 33 67 33 108 73
142 140 l17 32 -29 0 c-22 0 -34 -9 -53 -37 -52 -80 -170 -127 -259 -103 -85
23 -144 110 -157 230 l-6 60 252 0 251 0 0 38 c0 126 -87 244 -212 288 -60 21
-173 26 -234 11z m171 -78 c25 -23 40 -48 55 -96 34 -110 43 -103 -131 -103
-138 0 -150 1 -145 18 2 9 8 33 11 52 28 140 128 201 210 129z"/>
<path d="M6545 7743 c-56 -17 -93 -40 -147 -92 l-38 -35 0 67 0 67 -135 0
-135 0 0 -30 c0 -28 2 -30 40 -30 l40 0 0 -285 0 -285 -40 0 c-38 0 -40 -2
-40 -30 l0 -30 185 0 185 0 0 30 c0 29 -2 30 -45 30 l-45 0 0 158 c1 176 9
230 47 285 45 65 132 105 189 87 54 -18 58 -41 62 -297 l3 -233 -45 0 c-44 0
-46 -1 -46 -30 l0 -30 190 0 190 0 0 30 c0 29 -2 30 -45 30 l-45 0 0 221 c0
133 -5 238 -12 266 -30 121 -167 181 -313 136z"/>
<path d="M7080 7720 c0 -28 2 -30 39 -30 l39 0 4 -242 c3 -227 5 -246 25 -284
30 -57 72 -89 134 -104 107 -26 219 7 302 88 l47 46 0 -67 0 -67 140 0 140 0
0 30 c0 29 -2 30 -45 30 l-45 0 0 315 0 315 -145 0 -145 0 0 -30 c0 -29 2 -30
46 -30 l46 0 -4 -187 c-3 -170 -5 -192 -25 -228 -27 -51 -68 -90 -115 -109
-44 -19 -68 -20 -101 -5 -46 21 -51 46 -55 327 l-4 262 -139 0 -139 0 0 -30z"/>
</g>
</svg>
