<?xml version="1.0" standalone="no"?>
<!DOCTYPE svg PUBLIC "-//W3C//DTD SVG 20010904//EN"
 "http://www.w3.org/TR/2001/REC-SVG-20010904/DTD/svg10.dtd">
<svg version="1.0" xmlns="http://www.w3.org/2000/svg"
 width="1190.000000pt" height="1684.000000pt" viewBox="0 0 1190.000000 1684.000000"
 preserveAspectRatio="xMidYMid meet">

<g transform="translate(0.000000,1684.000000) scale(0.100000,-0.100000)"
fill="#000000" stroke="none">
<path d="M2474 14987 c-31 -24 -53 -56 -87 -127 -25 -52 -49 -107 -53 -122
-16 -69 -64 -7 -64 82 0 70 -12 75 -43 17 -30 -58 -7 -107 69 -153 16 -10 17
-15 6 -55 -7 -24 -17 -53 -22 -64 -6 -11 -24 -63 -40 -115 -41 -127 -42 -128
-130 -116 -91 13 -124 2 -128 -40 -2 -24 4 -39 28 -63 47 -46 108 -42 167 11
l22 20 108 -45 c131 -54 164 -61 208 -43 33 14 73 61 62 72 -3 4 -19 2 -34 -3
-30 -10 -34 -10 -73 -1 -14 4 -68 16 -120 28 -52 13 -99 26 -103 30 -5 4 10
46 32 93 23 48 54 126 70 174 l29 88 54 9 c29 5 55 12 58 16 3 3 22 14 42 23
20 10 46 30 57 45 12 15 26 33 33 41 19 22 38 109 31 144 -16 88 -103 114
-179 54z m104 -9 c28 -28 3 -141 -44 -203 -30 -40 -94 -85 -119 -85 -19 0 -19
0 1 68 36 123 100 232 137 232 7 0 18 -5 25 -12z m-457 -685 l42 -16 -23 -19
c-45 -37 -130 -16 -130 33 0 25 52 26 111 2z"/>
<path d="M3805 14973 c-30 -42 -141 -286 -160 -353 -15 -54 -91 -198 -134
-257 -47 -64 -82 -87 -123 -81 -20 3 -23 10 -26 47 -3 35 4 60 32 115 40 81
61 106 118 142 27 17 50 24 69 22 20 -3 29 0 29 9 0 7 -3 14 -7 14 -103 18
-210 -61 -284 -209 -46 -90 -49 -128 -14 -166 27 -30 70 -34 113 -12 33 17
118 107 126 134 4 11 13 23 20 25 11 5 12 -1 4 -31 -13 -47 -4 -113 18 -129
37 -27 113 -3 163 51 31 33 36 33 47 -5 14 -48 54 -73 118 -73 72 0 130 27
194 91 l52 53 0 -33 c0 -17 9 -47 20 -64 17 -29 25 -33 63 -33 47 0 76 16 123
68 l30 34 12 -41 c7 -22 21 -45 32 -51 46 -25 117 -3 172 54 19 20 37 36 40
36 3 0 8 -17 12 -38 9 -60 45 -87 114 -86 66 0 105 18 167 75 l43 40 11 -33
c32 -96 194 -95 295 0 42 40 86 104 86 124 0 7 -9 0 -20 -17 -66 -100 -131
-146 -211 -149 -54 -1 -84 19 -94 65 -9 41 6 55 77 75 130 37 230 166 178 229
-15 18 -91 20 -123 4 -76 -40 -165 -148 -186 -225 -14 -53 -79 -117 -147 -144
-52 -21 -56 -22 -89 -6 -62 30 -60 116 5 231 42 72 81 105 126 105 29 0 32
-29 9 -74 -16 -30 -12 -46 10 -46 21 0 45 41 45 77 0 92 -119 97 -205 9 -38
-39 -80 -108 -89 -147 -3 -14 -28 -49 -55 -78 -47 -49 -52 -52 -93 -49 l-43 3
-3 56 c-3 51 2 65 48 152 55 105 60 127 31 127 -28 0 -88 -75 -111 -139 -27
-72 -41 -102 -62 -125 -10 -11 -18 -26 -18 -33 0 -17 -58 -53 -86 -53 -38 0
-47 23 -42 111 5 76 7 83 39 113 53 51 92 99 137 171 54 85 113 228 114 274 1
51 -18 93 -40 89 -54 -10 -238 -340 -287 -513 -26 -94 -54 -142 -112 -195
-106 -97 -232 -85 -233 21 0 28 13 36 95 59 155 44 243 246 106 243 -46 -1
-138 -49 -161 -84 -8 -13 -24 -32 -35 -44 -19 -20 -48 -78 -59 -120 -4 -12
-26 -40 -50 -64 -32 -32 -52 -43 -77 -44 l-34 -2 1 72 c0 40 5 83 11 95 6 13
21 55 33 93 25 76 41 114 187 422 17 35 12 63 -12 63 -8 0 -30 -21 -50 -47z
m661 -142 c-9 -16 -16 -36 -16 -43 0 -20 -114 -207 -154 -253 -27 -30 -35 -36
-36 -22 0 11 7 33 15 50 8 18 24 57 35 87 25 65 68 142 124 225 l41 60 3 -37
c2 -20 -4 -50 -12 -67z m-396 -253 c0 -18 -8 -47 -19 -63 -33 -55 -181 -140
-181 -105 0 28 75 133 117 165 59 45 83 46 83 3z m1206 17 c18 -47 -49 -132
-138 -175 -55 -27 -58 -27 -58 -9 0 83 173 245 196 184z"/>
<path d="M6178 14993 c-28 -33 -68 -103 -89 -156 -11 -28 -29 -72 -40 -96 -11
-24 -32 -76 -46 -114 -83 -230 -221 -397 -280 -339 -20 20 -12 81 20 153 25
55 91 139 108 139 6 0 18 7 27 16 11 12 27 15 54 11 33 -4 37 -3 27 9 -18 22
-78 17 -128 -12 -62 -36 -115 -95 -156 -176 -45 -87 -48 -147 -9 -177 49 -39
100 -23 170 51 22 24 48 55 57 71 10 15 21 27 25 27 4 0 6 -31 4 -68 -4 -65
-3 -69 23 -86 24 -16 34 -17 65 -7 21 6 55 27 77 46 21 19 43 35 48 35 6 0 15
-14 20 -32 30 -97 188 -95 293 5 27 27 34 29 42 17 5 -8 10 -20 10 -26 0 -7
16 -26 35 -43 29 -25 45 -31 81 -31 92 0 144 53 144 144 0 58 -26 183 -41 201
-5 5 -9 33 -9 62 0 29 -4 53 -8 53 -16 0 -42 -36 -42 -58 0 -53 -70 -158 -127
-192 -18 -11 -33 -24 -33 -30 0 -21 -48 -82 -82 -105 -68 -46 -157 -55 -193
-18 -9 8 -15 33 -15 58 0 42 0 43 46 54 143 36 242 146 205 227 -16 36 -80 33
-148 -6 -29 -17 -53 -34 -53 -38 0 -4 -15 -23 -34 -42 -31 -33 -48 -64 -75
-136 -21 -54 -97 -114 -146 -114 -7 0 -16 11 -19 25 -7 28 9 147 24 173 5 9
19 49 31 87 12 39 30 86 39 105 84 162 153 326 145 341 -9 14 -30 11 -47 -8z
m247 -393 c11 -18 -15 -86 -46 -118 -32 -32 -132 -92 -156 -92 -10 0 -9 9 5
38 9 20 20 39 23 42 3 3 14 19 23 37 9 18 37 48 62 68 47 35 77 44 89 25z
m262 -126 c13 -64 15 -144 4 -184 -4 -13 -21 -32 -38 -43 -30 -17 -32 -17 -65
1 -37 21 -58 54 -58 95 0 33 28 49 42 24 10 -19 96 -72 104 -65 3 3 -11 13
-30 22 -38 18 -76 60 -76 83 0 21 83 133 95 129 5 -1 15 -29 22 -62z"/>
<path d="M9009 14978 c-82 -89 -195 -315 -254 -508 -10 -30 -24 -66 -32 -79
-11 -17 -12 -26 -4 -34 6 -6 11 -22 11 -35 0 -26 17 -63 34 -74 20 -13 92 -8
112 8 18 14 18 15 -4 4 -62 -30 -99 24 -86 127 6 49 12 62 50 99 24 23 44 46
44 51 0 4 -11 -5 -25 -20 -14 -15 -30 -27 -35 -27 -29 0 101 288 177 393 69
94 82 39 22 -91 -16 -35 -29 -65 -29 -67 0 -6 -73 -129 -89 -150 l-15 -20 21
20 c33 30 119 179 143 249 12 33 26 69 31 78 13 26 11 56 -7 83 -21 32 -29 31
-65 -7z"/>
<path d="M9274 14992 c-48 -38 -140 -196 -203 -347 -18 -44 -37 -89 -42 -100
-4 -11 -13 -40 -20 -65 -6 -25 -18 -59 -26 -77 -7 -18 -11 -43 -9 -55 3 -13 7
-35 10 -50 9 -41 32 -58 79 -57 40 1 40 1 15 10 -36 14 -52 64 -43 136 6 47
13 62 46 94 42 41 55 67 14 29 -14 -13 -27 -22 -29 -19 -6 6 35 122 67 189 68
143 138 250 163 250 17 0 17 -12 3 -64 -11 -40 -85 -201 -101 -220 -22 -28
-59 -89 -55 -93 12 -11 135 205 174 302 23 59 26 104 9 130 -19 29 -24 30 -52
7z"/>
<path d="M4174 14832 c-45 -42 -70 -90 -55 -105 6 -6 29 11 65 47 60 59 64 67
43 85 -10 8 -23 2 -53 -27z"/>
<path d="M4620 14803 c-48 -18 -65 -64 -30 -83 32 -17 80 13 80 49 0 17 -6 31
-16 35 -9 3 -16 6 -17 5 -1 0 -9 -3 -17 -6z"/>
<path d="M8652 14780 c-13 -11 -22 -27 -20 -37 8 -43 102 -14 96 30 -4 29 -46
33 -76 7z"/>
<path d="M9735 14623 c-4 -21 -10 -48 -15 -60 -7 -17 -6 -21 5 -17 9 4 16 -11
25 -53 6 -32 16 -75 21 -95 10 -38 3 -88 -11 -88 -5 0 -6 -8 -3 -19 5 -20 -38
-61 -64 -61 -46 0 -103 60 -103 109 0 24 28 54 42 45 7 -5 7 -1 0 12 -8 15 -7
24 6 39 16 19 16 19 -3 4 -11 -9 -28 -19 -38 -22 -10 -4 -24 -22 -32 -40 -21
-51 -95 -113 -157 -132 -48 -16 -57 -16 -90 -2 -28 12 -39 24 -46 51 -13 45
-6 74 20 82 17 5 18 7 3 17 -40 30 104 217 167 217 36 0 44 -20 28 -70 -16
-48 -48 -80 -120 -119 -57 -32 -46 -42 17 -16 110 46 174 149 130 210 -27 36
-141 -3 -200 -70 -9 -11 -26 -29 -36 -41 -11 -11 -32 -52 -47 -90 -15 -38 -32
-72 -38 -76 -7 -5 -4 -8 7 -8 10 0 15 -4 12 -10 -10 -16 24 -69 55 -85 62 -32
172 -6 237 57 34 33 63 33 63 0 0 -23 34 -60 67 -73 61 -23 125 -2 166 53 23
31 24 38 17 108 -5 41 -16 98 -26 125 -9 28 -18 74 -18 102 -1 43 -4 53 -18
53 -12 0 -19 -11 -23 -37z"/>
<path d="M7216 14633 c-3 -10 -10 -58 -16 -108 -18 -147 -40 -266 -64 -340
-47 -143 -58 -186 -52 -200 7 -20 23 -19 35 3 17 32 82 236 102 322 33 137
104 239 179 255 108 24 115 -133 11 -248 -33 -36 -65 -53 -115 -61 -50 -8 -55
-13 -21 -22 40 -10 124 20 171 60 74 63 117 172 94 240 -23 72 -93 96 -159 55
-30 -18 -47 -35 -101 -102 l-19 -22 3 26 c2 14 6 31 9 37 4 5 8 29 9 53 1 31
-4 45 -17 55 -25 19 -43 17 -49 -3z"/>
<path d="M8097 14618 c-8 -18 -17 -70 -20 -116 -5 -60 -12 -91 -27 -112 -11
-15 -20 -30 -20 -33 0 -12 -70 -77 -99 -91 -36 -19 -59 -12 -72 23 -9 21 -4
37 25 95 20 38 33 73 30 77 -13 21 -34 4 -99 -82 -74 -95 -120 -133 -157 -127
-17 2 -24 11 -26 32 -11 95 87 258 181 301 34 16 39 16 62 1 19 -12 25 -25 25
-51 0 -37 22 -49 34 -19 30 78 -74 123 -169 73 -91 -48 -189 -184 -202 -278
-5 -35 -2 -44 26 -72 26 -25 37 -30 59 -24 38 9 96 51 112 80 17 32 40 32 40
2 0 -54 74 -76 139 -43 17 9 45 32 63 51 39 44 52 44 45 3 -5 -35 -8 -45 -59
-211 -28 -92 -30 -109 -18 -117 8 -5 18 -6 22 -2 11 12 75 214 88 282 7 36 17
69 21 75 5 5 9 17 9 27 0 11 7 33 16 50 9 17 18 47 19 67 2 20 6 57 10 84 6
39 4 51 -10 67 -25 27 -33 25 -48 -12z"/>
<path d="M2820 14611 c-58 -36 -135 -122 -161 -178 -22 -48 -27 -129 -10 -160
29 -55 132 -75 212 -40 50 21 112 79 149 138 41 67 24 62 -30 -10 -80 -105
-204 -148 -256 -88 -35 41 -14 107 34 107 31 0 118 47 154 84 61 61 75 119 38
156 -28 28 -77 25 -130 -9z m99 -19 c13 -24 -7 -64 -55 -113 -35 -36 -129 -88
-140 -77 -19 20 66 145 125 183 44 29 57 30 70 7z"/>
<path d="M8242 14581 c-22 -17 -48 -44 -58 -60 -10 -17 -22 -31 -26 -31 -4 0
-8 -6 -8 -12 1 -7 15 3 33 23 56 64 128 87 160 51 19 -21 23 -93 8 -140 -13
-43 -74 -118 -111 -137 -16 -8 -46 -19 -67 -24 l-38 -9 45 0 c62 -1 102 16
151 63 97 92 118 249 38 290 -43 23 -82 18 -127 -14z"/>
<path d="M8567 14582 c-43 -44 -97 -186 -97 -254 0 -48 4 -59 22 -72 12 -9 36
-16 52 -16 34 0 108 33 128 57 7 9 -5 5 -27 -10 -42 -28 -93 -35 -113 -15 -34
34 -4 149 68 267 44 71 21 100 -33 43z"/>
<path d="M6880 14395 c-7 -9 -8 -15 -2 -15 5 0 12 7 16 15 3 8 4 15 2 15 -2 0
-9 -7 -16 -15z"/>
<path d="M6837 14344 c-15 -13 -24 -24 -20 -24 12 1 58 38 53 43 -3 3 -18 -6
-33 -19z"/>
<path d="M9655 14350 c10 -11 20 -20 23 -20 3 0 -3 9 -13 20 -10 11 -20 20
-23 20 -3 0 3 -9 13 -20z"/>
<path d="M8689 14333 c-13 -16 -12 -17 4 -4 16 13 21 21 13 21 -2 0 -10 -8
-17 -17z"/>
<path d="M9120 14260 c-8 -5 -10 -10 -5 -10 6 0 17 5 25 10 8 5 11 10 5 10 -5
0 -17 -5 -25 -10z"/>
<path d="M5235 12531 c-3 -10 -12 -56 -20 -101 -13 -75 -13 -86 1 -107 19 -30
47 -24 86 18 32 33 45 75 31 97 -16 26 -30 24 -68 -9 l-36 -32 6 29 c4 16 11
42 16 58 12 37 12 66 0 66 -5 0 -12 -8 -16 -19z m85 -115 c0 -24 -45 -81 -68
-84 -32 -5 -28 20 9 63 32 36 59 46 59 21z"/>
<path d="M5400 12516 c0 -24 18 -28 30 -6 9 17 8 20 -10 20 -11 0 -20 -6 -20
-14z"/>
<path d="M4470 12499 c-24 -9 -25 -13 -27 -104 -2 -54 1 -95 6 -95 6 0 11 14
13 31 2 18 10 35 18 39 83 38 114 58 121 78 18 49 -58 78 -131 51z m108 -35
c3 -24 -32 -51 -79 -61 l-32 -6 8 39 c8 47 19 55 65 52 27 -2 36 -8 38 -24z"/>
<path d="M618 12452 c30 -41 66 -69 111 -84 28 -10 396 -13 1664 -16 896 -1
1627 1 1625 5 -2 5 -10 20 -17 35 l-14 28 -1621 2 -1621 3 -55 21 c-30 12 -64
25 -74 30 -19 7 -18 5 2 -24z"/>
<path d="M11310 12470 c-8 -6 -37 -18 -65 -28 -47 -16 -162 -17 -1668 -22
l-1618 -5 -21 -33 -20 -32 1633 2 c1813 4 1680 -2 1751 72 47 47 51 74 8 46z"/>
<path d="M4675 12450 c-47 -18 -74 -89 -50 -127 21 -31 51 -29 86 7 25 24 30
37 27 66 -4 43 -32 67 -63 54z m43 -52 c4 -30 -39 -83 -61 -75 -36 12 -3 111
36 105 16 -2 23 -11 25 -30z"/>
<path d="M5475 12434 c-27 -29 -40 -73 -30 -104 9 -30 51 -37 83 -13 34 25 44
53 11 30 -27 -19 -69 -23 -69 -6 0 6 19 28 42 48 29 26 40 42 35 54 -9 25 -45
21 -72 -9z m45 -8 c0 -15 -40 -49 -48 -41 -7 7 27 55 38 55 6 0 10 -6 10 -14z"/>
<path d="M5930 12440 c-53 -53 -59 -140 -10 -140 26 0 80 27 80 41 0 5 -14 2
-31 -6 -56 -29 -78 5 -42 66 20 33 30 36 50 12 12 -16 13 -15 11 12 -4 37 -29
44 -58 15z"/>
<path d="M6083 12449 c-42 -15 -70 -108 -41 -137 19 -19 44 -14 76 13 65 54
37 151 -35 124z m45 -54 c4 -41 -39 -85 -63 -65 -19 15 -19 22 0 66 11 28 19
35 37 32 17 -2 24 -11 26 -33z"/>
<path d="M6210 12458 c0 -2 -4 -29 -10 -61 -16 -99 4 -114 51 -37 17 28 35 50
39 50 5 0 10 -19 12 -42 2 -23 9 -43 15 -45 7 -3 25 16 40 41 30 49 43 57 43
27 0 -32 22 -81 36 -81 16 0 18 13 5 38 -6 9 -13 34 -16 55 -5 32 -10 38 -28
35 -13 -2 -30 -18 -42 -40 -26 -49 -35 -48 -35 2 0 33 -3 40 -20 40 -12 0 -30
-16 -46 -40 -15 -22 -28 -40 -30 -40 -2 0 -1 20 2 44 4 27 2 46 -5 50 -6 4
-11 6 -11 4z"/>
<path d="M6495 12448 c-11 -29 -10 -131 1 -135 7 -2 26 19 43 47 17 27 35 50
40 50 6 0 11 -19 13 -42 2 -30 8 -43 18 -43 8 0 25 19 38 43 26 47 42 54 42
18 0 -37 18 -76 35 -76 16 0 20 16 6 24 -5 4 -12 25 -16 49 -8 46 -22 70 -37
61 -5 -3 -21 -24 -36 -47 l-27 -42 -5 40 c-7 56 -31 57 -70 3 l-32 -43 7 46
c5 30 3 49 -4 53 -6 4 -13 1 -16 -6z"/>
<path d="M6795 12434 c-27 -29 -40 -73 -30 -104 9 -30 51 -37 83 -13 34 25 44
53 11 30 -27 -19 -69 -23 -69 -6 0 6 19 28 42 48 29 26 40 42 35 54 -9 25 -45
21 -72 -9z m45 -8 c0 -15 -40 -49 -48 -41 -7 7 27 55 38 55 6 0 10 -6 10 -14z"/>
<path d="M7126 12428 c-45 -60 -43 -128 5 -128 25 0 79 27 79 40 0 14 -7 13
-35 -6 -49 -32 -71 6 -40 66 17 33 45 40 45 13 0 -12 3 -14 11 -6 16 16 1 53
-21 53 -11 0 -30 -15 -44 -32z"/>
<path d="M7273 12438 c-27 -30 -43 -62 -43 -86 0 -23 30 -52 53 -52 19 0 89
59 71 60 -6 0 -17 -7 -24 -15 -15 -18 -70 -20 -70 -2 0 7 13 21 30 30 34 21
54 52 46 73 -8 21 -40 17 -63 -8z m47 -6 c0 -9 -25 -33 -49 -47 -10 -6 -12 -4
-6 6 22 38 55 63 55 41z"/>
<path d="M4786 12413 c-16 -98 2 -130 51 -89 l30 25 11 -24 c19 -42 28 -28 24
38 -5 86 -6 87 -30 41 -40 -79 -79 -99 -69 -36 4 20 8 46 9 56 2 10 -2 21 -8
23 -6 2 -14 -13 -18 -34z"/>
<path d="M4955 12396 c-4 -29 -5 -61 -3 -71 6 -33 24 -26 36 13 17 56 49 94
73 87 13 -5 19 -2 19 10 0 30 -52 14 -78 -25 l-25 -35 6 38 c4 27 2 37 -8 37
-9 0 -16 -18 -20 -54z"/>
<path d="M5385 12440 c-3 -5 -8 -39 -12 -76 -5 -51 -3 -66 6 -63 7 3 14 25 16
49 2 25 6 57 10 73 7 26 -7 39 -20 17z"/>
<path d="M7395 12417 c-9 -46 -2 -110 11 -114 7 -2 15 12 18 31 9 49 52 99 78
90 15 -4 19 -2 16 7 -9 28 -42 22 -70 -12 l-28 -33 0 32 c0 42 -17 41 -25 -1z"/>
<path d="M5596 12403 c-17 -104 5 -123 48 -42 15 27 33 48 39 46 7 -2 15 -21
18 -41 7 -43 26 -61 48 -43 12 10 12 12 -2 15 -9 2 -19 18 -22 35 -12 59 -16
67 -35 67 -11 0 -30 -16 -45 -37 l-25 -38 0 38 c0 48 -16 48 -24 0z"/>
<path d="M6916 12432 c-2 -4 -6 -32 -7 -61 -4 -65 13 -78 38 -31 10 18 26 42
35 54 15 18 19 19 28 6 5 -8 10 -27 10 -41 0 -33 20 -52 40 -38 13 8 13 11 -2
20 -10 6 -18 22 -18 38 0 15 -6 36 -14 47 -19 25 -43 12 -73 -42 l-23 -39 6
48 c5 31 3 47 -4 47 -6 0 -13 -3 -16 -8z"/>
<path d="M10018 11600 c-21 -23 -44 -40 -51 -39 -23 3 -37 -1 -37 -11 0 -5 12
-10 26 -10 32 0 27 -22 -6 -30 -34 -8 -38 -30 -6 -30 18 0 29 -7 35 -23 15
-39 37 -50 92 -45 28 3 58 12 67 21 24 25 7 32 -33 12 -42 -19 -80 -14 -94 14
-9 17 -6 20 34 26 58 8 58 25 0 25 -35 0 -43 3 -39 14 4 10 23 16 52 18 56 4
62 22 10 26 -41 3 -47 12 -23 32 10 8 31 11 60 7 47 -7 60 4 26 23 -39 21 -73
12 -113 -30z"/>
<path d="M9568 11613 c-30 -5 -84 -65 -74 -81 3 -6 26 -13 50 -16 24 -4 50
-14 57 -23 11 -13 10 -18 -11 -35 -20 -16 -34 -19 -72 -15 -51 6 -71 -5 -39
-22 46 -25 129 -3 151 40 18 32 -11 67 -60 75 -43 7 -47 11 -27 37 8 11 31 17
76 19 41 2 66 8 69 16 4 12 -56 15 -120 5z"/>
<path d="M9803 11613 c-21 -3 -39 -14 -53 -33 -32 -45 -26 -56 33 -66 42 -7
53 -13 55 -31 5 -31 -30 -47 -90 -40 -26 3 -48 3 -48 -1 0 -19 27 -32 66 -32
72 0 133 73 91 108 -7 6 -32 14 -55 18 -47 7 -50 13 -24 37 13 12 37 17 80 17
48 0 62 3 62 15 0 15 -38 18 -117 8z"/>
<path d="M2864 11583 c-10 -49 -12 -51 -40 -55 -49 -6 -88 -88 -52 -111 14 -9
22 -7 43 13 14 13 25 19 25 14 0 -20 17 -34 33 -28 9 3 17 10 17 16 0 5 -5 6
-10 3 -25 -16 -23 41 6 153 4 13 2 22 -5 22 -6 0 -13 -12 -17 -27z m-24 -87
c0 -20 -39 -66 -56 -66 -20 0 -17 23 7 54 22 28 49 35 49 12z"/>
<path d="M4863 11589 c-18 -12 -30 -25 -27 -30 5 -9 64 29 64 43 0 11 0 11
-37 -13z"/>
<path d="M3246 11568 c-3 -18 -10 -60 -16 -92 -12 -72 -12 -66 0 -66 5 0 23
20 40 45 35 50 50 57 50 21 0 -35 10 -56 26 -56 11 0 12 4 4 19 -5 11 -10 30
-10 43 -1 57 -33 58 -72 2 l-20 -29 7 35 c16 82 17 110 7 110 -6 0 -13 -15
-16 -32z"/>
<path d="M4240 11585 c0 -8 4 -15 9 -15 5 0 11 7 15 15 3 9 0 15 -9 15 -8 0
-15 -7 -15 -15z"/>
<path d="M1823 11573 c-61 -5 -72 -23 -14 -23 l38 0 -5 -70 c-3 -48 -1 -70 7
-70 6 0 11 16 11 38 0 20 3 54 6 75 6 35 8 37 45 37 22 0 39 5 39 10 0 10 -20
10 -127 3z"/>
<path d="M2226 11556 c-6 -26 -38 -40 -54 -24 -14 14 -48 -6 -67 -40 l-16 -27
6 38 c3 20 2 37 -3 37 -15 0 -22 -27 -22 -82 0 -55 18 -63 31 -14 13 46 44 73
80 68 29 -4 30 -5 23 -48 -5 -36 -3 -45 11 -50 19 -8 65 11 65 26 0 6 -9 5
-25 -2 -32 -15 -39 -7 -31 37 6 28 11 35 31 35 13 0 27 5 30 10 4 6 -5 10 -20
10 -22 0 -25 3 -19 25 3 14 2 25 -4 25 -5 0 -13 -11 -16 -24z"/>
<path d="M3157 11573 c-4 -3 -7 -14 -7 -24 0 -9 -10 -20 -22 -24 -19 -6 -20
-8 -6 -12 14 -4 16 -12 11 -48 -5 -37 -3 -46 12 -51 20 -8 47 5 53 27 4 11 2
12 -9 2 -21 -20 -39 -15 -39 11 0 39 11 56 35 56 13 0 27 5 30 10 4 6 -5 10
-20 10 -24 0 -26 3 -21 25 6 24 -3 33 -17 18z"/>
<path d="M3908 11534 c-37 -19 -36 -50 2 -73 34 -20 30 -31 -12 -31 -27 0 -37
-13 -18 -25 11 -7 80 21 80 32 0 14 -14 30 -37 42 -31 16 -29 30 7 45 17 7 27
15 23 19 -9 9 -14 9 -45 -9z"/>
<path d="M4013 11540 c-12 -5 -27 -18 -32 -29 -10 -17 -7 -24 19 -42 38 -29
38 -39 1 -39 -31 0 -50 -15 -29 -23 18 -6 70 10 79 25 6 9 10 8 15 -5 8 -23
37 -21 60 4 l18 20 8 -20 c14 -38 23 -22 23 39 1 50 -2 61 -18 66 -25 8 -62
-19 -78 -56 -8 -16 -16 -30 -19 -30 -3 1 -18 12 -35 26 -29 24 -29 25 -11 39
11 8 26 15 34 15 7 0 10 5 7 10 -7 12 -13 12 -42 0z m137 -39 c0 -20 -36 -71
-51 -71 -16 0 -10 37 12 64 24 31 39 33 39 7z"/>
<path d="M4298 11534 c-37 -19 -36 -50 2 -73 34 -20 30 -31 -12 -31 -27 0 -37
-13 -18 -25 11 -7 80 21 80 32 0 14 -14 30 -37 42 -31 16 -29 30 7 45 17 7 27
15 23 19 -9 9 -14 9 -45 -9z"/>
<path d="M1974 11525 c-27 -18 -56 -78 -48 -99 9 -22 37 -20 60 5 l18 20 8
-20 c13 -37 23 -22 23 37 0 72 -17 88 -61 57z m36 -24 c0 -20 -36 -71 -51 -71
-16 0 -10 37 12 64 24 31 39 33 39 7z"/>
<path d="M2326 11509 c-60 -70 -33 -137 31 -77 l23 21 0 -21 c0 -12 6 -22 13
-22 13 0 15 99 2 119 -12 20 -43 11 -69 -20z m54 -9 c0 -22 -41 -70 -60 -70
-16 0 -12 19 11 56 23 38 49 45 49 14z"/>
<path d="M2446 11533 c-9 -10 -7 -123 3 -123 4 0 16 20 26 45 17 46 39 66 63
58 18 -7 14 17 -5 24 -11 4 -26 -5 -46 -27 l-30 -34 5 27 c5 27 -3 43 -16 30z"/>
<path d="M2570 11513 c-14 -19 -20 -38 -18 -62 3 -31 7 -36 31 -39 28 -3 67
21 67 41 0 6 -8 3 -18 -6 -22 -20 -62 -23 -62 -4 0 6 16 22 35 35 42 27 48 62
11 62 -15 0 -33 -11 -46 -27z m35 -13 c-10 -11 -22 -20 -27 -20 -4 0 -3 9 4
20 7 11 19 20 27 20 11 0 10 -5 -4 -20z"/>
<path d="M2949 11530 c-23 -14 -42 -65 -35 -95 5 -19 13 -25 34 -25 27 0 79
36 68 48 -3 3 -14 -2 -24 -11 -22 -20 -62 -23 -62 -4 1 6 15 21 33 32 55 35
42 88 -14 55z m31 -20 c0 -5 -9 -14 -20 -20 -22 -12 -27 -1 -8 18 14 14 28 16
28 2z"/>
<path d="M3394 11515 c-20 -20 -25 -34 -22 -63 3 -32 7 -37 30 -40 53 -6 97
70 63 108 -24 26 -41 25 -71 -5z m61 -15 c9 -27 -19 -70 -45 -70 -25 0 -27 36
-4 68 19 28 41 28 49 2z"/>
<path d="M3777 11512 c-34 -35 -46 -89 -23 -98 9 -3 27 1 41 10 31 20 32 20
38 -6 11 -39 21 -10 18 50 -4 78 -28 93 -74 44z m53 -5 c0 -14 -28 -58 -44
-69 -31 -22 -34 3 -6 50 20 32 50 44 50 19z"/>
<path d="M4397 11520 c-49 -39 -44 -110 8 -110 51 0 88 97 46 120 -25 13 -24
13 -54 -10z m51 -27 c5 -31 -15 -63 -39 -63 -28 0 -33 23 -14 60 18 36 48 37
53 3z"/>
<path d="M4820 11513 c-14 -19 -20 -38 -18 -62 3 -31 7 -36 31 -39 28 -3 67
21 67 41 0 6 -8 3 -18 -6 -22 -20 -62 -23 -62 -4 0 6 16 22 35 35 42 27 48 62
11 62 -15 0 -33 -11 -46 -27z m35 -13 c-10 -11 -22 -20 -27 -20 -4 0 -3 9 4
20 7 11 19 20 27 20 11 0 10 -5 -4 -20z"/>
<path d="M5054 11525 c-27 -18 -56 -78 -48 -99 9 -22 37 -20 60 5 l18 20 8
-20 c13 -37 23 -22 23 37 0 72 -17 88 -61 57z m36 -24 c0 -20 -36 -71 -51 -71
-16 0 -10 37 12 64 24 31 39 33 39 7z"/>
<path d="M5470 11515 c0 -26 -40 -75 -61 -75 -8 0 -10 14 -6 45 7 49 -9 63
-19 18 -3 -16 -7 -34 -10 -40 -12 -39 25 -55 64 -27 21 14 22 14 22 -5 0 -56
-46 -91 -78 -59 -6 6 -15 9 -19 5 -11 -12 30 -37 57 -34 17 1 30 13 42 37 21
44 35 160 19 160 -6 0 -11 -11 -11 -25z"/>
<path d="M5525 11530 c-3 -5 -9 -32 -12 -60 -7 -60 13 -76 52 -40 l23 22 7
-21 c12 -38 20 -22 20 40 1 47 -2 58 -10 44 -49 -83 -75 -105 -75 -61 0 13 4
36 10 50 9 25 -2 46 -15 26z"/>
<path d="M3507 11523 c-11 -10 -8 -113 2 -113 5 0 20 19 33 42 31 56 45 58 53
9 5 -31 11 -41 26 -41 10 0 19 5 19 10 0 6 -4 10 -10 10 -5 0 -12 16 -16 35
-9 48 -28 62 -51 37 -10 -10 -24 -27 -30 -38 -11 -16 -12 -14 -7 19 6 34 -3
47 -19 30z"/>
<path d="M4216 11499 c-9 -47 -7 -89 4 -89 6 0 10 13 10 29 0 16 3 43 6 60 4
18 2 31 -3 31 -6 0 -13 -14 -17 -31z"/>
<path d="M4497 11478 c-7 -72 6 -80 40 -24 32 53 46 54 53 5 4 -25 10 -34 25
-34 11 -1 26 -4 33 -9 16 -9 12 -12 46 42 30 49 46 54 46 15 0 -39 14 -57 36
-49 18 7 18 8 2 17 -10 6 -18 19 -18 30 0 11 -5 29 -10 40 -14 24 -42 12 -65
-29 l-15 -27 2 32 c2 18 -1 33 -7 35 -5 2 -11 -18 -13 -43 -3 -41 -6 -46 -23
-42 -12 3 -19 14 -19 28 0 64 -39 75 -71 20 -12 -19 -22 -35 -23 -35 -1 0 0
18 2 40 2 22 0 40 -6 40 -5 0 -12 -24 -15 -52z"/>
<path d="M5154 11503 c-3 -16 -8 -34 -10 -41 -5 -17 13 -52 28 -52 7 0 22 10
35 22 l23 21 0 -21 c0 -12 6 -22 13 -22 8 0 11 14 9 48 -5 77 -7 79 -30 30
-34 -69 -79 -73 -52 -4 13 34 13 46 0 46 -5 0 -12 -12 -16 -27z"/>
<path d="M5650 11520 c0 -5 14 -10 30 -10 17 0 30 -3 30 -7 0 -4 -19 -26 -42
-50 -42 -43 -47 -64 -10 -44 12 6 39 11 62 11 27 0 39 4 34 11 -3 6 -22 9 -40
7 -41 -5 -42 1 -8 33 14 13 30 32 35 42 9 15 4 17 -41 17 -27 0 -50 -4 -50
-10z"/>
<path d="M5774 11503 c-3 -16 -8 -34 -10 -41 -5 -17 13 -52 28 -52 7 0 22 10
35 22 l23 21 0 -21 c0 -12 6 -22 13 -22 8 0 11 14 9 48 -5 77 -7 79 -30 30
-34 -69 -79 -73 -52 -4 13 34 13 46 0 46 -5 0 -12 -12 -16 -27z"/>
<path d="M10018 10960 c-21 -23 -44 -40 -51 -39 -23 3 -37 -1 -37 -11 0 -5 12
-10 26 -10 32 0 27 -22 -6 -30 -34 -8 -38 -30 -6 -30 18 0 29 -7 35 -23 15
-39 37 -50 92 -45 28 3 58 12 67 21 24 25 7 32 -33 12 -42 -19 -80 -14 -94 14
-9 17 -6 20 34 26 58 8 58 25 0 25 -35 0 -43 3 -39 14 4 10 23 16 52 18 56 4
62 22 10 26 -41 3 -47 12 -23 32 10 8 31 11 60 7 47 -7 60 4 26 23 -39 21 -73
12 -113 -30z"/>
<path d="M6238 10963 c-20 -24 -28 -54 -34 -135 -4 -46 -2 -68 5 -68 6 0 11
15 11 33 0 56 10 77 36 77 13 0 24 5 24 10 0 6 -11 10 -25 10 -28 0 -30 6 -15
44 10 28 30 35 30 11 0 -8 5 -15 11 -15 16 0 6 44 -12 48 -8 1 -22 -5 -31 -15z"/>
<path d="M9528 10959 c-44 -23 -50 -51 -14 -74 l24 -16 -30 -29 c-24 -25 -27
-33 -18 -50 8 -15 21 -20 48 -20 85 0 114 32 69 77 l-25 25 32 28 31 28 -28
26 c-33 31 -40 31 -89 5z m69 -25 c3 -9 -3 -24 -14 -35 -19 -20 -20 -20 -43
-1 -21 17 -22 22 -11 36 17 21 60 21 68 0z m3 -119 c0 -15 -22 -25 -55 -25
-36 0 -39 17 -10 46 25 25 27 25 46 8 10 -9 19 -23 19 -29z"/>
<path d="M9772 10960 c-78 -48 -60 -133 21 -102 17 6 32 10 35 8 2 -2 -1 -19
-6 -38 -5 -18 -7 -39 -5 -45 8 -24 21 -13 27 25 4 20 15 61 24 91 16 51 16 54
-3 67 -26 19 -54 17 -93 -6z m78 -30 c0 -20 -52 -60 -78 -60 -24 0 -25 31 -2
56 30 31 80 34 80 4z"/>
<path d="M2544 10945 c-39 -31 -26 -41 15 -11 18 13 28 26 24 29 -5 3 -22 -5
-39 -18z"/>
<path d="M2927 10963 c-3 -5 -8 -23 -12 -40 -5 -26 -12 -33 -30 -33 -29 0 -75
-53 -75 -86 0 -34 26 -41 61 -15 22 17 29 18 29 7 0 -24 21 -30 38 -11 16 17
16 17 0 12 -15 -5 -18 0 -18 32 0 21 6 59 14 84 8 26 10 49 6 52 -5 3 -11 2
-13 -2z m-27 -107 c0 -16 -45 -66 -60 -66 -15 0 -12 32 6 58 17 24 54 30 54 8z"/>
<path d="M4044 10943 c-10 -49 -12 -51 -40 -55 -49 -6 -88 -88 -52 -111 14 -9
22 -7 43 13 14 13 25 19 25 14 0 -20 17 -34 33 -28 9 3 17 10 17 16 0 5 -5 6
-10 3 -25 -16 -23 41 6 153 4 13 2 22 -5 22 -6 0 -13 -12 -17 -27z m-24 -87
c0 -20 -39 -66 -56 -66 -20 0 -17 23 7 54 22 28 49 35 49 12z"/>
<path d="M4924 10956 c-8 -22 3 -33 18 -18 9 9 9 15 0 24 -9 9 -13 7 -18 -6z"/>
<path d="M4971 10920 c-13 -61 -15 -163 -2 -156 4 3 11 38 14 78 4 40 9 85 13
101 4 16 2 27 -4 27 -6 0 -15 -23 -21 -50z"/>
<path d="M5041 10946 c-17 -43 -26 -172 -12 -180 7 -5 11 7 11 38 0 25 5 68
11 96 13 59 6 88 -10 46z"/>
<path d="M6924 10943 c-10 -49 -13 -53 -37 -53 -27 0 -51 -22 -66 -63 -14 -35
-33 -31 -42 10 -9 46 -17 55 -39 43 -11 -6 -27 -23 -35 -38 l-16 -27 5 32 c5
30 -7 53 -17 36 -10 -16 -11 -107 -2 -110 6 -2 22 17 37 42 31 51 48 57 48 18
0 -37 14 -57 34 -50 9 4 25 1 36 -5 16 -10 23 -8 45 12 14 13 25 19 25 14 0
-20 17 -34 33 -28 9 3 17 10 17 16 0 5 -5 6 -10 3 -25 -16 -23 41 6 153 4 13
2 22 -5 22 -6 0 -13 -12 -17 -27z m-24 -87 c0 -20 -39 -66 -56 -66 -20 0 -17
23 7 54 22 28 49 35 49 12z"/>
<path d="M7121 10920 c-13 -61 -15 -163 -2 -156 4 3 11 38 14 78 4 40 9 85 13
101 4 16 2 27 -4 27 -6 0 -15 -23 -21 -50z"/>
<path d="M7475 10930 c-6 -34 -10 -40 -31 -40 -36 0 -76 -47 -72 -84 4 -38 29
-45 57 -17 19 19 20 19 34 -2 15 -22 16 -22 34 -3 17 18 17 18 0 13 -27 -10
-30 12 -13 87 19 78 19 86 7 86 -5 0 -12 -18 -16 -40z m-15 -69 c0 -13 -50
-71 -61 -71 -15 0 -10 42 8 62 17 19 53 25 53 9z"/>
<path d="M8491 10946 c-17 -43 -26 -172 -12 -180 7 -5 11 7 11 38 0 25 5 68
11 96 13 59 6 88 -10 46z"/>
<path d="M8584 10945 c-39 -31 -26 -41 15 -11 18 13 28 26 24 29 -5 3 -22 -5
-39 -18z"/>
<path d="M2352 10877 c-7 -46 -12 -88 -12 -95 0 -25 19 -11 44 33 15 25 31 45
35 45 5 0 12 -16 15 -35 6 -31 22 -53 31 -43 6 5 -16 91 -26 102 -10 12 -36
-10 -61 -49 -22 -36 -22 -27 -3 45 18 68 19 80 2 80 -9 0 -17 -28 -25 -83z"/>
<path d="M3195 10948 c-2 -7 -6 -35 -10 -63 -3 -27 -9 -65 -12 -82 -7 -46 7
-41 46 14 34 48 50 47 51 -4 0 -21 16 -40 26 -30 7 7 -13 88 -25 100 -7 7 -20
-1 -42 -24 l-32 -34 7 35 c17 84 18 100 7 100 -6 0 -13 -6 -16 -12z"/>
<path d="M8140 10944 c0 -17 22 -14 28 4 2 7 -3 12 -12 12 -9 0 -16 -7 -16
-16z"/>
<path d="M1844 10941 c-44 -11 -57 -21 -46 -34 6 -8 6 -34 1 -71 -6 -38 -6
-63 0 -69 11 -11 17 9 26 95 6 53 8 57 37 63 41 9 57 -8 33 -35 -10 -10 -26
-22 -36 -25 -28 -9 -14 -23 16 -18 36 7 46 -24 16 -49 -13 -10 -32 -18 -42
-18 -10 0 -19 -4 -19 -10 0 -18 46 -11 74 11 29 23 35 63 10 77 -14 8 -14 10
0 21 22 18 20 48 -3 61 -22 11 -23 11 -67 1z"/>
<path d="M4816 10916 c-3 -13 -16 -27 -28 -31 -20 -6 -21 -8 -5 -12 15 -4 17
-11 11 -49 -5 -36 -3 -45 11 -50 19 -8 65 11 65 26 0 6 -9 5 -25 -2 -32 -15
-39 -7 -31 37 6 28 11 35 31 35 13 0 27 5 30 10 4 6 -5 10 -20 10 -22 0 -25 3
-19 25 3 14 2 25 -4 25 -5 0 -13 -11 -16 -24z"/>
<path d="M5400 10919 c0 -12 -8 -23 -20 -26 -21 -6 -28 -23 -9 -23 6 0 9 -19
7 -47 -3 -44 -1 -48 20 -51 23 -4 52 13 52 30 0 5 -9 4 -21 -3 -28 -14 -38 -2
-32 39 4 24 10 32 27 32 11 0 28 5 36 10 11 7 8 10 -16 10 -28 0 -31 3 -26 25
2 15 0 25 -7 25 -6 0 -11 -9 -11 -21z"/>
<path d="M5717 10933 c-4 -3 -7 -14 -7 -24 0 -9 -10 -20 -22 -24 -19 -6 -20
-8 -6 -12 14 -4 16 -12 11 -48 -5 -37 -3 -46 12 -51 20 -8 47 5 53 27 4 11 2
12 -9 2 -21 -20 -39 -15 -39 11 0 39 11 56 35 56 13 0 27 5 30 10 4 6 -5 10
-20 10 -24 0 -26 3 -21 25 6 24 -3 33 -17 18z"/>
<path d="M8036 10916 c-3 -13 -16 -27 -28 -31 -20 -6 -21 -8 -5 -12 15 -4 17
-11 11 -49 -5 -36 -3 -45 11 -50 19 -8 65 11 65 26 0 6 -9 5 -25 -2 -32 -15
-39 -7 -31 37 6 28 11 35 31 35 13 0 27 5 30 10 4 6 -5 10 -20 10 -22 0 -25 3
-19 25 3 14 2 25 -4 25 -5 0 -13 -11 -16 -24z"/>
<path d="M8206 10916 c-3 -13 -16 -27 -28 -31 -20 -6 -21 -8 -5 -12 15 -4 17
-11 11 -49 -5 -36 -3 -45 11 -50 19 -8 65 11 65 26 0 6 -9 5 -25 -2 -32 -15
-39 -7 -31 37 6 28 11 35 31 35 13 0 27 5 30 10 4 6 -5 10 -20 10 -22 0 -25 3
-19 25 3 14 2 25 -4 25 -5 0 -13 -11 -16 -24z"/>
<path d="M4723 10900 c-12 -5 -27 -18 -32 -29 -10 -17 -7 -24 19 -42 38 -29
38 -39 1 -39 -31 0 -50 -15 -28 -22 20 -8 74 11 80 27 4 9 -6 24 -26 40 -31
25 -31 26 -13 40 11 8 26 15 34 15 7 0 10 5 7 10 -7 12 -13 12 -42 0z"/>
<path d="M5908 10894 c-37 -19 -36 -50 2 -73 34 -20 30 -31 -12 -31 -27 0 -37
-13 -18 -25 11 -7 80 21 80 32 0 14 -14 30 -37 42 -31 16 -29 30 7 45 17 7 27
15 23 19 -9 9 -14 9 -45 -9z"/>
<path d="M8315 10898 c-44 -25 -46 -52 -5 -73 36 -19 31 -35 -11 -35 -28 0
-39 -13 -19 -25 15 -9 80 22 80 39 0 9 -13 22 -30 31 -16 9 -30 20 -30 26 0 6
14 16 30 22 30 11 41 27 18 27 -7 0 -22 -6 -33 -12z"/>
<path d="M9308 10894 c-37 -19 -36 -50 2 -73 34 -20 30 -31 -12 -31 -27 0 -37
-13 -18 -25 11 -7 80 21 80 32 0 14 -14 30 -37 42 -31 16 -29 30 7 45 17 7 27
15 23 19 -9 9 -14 9 -45 -9z"/>
<path d="M1997 10889 c-28 -17 -50 -75 -37 -99 14 -27 52 -25 77 3 30 33 35
57 18 83 -17 26 -30 29 -58 13z m41 -43 c4 -32 -13 -56 -39 -56 -24 0 -26 51
-3 75 22 22 38 14 42 -19z"/>
<path d="M2258 10883 c-47 -54 -48 -113 -2 -113 29 0 64 16 64 29 0 5 -13 4
-30 -2 -44 -17 -57 1 -35 47 18 37 29 44 40 26 9 -15 25 -2 18 15 -7 20 -37
19 -55 -2z"/>
<path d="M2517 10882 c-26 -29 -38 -71 -27 -93 14 -25 61 -25 83 -1 24 26 21
36 -5 18 -27 -20 -58 -21 -58 -3 0 8 12 20 26 27 29 16 48 45 39 60 -10 16
-40 12 -58 -8z m28 -22 c-10 -11 -22 -20 -27 -20 -5 0 -4 9 2 20 6 11 18 20
27 20 14 0 14 -2 -2 -20z"/>
<path d="M2632 10878 c-61 -67 -16 -142 56 -92 32 22 27 36 -6 17 -17 -10 -36
-13 -47 -9 -15 6 -12 12 25 46 23 21 39 44 35 49 -11 18 -40 12 -63 -11z m38
-7 c0 -13 -29 -35 -37 -28 -7 8 15 37 28 37 5 0 9 -4 9 -9z"/>
<path d="M2997 10882 c-26 -29 -38 -71 -27 -93 14 -25 61 -25 83 -1 24 26 21
36 -5 18 -27 -20 -58 -21 -58 -3 0 8 12 20 26 27 29 16 48 45 39 60 -10 16
-40 12 -58 -8z m28 -22 c-10 -11 -22 -20 -27 -20 -5 0 -4 9 2 20 6 11 18 20
27 20 14 0 14 -2 -2 -20z"/>
<path d="M3344 10875 c-20 -20 -25 -34 -22 -63 3 -32 7 -37 30 -40 53 -6 97
70 63 108 -24 26 -41 25 -71 -5z m61 -15 c9 -27 -19 -70 -45 -70 -25 0 -27 36
-4 68 19 28 41 28 49 2z"/>
<path d="M3466 10888 c-10 -33 -15 -94 -7 -106 8 -14 22 -1 55 52 20 31 33 26
38 -17 5 -41 20 -37 47 12 l25 45 10 -44 c6 -24 17 -46 25 -48 10 -3 12 0 8
13 -4 9 -10 34 -13 56 -8 51 -33 52 -61 2 l-21 -37 -7 38 c-9 46 -30 45 -63
-4 l-25 -35 6 37 c5 36 -8 64 -17 36z"/>
<path d="M3734 10885 c-27 -18 -56 -78 -48 -99 9 -22 37 -20 60 5 l18 20 8
-20 c13 -37 23 -22 23 37 0 72 -17 88 -61 57z m36 -24 c0 -20 -36 -71 -51 -71
-16 0 -10 37 12 64 24 31 39 33 39 7z"/>
<path d="M3836 10884 c-3 -9 -6 -38 -6 -66 0 -55 18 -63 31 -14 10 37 47 76
65 69 16 -6 19 13 4 22 -15 9 -48 -12 -65 -43 l-16 -27 6 38 c6 37 -7 52 -19
21z"/>
<path d="M4210 10875 c-15 -16 -23 -37 -24 -62 -1 -35 1 -38 30 -41 21 -2 36
4 50 19 19 22 19 22 -3 10 -31 -16 -63 -14 -63 4 0 21 28 75 39 75 5 0 11 -6
14 -12 2 -7 8 -10 12 -6 11 10 -2 38 -18 38 -7 0 -24 -11 -37 -25z"/>
<path d="M4316 10888 c-12 -27 -12 -110 0 -115 6 -2 14 9 17 24 9 43 45 85 68
78 14 -5 17 -2 13 9 -9 24 -30 19 -57 -14 l-26 -30 -3 32 c-3 25 -6 29 -12 16z"/>
<path d="M4447 10880 c-49 -39 -44 -110 8 -110 51 0 88 97 46 120 -25 13 -24
13 -54 -10z m51 -27 c5 -31 -15 -63 -39 -63 -28 0 -33 23 -14 60 18 36 48 37
53 3z"/>
<path d="M5106 10869 c-60 -70 -33 -137 31 -77 l23 21 0 -21 c0 -12 6 -22 13
-22 13 0 15 99 2 119 -12 20 -43 11 -69 -20z m54 -9 c0 -22 -41 -70 -60 -70
-16 0 -12 19 11 56 23 38 49 45 49 14z"/>
<path d="M5580 10873 c-14 -19 -20 -38 -18 -62 3 -31 7 -36 31 -39 28 -3 67
21 67 41 0 6 -8 3 -18 -6 -22 -20 -62 -23 -62 -4 0 6 16 22 35 35 42 27 48 62
11 62 -15 0 -33 -11 -46 -27z m35 -13 c-10 -11 -22 -20 -27 -20 -4 0 -3 9 4
20 7 11 19 20 27 20 11 0 10 -5 -4 -20z"/>
<path d="M6018 10888 c-67 -55 -61 -148 7 -104 23 15 26 15 31 1 3 -8 13 -15
20 -15 12 0 12 4 4 20 -6 12 -8 36 -4 56 9 48 -22 70 -58 42z m42 -22 c0 -17
-48 -76 -61 -76 -16 0 -10 37 12 64 22 28 49 35 49 12z"/>
<path d="M6324 10885 c-27 -18 -56 -78 -48 -99 9 -22 37 -20 60 5 l18 20 8
-20 c13 -37 23 -22 23 37 0 72 -17 88 -61 57z m36 -24 c0 -20 -36 -71 -51 -71
-16 0 -10 37 12 64 24 31 39 33 39 7z"/>
<path d="M6426 10884 c-3 -9 -6 -38 -6 -66 0 -55 18 -63 31 -14 10 37 47 76
65 69 16 -6 19 13 4 22 -15 9 -48 -12 -65 -43 l-16 -27 6 38 c6 37 -7 52 -19
21z"/>
<path d="M6578 10888 c-67 -55 -61 -148 7 -104 23 15 26 15 31 1 3 -8 13 -15
20 -15 12 0 12 4 4 20 -6 12 -8 36 -4 56 9 48 -22 70 -58 42z m42 -22 c0 -17
-48 -76 -61 -76 -16 0 -10 37 12 64 22 28 49 35 49 12z"/>
<path d="M7009 10890 c-23 -14 -42 -65 -35 -95 8 -33 48 -34 81 0 28 28 32 66
9 89 -18 18 -32 20 -55 6z m49 -38 c4 -28 -23 -62 -50 -62 -23 0 -24 37 -2 68
20 28 48 25 52 -6z"/>
<path d="M7192 10878 c-61 -67 -16 -142 56 -92 32 22 27 36 -6 17 -17 -10 -36
-13 -47 -9 -15 6 -12 12 25 46 23 21 39 44 35 49 -11 18 -40 12 -63 -11z m38
-7 c0 -13 -29 -35 -37 -28 -7 8 15 37 28 37 5 0 9 -4 9 -9z"/>
<path d="M7552 10878 c-61 -67 -16 -142 56 -92 32 22 27 36 -6 17 -17 -10 -36
-13 -47 -9 -15 6 -12 12 25 46 23 21 39 44 35 49 -11 18 -40 12 -63 -11z m38
-7 c0 -13 -29 -35 -37 -28 -7 8 15 37 28 37 5 0 9 -4 9 -9z"/>
<path d="M7747 10893 c-4 -3 -7 -27 -7 -52 0 -25 -5 -66 -11 -90 -6 -29 -6
-48 0 -54 10 -10 15 5 23 57 2 13 12 20 32 21 40 1 78 47 74 89 -4 39 -31 46
-64 15 l-24 -22 0 21 c0 22 -10 28 -23 15z m93 -32 c0 -24 -37 -71 -56 -71
-22 0 -16 34 11 64 28 31 45 33 45 7z"/>
<path d="M7912 10878 c-61 -67 -16 -142 56 -92 32 22 27 36 -6 17 -17 -10 -36
-13 -47 -9 -15 6 -12 12 25 46 23 21 39 44 35 49 -11 18 -40 12 -63 -11z m38
-7 c0 -13 -29 -35 -37 -28 -7 8 15 37 28 37 5 0 9 -4 9 -9z"/>
<path d="M8557 10882 c-26 -29 -38 -71 -27 -93 14 -25 61 -25 83 -1 24 26 21
36 -5 18 -27 -20 -58 -21 -58 -3 0 8 12 20 26 27 29 16 48 45 39 60 -10 16
-40 12 -58 -8z m28 -22 c-10 -11 -22 -20 -27 -20 -5 0 -4 9 2 20 6 11 18 20
27 20 14 0 14 -2 -2 -20z"/>
<path d="M8694 10880 c-33 -22 -61 -71 -49 -89 9 -16 37 -13 64 5 23 17 23 17
16 -17 -13 -60 -30 -68 -90 -44 -20 8 -20 8 -1 -13 26 -29 71 -29 90 1 17 25
40 153 31 168 -9 14 -27 11 -61 -11z m46 -14 c0 -22 -40 -66 -61 -66 -27 0
-24 17 10 51 32 31 51 37 51 15z"/>
<path d="M8936 10888 c-10 -33 -15 -94 -7 -106 8 -14 22 -1 55 52 20 31 33 26
38 -17 5 -41 20 -37 47 12 l25 45 10 -44 c6 -24 17 -46 25 -48 10 -3 12 0 8
13 -4 9 -10 34 -13 56 -8 51 -33 52 -61 2 l-21 -37 -7 38 c-9 46 -30 45 -63
-4 l-25 -35 6 37 c5 36 -8 64 -17 36z"/>
<path d="M9180 10873 c-14 -19 -20 -38 -18 -62 3 -31 7 -36 31 -39 28 -3 67
21 67 41 0 6 -8 3 -18 -6 -22 -20 -62 -23 -62 -4 0 6 16 22 35 35 42 27 48 62
11 62 -15 0 -33 -11 -46 -27z m35 -13 c-10 -11 -22 -20 -27 -20 -4 0 -3 9 4
20 7 11 19 20 27 20 11 0 10 -5 -4 -20z"/>
<path d="M2094 10863 c-3 -16 -8 -34 -10 -41 -5 -17 13 -52 28 -52 7 0 22 10
35 22 l23 21 0 -21 c0 -12 6 -22 13 -22 8 0 11 14 9 48 -5 77 -7 79 -30 30
-34 -69 -79 -73 -52 -4 13 34 13 46 0 46 -5 0 -12 -12 -16 -27z"/>
<path d="M4554 10863 c-3 -16 -8 -34 -10 -41 -5 -17 13 -52 28 -52 7 0 22 10
35 22 l23 21 0 -21 c0 -12 6 -22 13 -22 8 0 11 14 9 48 -5 77 -7 79 -30 30
-34 -69 -79 -73 -52 -4 13 34 13 46 0 46 -5 0 -12 -12 -16 -27z"/>
<path d="M4895 10834 c-6 -49 -2 -76 9 -63 9 10 17 119 8 119 -5 0 -13 -25
-17 -56z"/>
<path d="M5215 10835 c-11 -82 8 -87 45 -14 24 46 37 49 46 12 3 -16 7 -34 10
-40 4 -15 34 -17 34 -3 0 6 -4 10 -9 10 -5 0 -11 18 -15 39 -3 21 -12 41 -20
44 -14 6 -45 -22 -64 -58 -9 -16 -10 -11 -5 23 4 26 2 42 -5 42 -6 0 -14 -25
-17 -55z"/>
<path d="M8127 10883 c-3 -5 -8 -32 -12 -60 -5 -41 -4 -53 7 -53 8 0 13 12 13
33 0 17 4 44 8 60 7 24 -5 39 -16 20z"/>
<path d="M8786 10868 c-3 -13 -6 -38 -6 -56 0 -42 23 -52 54 -23 23 22 23 22
29 2 10 -41 22 -20 20 37 -1 31 -2 59 -3 62 0 3 -13 -17 -28 -44 -39 -71 -57
-73 -49 -7 6 51 -5 71 -17 29z"/>
<path d="M10018 10320 c-21 -23 -44 -40 -51 -39 -23 3 -37 -1 -37 -11 0 -5 12
-10 26 -10 32 0 27 -22 -6 -30 -34 -8 -38 -30 -6 -30 18 0 29 -7 35 -23 15
-39 37 -50 92 -45 28 3 58 12 67 21 24 25 7 32 -33 12 -42 -19 -80 -14 -94 14
-9 17 -6 20 34 26 58 8 58 25 0 25 -35 0 -43 3 -39 14 4 10 23 16 52 18 56 4
62 22 10 26 -41 3 -47 12 -23 32 10 8 31 11 60 7 47 -7 60 4 26 23 -39 21 -73
12 -113 -30z"/>
<path d="M4658 10323 c-20 -24 -28 -54 -34 -135 -4 -46 -2 -68 5 -68 6 0 11
15 11 33 0 60 10 77 42 77 29 0 29 0 26 -51 -2 -34 1 -53 9 -56 8 -3 13 13 15
49 3 46 6 53 26 56 27 4 29 22 2 22 -23 0 -28 38 -8 58 18 18 28 14 28 -10 1
-21 1 -22 11 -4 9 14 8 22 -4 33 -22 22 -53 1 -64 -44 -8 -35 -11 -38 -38 -35
-38 5 -39 6 -28 38 10 31 33 44 33 20 0 -9 5 -16 11 -16 16 0 6 44 -12 48 -8
1 -22 -5 -31 -15z"/>
<path d="M9568 10333 c-30 -5 -84 -65 -74 -81 3 -6 26 -13 50 -16 24 -4 50
-14 57 -23 11 -13 10 -18 -11 -35 -20 -16 -34 -19 -72 -15 -51 6 -71 -5 -39
-22 46 -25 129 -3 151 40 18 32 -11 67 -60 75 -43 7 -47 11 -27 37 8 11 31 17
76 19 41 2 66 8 69 16 4 12 -56 15 -120 5z"/>
<path d="M9758 10292 c-26 -28 -49 -63 -53 -82 -6 -29 -4 -37 21 -58 33 -29
86 -26 134 8 58 41 27 99 -46 85 -27 -5 -39 -14 -51 -41 -20 -42 -33 -44 -33
-4 0 33 50 97 87 111 14 5 21 13 18 19 -12 20 -33 9 -77 -38z m107 -81 c8 -14
-44 -51 -71 -51 -26 0 -30 11 -14 41 11 20 74 28 85 10z"/>
<path d="M2096 10321 c-11 -17 -29 -169 -22 -186 9 -26 26 -7 20 23 -3 15 1
58 9 95 12 60 9 94 -7 68z"/>
<path d="M2565 10305 c-17 -13 -28 -26 -25 -29 3 -3 19 6 35 19 17 13 28 26
25 29 -3 3 -19 -6 -35 -19z"/>
<path d="M2827 10323 c-3 -5 -8 -23 -12 -40 -5 -26 -12 -33 -30 -33 -29 0 -75
-53 -75 -86 0 -34 26 -41 61 -15 22 17 29 18 29 7 0 -24 21 -30 38 -11 16 17
16 17 0 12 -15 -5 -18 0 -18 32 0 21 6 59 14 84 8 26 10 49 6 52 -5 3 -11 2
-13 -2z m-27 -107 c0 -16 -45 -66 -60 -66 -15 0 -12 32 6 58 17 24 54 30 54 8z"/>
<path d="M3225 10300 c17 -17 31 -26 33 -20 2 6 -7 19 -20 30 -36 30 -45 23
-13 -10z"/>
<path d="M1928 10278 c-14 -18 -35 -50 -48 -71 -12 -21 -26 -35 -30 -30 -4 4
-17 33 -28 63 -11 30 -24 53 -28 50 -11 -6 -11 -5 23 -92 14 -38 29 -68 33
-68 10 0 113 170 107 176 -3 3 -16 -10 -29 -28z"/>
<path d="M2437 10293 c-4 -3 -7 -14 -7 -24 0 -9 -10 -20 -22 -24 -19 -6 -20
-8 -6 -12 14 -4 16 -12 11 -48 -5 -37 -3 -46 12 -51 20 -8 47 5 53 27 4 11 2
12 -9 2 -21 -20 -39 -15 -39 11 0 39 11 56 35 56 13 0 27 5 30 10 4 6 -5 10
-20 10 -24 0 -26 3 -21 25 6 24 -3 33 -17 18z"/>
<path d="M4286 10276 c-3 -13 -16 -27 -28 -31 -20 -6 -21 -8 -5 -12 15 -4 17
-11 11 -49 -5 -36 -3 -45 11 -50 19 -8 65 11 65 26 0 6 -9 5 -25 -2 -32 -15
-39 -7 -31 37 6 28 11 35 31 35 13 0 27 5 30 10 4 6 -5 10 -20 10 -22 0 -25 3
-19 25 3 14 2 25 -4 25 -5 0 -13 -11 -16 -24z"/>
<path d="M3608 10254 c-37 -19 -36 -50 2 -73 34 -20 30 -31 -12 -31 -27 0 -37
-13 -18 -25 11 -7 80 21 80 32 0 14 -14 30 -37 42 -31 16 -29 30 7 45 17 7 27
15 23 19 -9 9 -14 9 -45 -9z"/>
<path d="M4926 10249 c-34 -27 -33 -45 4 -64 40 -21 38 -35 -6 -35 -24 0 -34
-4 -31 -12 5 -15 55 -12 74 4 21 17 15 37 -18 53 -37 19 -34 35 10 50 18 6 29
14 25 18 -12 12 -30 8 -58 -14z"/>
<path d="M1977 10242 c-26 -29 -38 -71 -27 -93 14 -25 61 -25 83 -1 24 26 21
36 -5 18 -27 -20 -58 -21 -58 -3 0 8 12 20 26 27 29 16 48 45 39 60 -10 16
-40 12 -58 -8z m28 -22 c-10 -11 -22 -20 -27 -20 -5 0 -4 9 2 20 6 11 18 20
27 20 14 0 14 -2 -2 -20z"/>
<path d="M2154 10235 c-20 -20 -25 -34 -22 -63 3 -32 7 -37 30 -40 53 -6 97
70 63 108 -24 26 -41 25 -71 -5z m61 -15 c9 -27 -19 -70 -45 -70 -25 0 -27 36
-4 68 19 28 41 28 49 2z"/>
<path d="M2275 10250 c-3 -5 -9 -32 -12 -60 -7 -60 13 -76 52 -40 l23 22 7
-21 c12 -38 20 -22 20 40 1 47 -2 58 -10 44 -49 -83 -75 -105 -75 -61 0 13 4
36 10 50 9 25 -2 46 -15 26z"/>
<path d="M2532 10238 c-61 -67 -16 -142 56 -92 32 22 27 36 -6 17 -17 -10 -36
-13 -47 -9 -15 6 -12 12 25 46 23 21 39 44 35 49 -11 18 -40 12 -63 -11z m38
-7 c0 -13 -29 -35 -37 -28 -7 8 15 37 28 37 5 0 9 -4 9 -9z"/>
<path d="M2897 10242 c-26 -29 -38 -71 -27 -93 14 -25 61 -25 83 -1 24 26 21
36 -5 18 -27 -20 -58 -21 -58 -3 0 8 12 20 26 27 29 16 48 45 39 60 -10 16
-40 12 -58 -8z m28 -22 c-10 -11 -22 -20 -27 -20 -5 0 -4 9 2 20 6 11 18 20
27 20 14 0 14 -2 -2 -20z"/>
<path d="M3100 10235 c-15 -16 -23 -37 -24 -62 -1 -35 1 -38 30 -41 21 -2 36
4 50 19 19 22 19 22 -3 10 -31 -16 -63 -14 -63 4 0 21 28 75 39 75 5 0 11 -6
14 -12 2 -7 8 -10 12 -6 11 10 -2 38 -18 38 -7 0 -24 -11 -37 -25z"/>
<path d="M3229 10250 c-23 -14 -42 -65 -35 -95 5 -19 13 -25 34 -25 27 0 79
36 68 48 -3 3 -14 -2 -24 -11 -22 -20 -62 -23 -62 -4 1 6 15 21 33 32 55 35
42 88 -14 55z m31 -20 c0 -5 -9 -14 -20 -20 -22 -12 -27 -1 -8 18 14 14 28 16
28 2z"/>
<path d="M3320 10223 c0 -21 -6 -66 -14 -101 -7 -35 -9 -65 -5 -68 10 -6 16 5
24 47 6 30 10 36 26 32 38 -10 97 67 84 108 -9 27 -34 24 -67 -8 l-28 -27 0
27 c0 15 -4 27 -10 27 -5 0 -10 -17 -10 -37z m95 7 c8 -13 -21 -66 -40 -74
-43 -16 -47 8 -9 53 27 32 39 38 49 21z"/>
<path d="M3480 10233 c-14 -19 -20 -38 -18 -62 3 -31 7 -36 31 -39 28 -3 67
21 67 41 0 6 -8 3 -18 -6 -22 -20 -62 -23 -62 -4 0 6 16 22 35 35 42 27 48 62
11 62 -15 0 -33 -11 -46 -27z m35 -13 c-10 -11 -22 -20 -27 -20 -4 0 -3 9 4
20 7 11 19 20 27 20 11 0 10 -5 -4 -20z"/>
<path d="M3797 10232 c-34 -35 -46 -89 -23 -98 9 -3 27 1 41 10 31 20 32 20
38 -6 11 -39 21 -10 18 50 -4 78 -28 93 -74 44z m53 -5 c0 -14 -28 -58 -44
-69 -31 -22 -34 3 -6 50 20 32 50 44 50 19z"/>
<path d="M3915 10250 c-3 -5 -9 -32 -12 -60 -7 -60 13 -76 52 -40 l23 22 7
-21 c12 -38 20 -22 20 40 1 47 -2 58 -10 44 -49 -83 -75 -105 -75 -61 0 13 4
36 10 50 9 25 -2 46 -15 26z"/>
<path d="M4050 10243 c0 -10 4 -24 9 -32 7 -10 3 -23 -10 -39 -10 -14 -19 -32
-19 -41 0 -11 8 -7 24 14 l24 30 26 -24 c33 -31 47 -19 16 14 l-24 25 29 30
c16 16 25 33 21 37 -4 4 -17 -6 -30 -22 -24 -30 -46 -28 -46 6 0 10 -4 19 -10
19 -5 0 -10 -8 -10 -17z"/>
<path d="M4376 10248 c-12 -27 -12 -110 0 -115 6 -2 14 9 17 24 9 43 45 85 68
78 14 -5 17 -2 13 9 -9 24 -30 19 -57 -14 l-26 -30 -3 32 c-3 25 -6 29 -12 16z"/>
<path d="M4812 10238 c-61 -67 -16 -142 56 -92 32 22 27 36 -6 17 -17 -10 -36
-13 -47 -9 -15 6 -12 12 25 46 23 21 39 44 35 49 -11 18 -40 12 -63 -11z m38
-7 c0 -13 -29 -35 -37 -28 -7 8 15 37 28 37 5 0 9 -4 9 -9z"/>
<path d="M4486 10228 c-3 -13 -6 -38 -6 -56 0 -42 23 -52 54 -23 23 22 23 22
29 2 10 -41 22 -20 20 37 -1 31 -2 59 -3 62 0 3 -13 -17 -28 -44 -39 -71 -57
-73 -49 -7 6 51 -5 71 -17 29z"/>
<path d="M5395 9071 c-3 -10 -12 -56 -20 -101 -13 -75 -13 -86 1 -107 19 -30
47 -24 86 18 32 33 45 75 31 97 -16 26 -30 24 -68 -9 l-36 -32 6 29 c4 16 11
42 16 58 12 37 12 66 0 66 -5 0 -12 -8 -16 -19z m85 -115 c0 -24 -45 -81 -68
-84 -32 -5 -28 20 9 63 32 36 59 46 59 21z"/>
<path d="M5560 9056 c0 -24 18 -28 30 -6 9 17 8 20 -10 20 -11 0 -20 -6 -20
-14z"/>
<path d="M6700 9056 c0 -24 18 -28 30 -6 9 17 8 20 -10 20 -11 0 -20 -6 -20
-14z"/>
<path d="M4630 9039 c-24 -9 -25 -13 -27 -104 -2 -54 1 -95 6 -95 6 0 11 14
13 31 2 18 10 35 18 39 83 38 114 58 121 78 18 49 -58 78 -131 51z m108 -35
c3 -24 -32 -51 -79 -61 l-32 -6 8 39 c8 47 19 55 65 52 27 -2 36 -8 38 -24z"/>
<path d="M6573 9011 c-6 -18 -20 -31 -34 -34 -23 -4 -23 -5 -3 -12 19 -6 20
-11 13 -48 -7 -41 3 -77 21 -77 18 0 59 23 64 36 6 16 -10 19 -19 4 -3 -5 -15
-10 -27 -10 -19 0 -20 4 -14 42 7 46 18 58 54 58 12 0 22 5 22 10 0 6 -13 10
-29 10 -25 0 -28 3 -23 25 6 34 -11 31 -25 -4z"/>
<path d="M630 9000 c16 -30 78 -78 117 -92 30 -10 379 -13 1661 -16 893 -1
1622 1 1620 5 -2 4 -10 20 -17 35 l-14 28 -1626 2 -1626 3 -62 26 c-52 22 -61
24 -53 9z"/>
<path d="M11285 8991 l-60 -26 -1626 -3 -1626 -2 -14 -28 c-7 -15 -15 -31 -17
-35 -2 -4 727 -6 1620 -5 1282 3 1631 6 1661 16 40 14 101 62 118 93 5 11 8
18 7 18 -2 -1 -30 -13 -63 -28z"/>
<path d="M4835 8990 c-47 -18 -74 -89 -50 -127 21 -31 51 -29 86 7 25 24 30
37 27 66 -4 43 -32 67 -63 54z m43 -52 c4 -30 -39 -83 -61 -75 -36 12 -3 111
36 105 16 -2 23 -11 25 -30z"/>
<path d="M5635 8974 c-27 -29 -40 -73 -30 -104 9 -30 51 -37 83 -13 34 25 44
53 11 30 -27 -19 -69 -23 -69 -6 0 6 19 28 42 48 29 26 40 42 35 54 -9 25 -45
21 -72 -9z m45 -8 c0 -15 -40 -49 -48 -41 -7 7 27 55 38 55 6 0 10 -6 10 -14z"/>
<path d="M6090 8980 c-53 -53 -59 -140 -10 -140 26 0 80 27 80 41 0 5 -14 2
-31 -6 -56 -29 -78 5 -42 66 20 33 30 36 50 12 12 -16 13 -15 11 12 -4 37 -29
44 -58 15z"/>
<path d="M6243 8989 c-42 -15 -70 -108 -41 -137 19 -19 44 -14 76 13 65 54 37
151 -35 124z m45 -54 c4 -41 -39 -85 -63 -65 -19 15 -19 22 0 66 11 28 19 35
37 32 17 -2 24 -11 26 -33z"/>
<path d="M7147 8989 c-24 -14 -47 -62 -47 -98 0 -51 56 -64 103 -23 26 23 21
37 -8 18 -13 -9 -33 -16 -44 -16 -24 0 -40 22 -20 29 28 9 79 69 73 85 -7 18
-31 20 -57 5z m33 -19 c0 -12 -42 -51 -48 -45 -7 7 27 55 38 55 6 0 10 -4 10
-10z"/>
<path d="M4946 8953 c-16 -98 2 -130 51 -89 l30 25 11 -24 c19 -42 28 -28 24
38 -5 86 -6 87 -30 41 -40 -79 -79 -99 -69 -36 4 20 8 46 9 56 2 10 -2 21 -8
23 -6 2 -14 -13 -18 -34z"/>
<path d="M5115 8936 c-4 -29 -5 -61 -3 -71 6 -33 24 -26 36 13 17 56 49 94 73
87 13 -5 19 -2 19 10 0 30 -52 14 -78 -25 l-25 -35 6 38 c4 27 2 37 -8 37 -9
0 -16 -18 -20 -54z"/>
<path d="M5545 8980 c-3 -5 -8 -39 -12 -76 -5 -51 -3 -66 6 -63 7 3 14 25 16
49 2 25 6 57 10 73 7 26 -7 39 -20 17z"/>
<path d="M6685 8980 c-3 -5 -8 -39 -12 -76 -5 -51 -3 -66 6 -63 7 3 14 25 16
49 2 25 6 57 10 73 7 26 -7 39 -20 17z"/>
<path d="M6940 8941 c-21 -87 11 -124 60 -71 l28 30 6 -30 c10 -52 21 -32 22
40 0 39 -3 70 -7 70 -3 0 -12 -14 -19 -30 -16 -39 -48 -80 -62 -80 -7 0 -9 20
-5 60 8 73 -6 79 -23 11z"/>
<path d="M7266 8978 c-9 -27 -14 -99 -9 -118 8 -31 21 -24 33 19 12 47 53 93
74 85 11 -4 16 -1 16 10 0 16 -27 21 -45 8 -6 -4 -21 -20 -34 -37 l-24 -30 7
38 c5 24 3 37 -4 37 -6 0 -12 -6 -14 -12z"/>
<path d="M5756 8943 c-17 -104 5 -123 48 -42 15 27 33 48 39 46 7 -2 15 -21
18 -41 7 -43 26 -61 48 -43 12 10 12 12 -2 15 -9 2 -19 18 -22 35 -12 59 -16
67 -35 67 -11 0 -30 -16 -45 -37 l-25 -38 0 38 c0 48 -16 48 -24 0z"/>
<path d="M6356 8972 c-2 -4 -6 -32 -7 -61 -4 -65 13 -78 38 -31 10 18 26 42
35 54 15 18 19 19 28 6 5 -8 10 -27 10 -41 0 -33 20 -52 40 -38 13 8 13 11 -2
20 -10 6 -18 22 -18 38 0 15 -6 36 -14 47 -19 25 -43 12 -73 -42 l-23 -39 6
48 c5 31 3 47 -4 47 -6 0 -13 -3 -16 -8z"/>
<path d="M6750 8938 c0 -24 -3 -53 -6 -65 -12 -42 23 -25 55 27 17 28 35 50
41 50 5 0 13 -18 16 -40 7 -46 23 -63 44 -50 13 8 13 11 -1 22 -9 7 -20 30
-23 51 -11 62 -46 59 -88 -8 l-19 -30 7 43 c5 35 4 42 -10 42 -12 0 -16 -10
-16 -42z"/>
<path d="M10063 8170 c-12 -5 -32 -23 -44 -40 -15 -19 -30 -30 -43 -28 -10 2
-21 -3 -23 -9 -3 -8 4 -13 16 -13 28 0 27 -28 -1 -32 -32 -5 -35 -28 -4 -28
16 0 26 -6 26 -15 0 -51 103 -75 151 -36 34 27 20 34 -29 14 -33 -13 -47 -14
-67 -5 -38 18 -31 39 15 47 22 4 40 11 40 16 0 5 -18 9 -40 9 -28 0 -40 4 -40
14 0 11 14 16 48 18 55 4 59 21 5 28 -36 5 -36 5 -18 24 15 14 28 17 62 12 45
-6 57 6 24 24 -23 12 -48 12 -78 0z"/>
<path d="M9313 8142 c-62 -31 -76 -62 -17 -37 20 8 38 15 40 15 6 0 -8 -92
-17 -117 -5 -13 -18 -23 -35 -25 -15 -2 -29 -9 -32 -15 -5 -17 93 -12 110 5 7
7 20 12 29 12 25 0 49 11 49 22 0 5 -18 6 -45 2 -52 -7 -52 -7 -34 90 5 31 9
61 7 65 -2 5 -27 -3 -55 -17z"/>
<path d="M9543 8142 c-29 -15 -52 -31 -52 -36 -1 -9 30 -4 62 9 16 7 17 2 11
-51 -8 -68 -16 -82 -51 -86 -15 -2 -28 -9 -31 -15 -5 -16 90 -12 110 4 7 6 26
13 42 15 16 1 31 9 34 16 3 11 -6 12 -42 7 -53 -8 -52 -11 -32 85 8 36 11 68
8 72 -4 3 -30 -6 -59 -20z"/>
<path d="M4017 8153 c-2 -4 -10 -40 -17 -79 -14 -81 -8 -124 18 -124 47 0 107
85 81 116 -17 20 -29 18 -62 -13 l-29 -28 7 30 c4 17 11 43 16 59 9 28 -2 59
-14 39z m63 -116 c0 -26 -34 -67 -55 -67 -23 0 -18 25 11 59 31 37 44 39 44 8z"/>
<path d="M8108 8143 c-33 -38 -57 -192 -31 -200 8 -3 13 13 15 49 3 52 4 53
33 53 30 0 30 0 27 -52 -3 -34 0 -53 7 -53 6 0 11 15 11 33 0 56 10 77 36 77
13 0 24 5 24 10 0 6 -11 10 -25 10 -28 0 -30 6 -15 44 10 28 30 35 30 11 0 -8
5 -15 10 -15 16 0 11 40 -5 47 -23 8 -52 -23 -59 -63 -6 -31 -9 -34 -34 -28
-36 9 -37 10 -26 41 12 34 31 40 36 11 4 -20 5 -21 12 -5 18 40 -17 63 -46 30z"/>
<path d="M9772 8140 c-61 -37 -96 -122 -68 -165 31 -47 127 -26 186 41 39 44
40 86 4 119 -33 31 -77 32 -122 5z m108 -29 c18 -34 11 -58 -26 -91 -43 -37
-79 -53 -105 -45 -40 13 -31 76 19 128 32 34 95 38 112 8z"/>
<path d="M2256 8141 c-11 -17 -29 -169 -22 -186 9 -26 26 -7 20 23 -3 15 1 58
9 95 12 60 9 94 -7 68z"/>
<path d="M2773 8133 c-13 -8 -23 -23 -23 -31 0 -13 4 -12 21 5 l22 22 18 -22
c9 -12 20 -20 23 -17 3 3 -5 18 -17 32 -21 25 -23 26 -44 11z"/>
<path d="M2994 8136 c-8 -22 3 -33 18 -18 9 9 9 15 0 24 -9 9 -13 7 -18 -6z"/>
<path d="M4525 8110 c-6 -34 -10 -40 -31 -40 -36 0 -76 -47 -72 -84 4 -38 29
-45 57 -17 19 19 20 19 34 -2 15 -22 16 -22 34 -3 17 18 17 18 0 13 -27 -10
-30 12 -13 87 19 78 19 86 7 86 -5 0 -12 -18 -16 -40z m-15 -69 c0 -13 -50
-71 -61 -71 -15 0 -10 42 8 62 17 19 53 25 53 9z"/>
<path d="M6781 8143 c0 -12 59 -56 59 -46 0 11 -43 53 -53 53 -4 0 -7 -3 -6
-7z"/>
<path d="M7446 8138 c-3 -7 -7 -25 -10 -40 -5 -21 -12 -28 -29 -28 -41 0 -86
-66 -71 -104 9 -22 33 -20 61 6 19 18 23 19 23 5 0 -24 20 -31 38 -13 16 16
16 17 0 10 -15 -5 -18 0 -18 27 0 19 7 59 15 89 18 66 17 60 5 60 -6 0 -12 -6
-14 -12z m-26 -103 c0 -18 -43 -65 -60 -65 -15 0 -12 27 6 55 18 28 54 34 54
10z"/>
<path d="M3616 8108 c-3 -18 -10 -60 -16 -92 -12 -72 -12 -66 0 -66 5 0 23 20
40 45 35 50 50 57 50 21 0 -35 10 -56 26 -56 11 0 12 4 4 19 -5 11 -10 30 -10
43 -1 57 -33 58 -72 2 l-20 -29 7 35 c16 82 17 110 7 110 -6 0 -13 -15 -16
-32z"/>
<path d="M1875 8125 c-5 -2 -21 -6 -35 -9 -24 -5 -25 -9 -27 -86 -2 -44 1 -80
6 -80 5 0 11 12 13 27 2 20 12 29 42 40 51 17 76 40 76 70 0 28 -41 49 -75 38z
m39 -21 c34 -13 5 -56 -46 -69 -27 -7 -28 -5 -28 28 0 25 5 37 18 40 27 7 39
7 56 1z"/>
<path d="M2442 8098 c-6 -16 -18 -28 -27 -28 -8 0 -15 -4 -15 -10 0 -5 7 -10
15 -10 18 0 17 3 6 -38 -6 -18 -7 -40 -4 -48 10 -27 73 -11 73 20 0 6 -5 5
-12 -2 -24 -24 -39 -14 -36 26 2 31 7 38 28 40 36 5 50 22 18 22 -21 0 -27 5
-30 28 l-4 27 -12 -27z"/>
<path d="M2887 8113 c-4 -3 -7 -14 -7 -24 0 -9 -10 -20 -22 -24 -19 -6 -20 -8
-6 -12 14 -4 16 -12 11 -48 -5 -37 -3 -46 12 -51 20 -8 47 5 53 27 4 11 2 12
-9 2 -21 -20 -39 -15 -39 11 0 39 11 56 35 56 13 0 27 5 30 10 4 6 -5 10 -20
10 -24 0 -26 3 -21 25 6 24 -3 33 -17 18z"/>
<path d="M6057 8113 c-4 -3 -7 -14 -7 -24 0 -9 -10 -20 -22 -24 -19 -6 -20 -8
-6 -12 14 -4 16 -12 11 -48 -5 -37 -3 -46 12 -51 20 -8 47 5 53 27 4 11 2 12
-9 2 -21 -20 -39 -15 -39 11 0 39 11 56 35 56 13 0 27 5 30 10 4 6 -5 10 -20
10 -24 0 -26 3 -21 25 6 24 -3 33 -17 18z"/>
<path d="M7732 8098 c-6 -16 -18 -28 -27 -28 -8 0 -15 -4 -15 -10 0 -5 7 -10
15 -10 18 0 17 3 6 -38 -6 -18 -7 -40 -4 -48 10 -27 73 -11 73 20 0 6 -5 5
-12 -2 -24 -24 -39 -14 -36 26 2 31 7 38 28 40 36 5 50 22 18 22 -21 0 -27 5
-30 28 l-4 27 -12 -27z"/>
<path d="M4268 8074 c-37 -19 -36 -50 2 -73 34 -20 30 -31 -12 -31 -27 0 -37
-13 -18 -25 11 -7 80 21 80 32 0 14 -14 30 -37 42 -31 16 -29 30 7 45 17 7 27
15 23 19 -9 9 -14 9 -45 -9z"/>
<path d="M6248 8074 c-37 -19 -36 -50 2 -73 34 -20 30 -31 -12 -31 -27 0 -37
-13 -18 -25 11 -7 80 21 80 32 0 14 -14 30 -37 42 -31 16 -29 30 7 45 17 7 27
15 23 19 -9 9 -14 9 -45 -9z"/>
<path d="M1997 8069 c-28 -17 -50 -75 -37 -99 14 -27 52 -25 77 3 30 33 35 57
18 83 -17 26 -30 29 -58 13z m41 -43 c4 -32 -13 -56 -39 -56 -24 0 -26 51 -3
75 22 22 38 14 42 -19z"/>
<path d="M2310 8053 c-14 -19 -20 -38 -18 -62 3 -31 7 -36 31 -39 28 -3 67 21
67 41 0 6 -8 3 -18 -6 -22 -20 -62 -23 -62 -4 0 6 16 22 35 35 42 27 48 62 11
62 -15 0 -33 -11 -46 -27z m35 -13 c-10 -11 -22 -20 -27 -20 -4 0 -3 9 4 20 7
11 19 20 27 20 11 0 10 -5 -4 -20z"/>
<path d="M2616 8064 c-3 -9 -6 -38 -6 -66 0 -55 18 -63 31 -14 10 37 47 76 65
69 16 -6 19 13 4 22 -15 9 -48 -12 -65 -43 l-16 -27 6 38 c6 37 -7 52 -19 21z"/>
<path d="M2744 8055 c-20 -20 -25 -34 -22 -63 3 -32 7 -37 30 -40 53 -6 97 70
63 108 -24 26 -41 25 -71 -5z m61 -15 c9 -27 -19 -70 -45 -70 -25 0 -27 36 -4
68 19 28 41 28 49 2z"/>
<path d="M3154 8065 c-27 -18 -56 -78 -48 -99 9 -22 37 -20 60 5 l18 20 8 -20
c13 -37 23 -22 23 37 0 72 -17 88 -61 57z m36 -24 c0 -20 -36 -71 -51 -71 -16
0 -10 37 12 64 24 31 39 33 39 7z"/>
<path d="M3396 8071 c-4 -5 -1 -21 6 -35 10 -23 8 -29 -10 -49 -21 -22 -29
-47 -16 -47 3 0 15 12 26 26 l20 25 23 -21 c13 -12 29 -19 35 -15 7 4 1 14
-15 27 l-26 21 32 33 c39 40 31 59 -9 21 -33 -32 -42 -34 -42 -8 0 22 -16 36
-24 22z"/>
<path d="M3779 8070 c-23 -14 -42 -65 -35 -95 5 -19 13 -25 34 -25 27 0 79 36
68 48 -3 3 -14 -2 -24 -11 -22 -20 -62 -23 -62 -4 1 6 15 21 33 32 55 35 42
88 -14 55z m31 -20 c0 -5 -9 -14 -20 -20 -22 -12 -27 -1 -8 18 14 14 28 16 28
2z"/>
<path d="M3876 8073 c-9 -10 -7 -123 3 -123 4 0 16 20 26 45 17 46 39 66 63
58 18 -7 14 17 -5 24 -11 4 -26 -5 -46 -27 l-30 -34 5 27 c5 27 -3 43 -16 30z"/>
<path d="M4147 8062 c-26 -29 -38 -71 -27 -93 14 -25 61 -25 83 -1 24 26 21
36 -5 18 -27 -20 -58 -21 -58 -3 0 8 12 20 26 27 29 16 48 45 39 60 -10 16
-40 12 -58 -8z m28 -22 c-10 -11 -22 -20 -27 -20 -5 0 -4 9 2 20 6 11 18 20
27 20 14 0 14 -2 -2 -20z"/>
<path d="M4602 8058 c-61 -67 -16 -142 56 -92 32 22 27 36 -6 17 -17 -10 -36
-13 -47 -9 -15 6 -12 12 25 46 23 21 39 44 35 49 -11 18 -40 12 -63 -11z m38
-7 c0 -13 -29 -35 -37 -28 -7 8 15 37 28 37 5 0 9 -4 9 -9z"/>
<path d="M4797 8073 c-4 -3 -7 -27 -7 -52 0 -25 -5 -66 -11 -90 -6 -29 -6 -48
0 -54 10 -10 15 5 23 57 2 13 12 20 32 21 40 1 78 47 74 89 -4 39 -31 46 -64
15 l-24 -22 0 21 c0 22 -10 28 -23 15z m93 -32 c0 -24 -37 -71 -56 -71 -22 0
-16 34 11 64 28 31 45 33 45 7z"/>
<path d="M4946 8064 c-3 -9 -6 -38 -6 -66 0 -55 18 -63 31 -14 10 37 47 76 65
69 16 -6 19 13 4 22 -15 9 -48 -12 -65 -43 l-16 -27 6 38 c6 37 -7 52 -19 21z"/>
<path d="M5074 8055 c-20 -20 -25 -34 -22 -63 3 -32 7 -37 30 -40 53 -6 97 70
63 108 -24 26 -41 25 -71 -5z m61 -15 c9 -27 -19 -70 -45 -70 -25 0 -27 36 -4
68 19 28 41 28 49 2z"/>
<path d="M5176 8071 c-6 -9 22 -109 34 -124 4 -4 22 17 41 48 18 30 37 55 41
55 4 0 8 7 8 16 0 14 -2 14 -16 3 -9 -8 -28 -32 -42 -54 -22 -35 -26 -37 -33
-20 -4 11 -8 32 -8 47 -1 28 -16 45 -25 29z"/>
<path d="M5332 8058 c-61 -67 -16 -142 56 -92 32 22 27 36 -6 17 -17 -10 -36
-13 -47 -9 -15 6 -12 12 25 46 23 21 39 44 35 49 -11 18 -40 12 -63 -11z m38
-7 c0 -13 -29 -35 -37 -28 -7 8 15 37 28 37 5 0 9 -4 9 -9z"/>
<path d="M5608 8063 c-47 -54 -48 -113 -2 -113 29 0 64 16 64 29 0 5 -13 4
-30 -2 -44 -17 -57 1 -35 47 18 37 29 44 40 26 9 -15 25 -2 18 15 -7 20 -37
19 -55 -2z"/>
<path d="M5729 8070 c-23 -14 -42 -65 -35 -95 5 -19 13 -25 34 -25 27 0 79 36
68 48 -3 3 -14 -2 -24 -11 -22 -20 -62 -23 -62 -4 1 6 15 21 33 32 55 35 42
88 -14 55z m31 -20 c0 -5 -9 -14 -20 -20 -22 -12 -27 -1 -8 18 14 14 28 16 28
2z"/>
<path d="M5920 8053 c-14 -19 -20 -38 -18 -62 3 -31 7 -36 31 -39 28 -3 67 21
67 41 0 6 -8 3 -18 -6 -22 -20 -62 -23 -62 -4 0 6 16 22 35 35 42 27 48 62 11
62 -15 0 -33 -11 -46 -27z m35 -13 c-10 -11 -22 -20 -27 -20 -4 0 -3 9 4 20 7
11 19 20 27 20 11 0 10 -5 -4 -20z"/>
<path d="M6358 8068 c-67 -55 -61 -148 7 -104 23 15 26 15 31 1 3 -8 13 -15
20 -15 12 0 12 4 4 20 -6 12 -8 36 -4 56 9 48 -22 70 -58 42z m42 -22 c0 -17
-48 -76 -61 -76 -16 0 -10 37 12 64 22 28 49 35 49 12z"/>
<path d="M6568 8063 c-47 -54 -48 -113 -2 -113 29 0 64 16 64 29 0 5 -13 4
-30 -2 -44 -17 -57 1 -35 47 18 37 29 44 40 26 9 -15 25 -2 18 15 -7 20 -37
19 -55 -2z"/>
<path d="M6666 8073 c-9 -10 -7 -123 3 -123 4 0 16 20 26 45 17 46 39 66 63
58 18 -7 14 17 -5 24 -11 4 -26 -5 -46 -27 l-30 -34 5 27 c5 27 -3 43 -16 30z"/>
<path d="M6790 8053 c-14 -19 -20 -38 -18 -62 3 -31 7 -36 31 -39 28 -3 67 21
67 41 0 6 -8 3 -18 -6 -22 -20 -62 -23 -62 -4 0 6 16 22 35 35 42 27 48 62 11
62 -15 0 -33 -11 -46 -27z m35 -13 c-10 -11 -22 -20 -27 -20 -4 0 -3 9 4 20 7
11 19 20 27 20 11 0 10 -5 -4 -20z"/>
<path d="M6895 8024 c-10 -81 6 -90 47 -24 18 28 33 48 34 44 1 -5 5 -26 9
-46 3 -21 10 -38 15 -38 5 0 19 18 30 40 22 43 40 52 40 19 0 -11 5 -29 10
-40 13 -24 35 -26 25 -1 -4 9 -11 33 -14 52 -9 49 -36 51 -58 6 -21 -46 -33
-46 -33 -1 0 46 -20 46 -57 -1 l-29 -36 4 41 c6 63 -15 49 -23 -15z"/>
<path d="M7157 8062 c-26 -29 -38 -71 -27 -93 14 -25 61 -25 83 -1 24 26 21
36 -5 18 -27 -20 -58 -21 -58 -3 0 8 12 20 26 27 29 16 48 45 39 60 -10 16
-40 12 -58 -8z m28 -22 c-10 -11 -22 -20 -27 -20 -5 0 -4 9 2 20 6 11 18 20
27 20 14 0 14 -2 -2 -20z"/>
<path d="M7510 8053 c-14 -19 -20 -38 -18 -62 3 -31 7 -36 31 -39 28 -3 67 21
67 41 0 6 -8 3 -18 -6 -22 -20 -62 -23 -62 -4 0 6 16 22 35 35 42 27 48 62 11
62 -15 0 -33 -11 -46 -27z m35 -13 c-10 -11 -22 -20 -27 -20 -4 0 -3 9 4 20 7
11 19 20 27 20 11 0 10 -5 -4 -20z"/>
<path d="M7816 8064 c-3 -9 -6 -38 -6 -66 0 -55 18 -63 31 -14 10 37 47 76 65
69 16 -6 19 13 4 22 -15 9 -48 -12 -65 -43 l-16 -27 6 38 c6 37 -7 52 -19 21z"/>
<path d="M8250 8053 c-14 -19 -20 -38 -18 -62 3 -31 7 -36 31 -39 28 -3 67 21
67 41 0 6 -8 3 -18 -6 -22 -20 -62 -23 -62 -4 0 6 16 22 35 35 42 27 48 62 11
62 -15 0 -33 -11 -46 -27z m35 -13 c-10 -11 -22 -20 -27 -20 -4 0 -3 9 4 20 7
11 19 20 27 20 11 0 10 -5 -4 -20z"/>
<path d="M2094 8043 c-3 -16 -8 -34 -10 -41 -5 -17 13 -52 28 -52 7 0 22 10
35 22 l23 21 0 -21 c0 -12 6 -22 13 -22 8 0 11 14 9 48 -5 77 -7 79 -30 30
-34 -69 -79 -73 -52 -4 13 34 13 46 0 46 -5 0 -12 -12 -16 -27z"/>
<path d="M2965 8014 c-6 -49 -2 -76 9 -63 9 10 17 119 8 119 -5 0 -13 -25 -17
-56z"/>
<path d="M3254 8043 c-3 -16 -8 -34 -10 -41 -5 -17 13 -52 28 -52 7 0 22 10
35 22 l23 21 0 -21 c0 -12 6 -22 13 -22 8 0 11 14 9 48 -5 77 -7 79 -30 30
-34 -69 -79 -73 -52 -4 13 34 13 46 0 46 -5 0 -12 -12 -16 -27z"/>
<path d="M5425 8015 c-11 -82 8 -87 45 -14 24 46 37 49 46 12 3 -16 7 -34 10
-40 4 -15 34 -17 34 -3 0 6 -4 10 -9 10 -5 0 -11 18 -15 39 -3 21 -12 41 -20
44 -14 6 -45 -22 -64 -58 -9 -16 -10 -11 -5 23 4 26 2 42 -5 42 -6 0 -14 -25
-17 -55z"/>
<path d="M7934 8043 c-3 -16 -8 -34 -10 -41 -5 -17 13 -52 28 -52 7 0 22 10
35 22 l23 21 0 -21 c0 -12 6 -22 13 -22 8 0 11 14 9 48 -5 77 -7 79 -30 30
-34 -69 -79 -73 -52 -4 13 34 13 46 0 46 -5 0 -12 -12 -16 -27z"/>
<path d="M10063 7530 c-12 -5 -32 -23 -44 -40 -15 -19 -30 -30 -43 -28 -10 2
-21 -3 -23 -9 -3 -8 4 -13 16 -13 28 0 27 -28 -1 -32 -32 -5 -35 -28 -4 -28
16 0 26 -6 26 -15 0 -51 103 -75 151 -36 34 27 20 34 -29 14 -33 -13 -47 -14
-67 -5 -38 18 -31 39 15 47 22 4 40 11 40 16 0 5 -18 9 -40 9 -28 0 -40 4 -40
14 0 11 14 16 48 18 55 4 59 21 5 28 -36 5 -36 5 -18 24 15 14 28 17 62 12 45
-6 57 6 24 24 -23 12 -48 12 -78 0z"/>
<path d="M9286 7499 c-47 -37 -27 -55 22 -19 48 36 89 -2 54 -50 -10 -14 -44
-42 -75 -63 -32 -21 -57 -44 -57 -52 0 -19 15 -19 46 1 19 13 39 16 87 12 65
-6 87 -3 87 13 0 5 -30 9 -66 9 l-67 0 47 50 c50 54 54 65 30 98 -20 29 -72
29 -108 1z"/>
<path d="M9518 7499 c-28 -21 -36 -39 -18 -39 6 0 24 9 39 21 23 17 32 19 50
10 11 -7 21 -18 21 -26 0 -23 -59 -84 -102 -106 -65 -33 -67 -75 -2 -44 28 13
51 16 91 12 57 -6 83 -1 83 14 0 5 -29 9 -65 9 l-64 0 44 45 c49 48 57 81 27
108 -25 23 -71 21 -104 -4z"/>
<path d="M9813 7513 c-24 -3 -38 -14 -54 -39 -25 -41 -20 -49 41 -61 35 -7 46
-13 48 -30 4 -30 -30 -46 -85 -40 -48 5 -65 -6 -34 -22 50 -27 136 0 147 46
10 37 -6 57 -55 67 -41 9 -52 25 -28 44 7 6 42 12 77 14 36 2 65 8 65 13 0 11
-68 15 -122 8z"/>
<path d="M3212 7487 c-30 -32 -28 -46 2 -18 l24 22 16 -22 c21 -31 32 -17 11
15 -21 32 -26 32 -53 3z"/>
<path d="M4416 7493 c-14 -47 -25 -166 -17 -181 13 -23 18 -6 25 83 2 39 8 80
12 93 4 13 2 22 -4 22 -6 0 -13 -8 -16 -17z"/>
<path d="M4514 7486 c-38 -32 -28 -41 11 -11 16 13 27 27 23 30 -3 3 -19 -5
-34 -19z"/>
<path d="M5496 7498 c-3 -7 -7 -25 -10 -40 -5 -21 -12 -28 -29 -28 -41 0 -86
-66 -71 -104 9 -22 33 -20 61 6 19 18 23 19 23 5 0 -24 20 -31 38 -13 16 16
16 17 0 10 -15 -5 -18 0 -18 27 0 19 7 59 15 89 18 66 17 60 5 60 -6 0 -12 -6
-14 -12z m-26 -103 c0 -18 -43 -65 -60 -65 -15 0 -12 27 6 55 18 28 54 34 54
10z"/>
<path d="M3432 7488 c6 -18 28 -21 28 -4 0 9 -7 16 -16 16 -9 0 -14 -5 -12
-12z"/>
<path d="M6010 7484 c0 -9 5 -14 12 -12 18 6 21 28 4 28 -9 0 -16 -7 -16 -16z"/>
<path d="M1815 7438 c-12 -94 -11 -133 5 -129 8 2 36 6 63 9 26 2 47 9 47 15
0 6 -20 8 -51 5 l-52 -5 7 73 c7 80 -8 106 -19 32z"/>
<path d="M2770 7459 c0 -12 -8 -23 -20 -26 -21 -6 -28 -23 -9 -23 6 0 9 -19 7
-47 -3 -44 -1 -48 20 -51 23 -4 52 13 52 30 0 5 -9 4 -21 -3 -28 -14 -38 -2
-32 39 4 24 10 32 27 32 11 0 28 5 36 10 11 7 8 10 -16 10 -28 0 -31 3 -26 25
2 15 0 25 -7 25 -6 0 -11 -9 -11 -21z"/>
<path d="M3330 7459 c0 -12 -8 -23 -20 -26 -21 -6 -28 -23 -9 -23 6 0 9 -19 7
-47 -3 -44 -1 -48 20 -51 23 -4 52 13 52 30 0 5 -9 4 -21 -3 -28 -14 -38 -2
-32 39 4 24 10 32 27 32 11 0 28 5 36 10 11 7 8 10 -16 10 -28 0 -31 3 -26 25
2 15 0 25 -7 25 -6 0 -11 -9 -11 -21z"/>
<path d="M3826 7456 c-3 -13 -16 -27 -28 -31 -20 -6 -21 -8 -5 -12 15 -4 17
-11 11 -49 -5 -36 -3 -45 11 -50 19 -8 65 11 65 26 0 6 -9 5 -25 -2 -32 -15
-39 -7 -31 37 6 28 11 35 31 35 13 0 27 5 30 10 4 6 -5 10 -20 10 -22 0 -25 3
-19 25 3 14 2 25 -4 25 -5 0 -13 -11 -16 -24z"/>
<path d="M2668 7434 c-37 -19 -36 -50 2 -73 34 -20 30 -31 -12 -31 -27 0 -37
-13 -18 -25 11 -7 80 21 80 32 0 14 -14 30 -37 42 -31 16 -29 30 7 45 17 7 27
15 23 19 -9 9 -14 9 -45 -9z"/>
<path d="M4025 7438 c-44 -25 -46 -52 -5 -73 36 -19 31 -35 -11 -35 -28 0 -39
-13 -19 -25 15 -9 80 22 80 39 0 9 -13 22 -30 31 -16 9 -30 20 -30 26 0 6 14
16 30 22 30 11 41 27 18 27 -7 0 -22 -6 -33 -12z"/>
<path d="M4243 7440 c-12 -5 -27 -18 -32 -29 -10 -17 -7 -24 19 -42 38 -29 38
-39 1 -39 -31 0 -50 -15 -28 -22 20 -8 74 11 80 27 4 9 -6 24 -26 40 -31 25
-31 26 -13 40 11 8 26 15 34 15 7 0 10 5 7 10 -7 12 -13 12 -42 0z"/>
<path d="M5226 7429 c-34 -27 -33 -45 4 -64 40 -21 38 -35 -6 -35 -24 0 -34
-4 -31 -12 5 -15 55 -12 74 4 21 17 15 37 -18 53 -37 19 -34 35 10 50 18 6 29
14 25 18 -12 12 -30 8 -58 -14z"/>
<path d="M5785 7438 c-44 -25 -46 -52 -5 -73 36 -19 31 -35 -11 -35 -28 0 -39
-13 -19 -25 15 -9 80 22 80 39 0 9 -13 22 -30 31 -16 9 -30 20 -30 26 0 6 14
16 30 22 30 11 41 27 18 27 -7 0 -22 -6 -33 -12z"/>
<path d="M6083 7440 c-12 -5 -27 -18 -32 -29 -10 -17 -7 -24 19 -42 38 -29 38
-39 1 -39 -31 0 -50 -15 -28 -22 20 -8 74 11 80 27 4 9 -6 24 -26 40 -31 25
-31 26 -13 40 11 8 26 15 34 15 7 0 10 5 7 10 -7 12 -13 12 -42 0z"/>
<path d="M1976 7409 c-60 -70 -33 -137 31 -77 l23 21 0 -21 c0 -12 6 -22 13
-22 13 0 15 99 2 119 -12 20 -43 11 -69 -20z m54 -9 c0 -22 -41 -70 -60 -70
-16 0 -12 19 11 56 23 38 49 45 49 14z"/>
<path d="M2284 7420 c-33 -22 -61 -71 -49 -89 9 -16 37 -13 64 5 23 17 23 17
16 -17 -13 -60 -30 -68 -90 -44 -20 8 -20 8 -1 -13 26 -29 71 -29 90 1 17 25
40 153 31 168 -9 14 -27 11 -61 -11z m46 -14 c0 -22 -40 -66 -61 -66 -27 0
-24 17 10 51 32 31 51 37 51 15z"/>
<path d="M2407 7429 c-28 -17 -50 -75 -37 -99 14 -27 52 -25 77 3 30 33 35 57
18 83 -17 26 -30 29 -58 13z m41 -43 c4 -32 -13 -56 -39 -56 -24 0 -26 51 -3
75 22 22 38 14 42 -19z"/>
<path d="M2860 7413 c-14 -19 -20 -38 -18 -62 3 -31 7 -36 31 -39 28 -3 67 21
67 41 0 6 -8 3 -18 -6 -22 -20 -62 -23 -62 -4 0 6 16 22 35 35 42 27 48 62 11
62 -15 0 -33 -11 -46 -27z m35 -13 c-10 -11 -22 -20 -27 -20 -4 0 -3 9 4 20 7
11 19 20 27 20 11 0 10 -5 -4 -20z"/>
<path d="M3066 7428 c-12 -27 -12 -110 0 -115 6 -2 14 9 17 24 9 43 45 85 68
78 14 -5 17 -2 13 9 -9 24 -30 19 -57 -14 l-26 -30 -3 32 c-3 25 -6 29 -12 16z"/>
<path d="M3197 7420 c-49 -39 -44 -110 8 -110 51 0 88 97 46 120 -25 13 -24
13 -54 -10z m51 -27 c5 -31 -15 -63 -39 -63 -28 0 -33 23 -14 60 18 36 48 37
53 3z"/>
<path d="M3492 7418 c-61 -67 -16 -142 56 -92 32 22 27 36 -6 17 -17 -10 -36
-13 -47 -9 -15 6 -12 12 25 46 23 21 39 44 35 49 -11 18 -40 12 -63 -11z m38
-7 c0 -13 -29 -35 -37 -28 -7 8 15 37 28 37 5 0 9 -4 9 -9z"/>
<path d="M3702 7418 c-61 -67 -16 -142 56 -92 32 22 27 36 -6 17 -17 -10 -36
-13 -47 -9 -15 6 -12 12 25 46 23 21 39 44 35 49 -11 18 -40 12 -63 -11z m38
-7 c0 -13 -29 -35 -37 -28 -7 8 15 37 28 37 5 0 9 -4 9 -9z"/>
<path d="M4112 7418 c-61 -67 -16 -142 56 -92 32 22 27 36 -6 17 -17 -10 -36
-13 -47 -9 -15 6 -12 12 25 46 23 21 39 44 35 49 -11 18 -40 12 -63 -11z m38
-7 c0 -13 -29 -35 -37 -28 -7 8 15 37 28 37 5 0 9 -4 9 -9z"/>
<path d="M4489 7430 c-23 -14 -42 -65 -35 -95 5 -19 13 -25 34 -25 27 0 79 36
68 48 -3 3 -14 -2 -24 -11 -22 -20 -62 -23 -62 -4 1 6 15 21 33 32 55 35 42
88 -14 55z m31 -20 c0 -5 -9 -14 -20 -20 -22 -12 -27 -1 -8 18 14 14 28 16 28
2z"/>
<path d="M4610 7413 c-68 -57 -52 -126 18 -77 26 18 29 7 11 -45 -10 -28 -16
-32 -38 -28 -14 2 -35 8 -46 12 -20 8 -20 8 -1 -13 24 -27 67 -28 90 -3 10 10
21 47 26 81 5 34 11 65 14 68 8 8 -14 32 -29 32 -8 0 -28 -12 -45 -27z m50 -7
c0 -20 -39 -66 -56 -66 -22 0 -17 28 11 55 27 28 45 32 45 11z"/>
<path d="M4716 7429 c-30 -94 -6 -149 45 -98 l20 20 6 -20 c10 -38 18 -22 20
39 0 33 -1 60 -3 60 -2 0 -12 -17 -23 -38 -22 -42 -48 -69 -58 -58 -4 4 -2 26
4 49 7 25 8 46 3 51 -6 6 -11 4 -14 -5z"/>
<path d="M4856 7417 c-9 -34 -7 -107 3 -107 5 0 21 20 35 45 32 54 46 57 46
11 0 -52 16 -52 48 0 30 48 42 44 42 -12 0 -14 7 -27 15 -31 21 -7 30 3 18 19
-6 7 -13 30 -17 51 -9 48 -30 48 -58 0 -12 -20 -23 -32 -24 -27 -1 5 -5 21 -8
37 -9 37 -30 34 -62 -10 l-26 -38 6 37 c7 40 -8 62 -18 25z"/>
<path d="M5112 7418 c-61 -67 -16 -142 56 -92 32 22 27 36 -6 17 -17 -10 -36
-13 -47 -9 -15 6 -12 12 25 46 23 21 39 44 35 49 -11 18 -40 12 -63 -11z m38
-7 c0 -13 -29 -35 -37 -28 -7 8 15 37 28 37 5 0 9 -4 9 -9z"/>
<path d="M5579 7430 c-23 -14 -42 -65 -35 -95 5 -19 13 -25 34 -25 27 0 79 36
68 48 -3 3 -14 -2 -24 -11 -22 -20 -62 -23 -62 -4 1 6 15 21 33 32 55 35 42
88 -14 55z m31 -20 c0 -5 -9 -14 -20 -20 -22 -12 -27 -1 -8 18 14 14 28 16 28
2z"/>
<path d="M5877 7412 c-34 -35 -46 -89 -23 -98 9 -3 27 1 41 10 31 20 32 20 38
-6 11 -39 21 -10 18 50 -4 78 -28 93 -74 44z m53 -5 c0 -14 -28 -58 -44 -69
-31 -22 -34 3 -6 50 20 32 50 44 50 19z"/>
<path d="M6164 7415 c-20 -20 -25 -34 -22 -63 3 -32 7 -37 30 -40 53 -6 97 70
63 108 -24 26 -41 25 -71 -5z m61 -15 c9 -27 -19 -70 -45 -70 -25 0 -27 36 -4
68 19 28 41 28 49 2z"/>
<path d="M2085 7375 c-11 -82 8 -87 45 -14 24 46 37 49 46 12 3 -16 7 -34 10
-40 4 -15 34 -17 34 -3 0 6 -4 10 -9 10 -5 0 -11 18 -15 39 -3 21 -12 41 -20
44 -14 6 -45 -22 -64 -58 -9 -16 -10 -11 -5 23 4 26 2 42 -5 42 -6 0 -14 -25
-17 -55z"/>
<path d="M2506 7408 c-3 -13 -6 -38 -6 -56 0 -42 23 -52 54 -23 23 22 23 22
29 2 10 -41 22 -20 20 37 -1 31 -2 59 -3 62 0 3 -13 -17 -28 -44 -39 -71 -57
-73 -49 -7 6 51 -5 71 -17 29z"/>
<path d="M3415 7393 c-4 -21 -9 -45 -11 -53 -2 -8 1 -22 6 -30 12 -19 16 -6
24 68 6 59 -10 72 -19 15z"/>
<path d="M5997 7423 c-3 -5 -8 -32 -12 -60 -5 -41 -4 -53 7 -53 8 0 13 12 13
33 0 17 4 44 8 60 7 24 -5 39 -16 20z"/>
<path d="M6277 7423 c-11 -10 -8 -113 2 -113 5 0 20 19 33 42 31 56 45 58 53
9 5 -31 11 -41 26 -41 10 0 19 5 19 10 0 6 -4 10 -10 10 -5 0 -12 16 -16 35
-9 48 -28 62 -51 37 -10 -10 -24 -27 -30 -38 -11 -16 -12 -14 -7 19 6 34 -3
47 -19 30z"/>
<path d="M10063 6890 c-12 -5 -32 -23 -44 -40 -15 -19 -30 -30 -43 -28 -10 2
-21 -3 -23 -9 -3 -8 4 -13 16 -13 28 0 27 -28 -1 -32 -32 -5 -35 -28 -4 -28
16 0 26 -6 26 -15 0 -51 103 -75 151 -36 34 27 20 34 -29 14 -33 -13 -47 -14
-67 -5 -38 18 -31 39 15 47 22 4 40 11 40 16 0 5 -18 9 -40 9 -28 0 -40 4 -40
14 0 11 14 16 48 18 55 4 59 21 5 28 -36 5 -36 5 -18 24 15 14 28 17 62 12 45
-6 57 6 24 24 -23 12 -48 12 -78 0z"/>
<path d="M9313 6862 c-62 -31 -76 -62 -17 -37 20 8 38 15 40 15 6 0 -8 -92
-17 -117 -5 -13 -18 -23 -35 -25 -15 -2 -29 -9 -32 -15 -5 -17 93 -12 110 5 7
7 20 12 29 12 25 0 49 11 49 22 0 5 -18 6 -45 2 -52 -7 -52 -7 -34 90 5 31 9
61 7 65 -2 5 -27 -3 -55 -17z"/>
<path d="M9543 6862 c-29 -15 -52 -31 -52 -36 -1 -9 30 -4 62 9 16 7 17 2 11
-51 -8 -68 -16 -82 -51 -86 -15 -2 -28 -9 -31 -15 -5 -16 90 -12 110 4 7 6 26
13 42 15 16 1 31 9 34 16 3 11 -6 12 -42 7 -53 -8 -52 -11 -32 85 8 36 11 68
8 72 -4 3 -30 -6 -59 -20z"/>
<path d="M2796 6863 c-14 -48 -27 -149 -22 -169 9 -33 46 -31 78 4 30 31 41
62 32 86 -9 23 -34 20 -65 -10 l-27 -26 9 38 c20 84 21 94 11 94 -6 0 -13 -8
-16 -17z m60 -131 c-14 -27 -34 -42 -57 -42 -18 0 -8 29 21 60 38 41 61 29 36
-18z"/>
<path d="M3338 6869 c-21 -12 -39 -73 -44 -151 -5 -74 11 -76 21 -3 6 50 9 55
31 55 13 0 24 5 24 10 0 6 -11 10 -25 10 -29 0 -28 -2 -14 39 13 36 28 40 37
9 5 -21 6 -21 12 -2 7 18 -5 44 -19 44 -3 0 -14 -5 -23 -11z"/>
<path d="M9813 6873 c-24 -3 -38 -14 -54 -39 -25 -41 -20 -49 41 -61 35 -7 46
-13 48 -30 4 -30 -30 -46 -85 -40 -48 5 -65 -6 -34 -22 50 -27 136 0 147 46
10 37 -6 57 -55 67 -41 9 -52 25 -28 44 7 6 42 12 77 14 36 2 65 8 65 13 0 11
-68 15 -122 8z"/>
<path d="M2013 6853 c-13 -8 -23 -23 -23 -31 0 -13 4 -12 21 5 l22 22 18 -22
c9 -12 20 -20 23 -17 3 3 -5 18 -17 32 -21 25 -23 26 -44 11z"/>
<path d="M2517 6863 c-3 -5 -8 -23 -12 -40 -5 -26 -12 -33 -30 -33 -29 0 -75
-53 -75 -86 0 -34 26 -41 61 -15 22 17 29 18 29 7 0 -24 21 -30 38 -11 16 17
16 17 0 12 -15 -5 -18 0 -18 32 0 21 6 59 14 84 8 26 10 49 6 52 -5 3 -11 2
-13 -2z m-27 -107 c0 -16 -45 -66 -60 -66 -15 0 -12 32 6 58 17 24 54 30 54 8z"/>
<path d="M5313 6849 c-18 -12 -30 -25 -27 -30 5 -9 64 29 64 43 0 11 0 11 -37
-13z"/>
<path d="M5686 6858 c-3 -7 -7 -25 -10 -40 -5 -21 -12 -28 -29 -28 -41 0 -86
-66 -71 -104 9 -22 33 -20 61 6 19 18 23 19 23 5 0 -24 20 -31 38 -13 16 16
16 17 0 10 -15 -5 -18 0 -18 27 0 19 7 59 15 89 18 66 17 60 5 60 -6 0 -12 -6
-14 -12z m-26 -103 c0 -18 -43 -65 -60 -65 -15 0 -12 27 6 55 18 28 54 34 54
10z"/>
<path d="M6542 6848 c6 -18 28 -21 28 -4 0 9 -7 16 -16 16 -9 0 -14 -5 -12
-12z"/>
<path d="M1851 6821 c-64 -60 -73 -142 -17 -157 27 -7 77 14 84 34 3 10 -3 9
-22 -3 -36 -24 -76 -13 -76 21 0 34 24 78 56 103 35 27 44 26 44 -5 0 -16 5
-24 13 -21 6 2 12 15 12 28 0 38 -53 39 -94 0z"/>
<path d="M2127 6833 c-4 -3 -7 -14 -7 -24 0 -9 -10 -20 -22 -24 -19 -6 -20 -8
-6 -12 14 -4 16 -12 11 -48 -5 -37 -3 -46 12 -51 20 -8 47 5 53 27 4 11 2 12
-9 2 -21 -20 -39 -15 -39 11 0 39 11 56 35 56 13 0 27 5 30 10 4 6 -5 10 -20
10 -24 0 -26 3 -21 25 6 24 -3 33 -17 18z"/>
<path d="M4362 6818 c-6 -16 -18 -28 -27 -28 -8 0 -15 -4 -15 -10 0 -5 7 -10
15 -10 18 0 17 3 6 -38 -6 -18 -7 -40 -4 -48 10 -27 73 -11 73 20 0 6 -5 5
-12 -2 -24 -24 -39 -14 -36 26 2 31 7 38 28 40 36 5 50 22 18 22 -21 0 -27 5
-30 28 l-4 27 -12 -27z"/>
<path d="M4046 6789 c-34 -27 -33 -45 4 -64 40 -21 38 -35 -6 -35 -24 0 -34
-4 -31 -12 5 -15 55 -12 74 4 21 17 15 37 -18 53 -37 19 -34 35 10 50 18 6 29
14 25 18 -12 12 -30 8 -58 -14z"/>
<path d="M4563 6800 c-12 -5 -27 -18 -32 -29 -10 -17 -7 -24 19 -42 38 -29 38
-39 1 -39 -31 0 -50 -15 -29 -23 18 -6 70 10 79 25 6 9 10 8 15 -5 8 -23 37
-21 60 4 l18 20 8 -20 c14 -38 23 -22 23 39 1 50 -2 61 -18 66 -25 8 -62 -19
-78 -56 -8 -16 -16 -30 -19 -30 -3 1 -18 12 -35 26 -29 24 -29 25 -11 39 11 8
26 15 34 15 7 0 10 5 7 10 -7 12 -13 12 -42 0z m137 -39 c0 -20 -36 -71 -51
-71 -16 0 -10 37 12 64 24 31 39 33 39 7z"/>
<path d="M6613 6800 c-12 -5 -27 -18 -32 -29 -10 -17 -7 -24 19 -42 38 -29 38
-39 1 -39 -31 0 -50 -15 -28 -22 20 -8 74 11 80 27 4 9 -6 24 -26 40 -31 25
-31 26 -13 40 11 8 26 15 34 15 7 0 10 5 7 10 -7 12 -13 12 -42 0z"/>
<path d="M1984 6775 c-20 -20 -25 -34 -22 -63 3 -32 7 -37 30 -40 53 -6 97 70
63 108 -24 26 -41 25 -71 -5z m61 -15 c9 -27 -19 -70 -45 -70 -25 0 -27 36 -4
68 19 28 41 28 49 2z"/>
<path d="M2227 6782 c-26 -29 -38 -71 -27 -93 14 -25 61 -25 83 -1 24 26 21
36 -5 18 -27 -20 -58 -21 -58 -3 0 8 12 20 26 27 29 16 48 45 39 60 -10 16
-40 12 -58 -8z m28 -22 c-10 -11 -22 -20 -27 -20 -5 0 -4 9 2 20 6 11 18 20
27 20 14 0 14 -2 -2 -20z"/>
<path d="M2587 6782 c-26 -29 -38 -71 -27 -93 14 -25 61 -25 83 -1 24 26 21
36 -5 18 -27 -20 -58 -21 -58 -3 0 8 12 20 26 27 29 16 48 45 39 60 -10 16
-40 12 -58 -8z m28 -22 c-10 -11 -22 -20 -27 -20 -5 0 -4 9 2 20 6 11 18 20
27 20 14 0 14 -2 -2 -20z"/>
<path d="M2924 6775 c-20 -20 -25 -34 -22 -63 3 -32 7 -37 30 -40 53 -6 97 70
63 108 -24 26 -41 25 -71 -5z m61 -15 c9 -27 -19 -70 -45 -70 -25 0 -27 36 -4
68 19 28 41 28 49 2z"/>
<path d="M3050 6773 c-14 -19 -20 -38 -18 -62 3 -31 7 -36 31 -39 28 -3 67 21
67 41 0 6 -8 3 -18 -6 -22 -20 -62 -23 -62 -4 0 6 16 22 35 35 42 27 48 62 11
62 -15 0 -33 -11 -46 -27z m35 -13 c-10 -11 -22 -20 -27 -20 -4 0 -3 9 4 20 7
11 19 20 27 20 11 0 10 -5 -4 -20z"/>
<path d="M3165 6790 c-3 -5 -9 -32 -12 -60 -7 -60 13 -76 52 -40 l23 22 7 -21
c12 -38 20 -22 20 40 1 47 -2 58 -10 44 -49 -83 -75 -105 -75 -61 0 13 4 36
10 50 9 25 -2 46 -15 26z"/>
<path d="M3508 6788 c-67 -55 -61 -148 7 -104 23 15 26 15 31 1 3 -8 13 -15
20 -15 12 0 12 4 4 20 -6 12 -8 36 -4 56 9 48 -22 70 -58 42z m42 -22 c0 -17
-48 -76 -61 -76 -16 0 -10 37 12 64 22 28 49 35 49 12z"/>
<path d="M3790 6773 c-17 -14 -36 -37 -41 -50 -12 -32 -32 -25 -40 14 -9 46
-17 55 -39 43 -11 -6 -27 -23 -35 -38 l-16 -27 5 32 c5 30 -7 53 -17 36 -10
-16 -11 -107 -2 -110 6 -2 22 17 37 42 31 51 48 57 48 18 0 -44 15 -61 40 -45
12 7 20 8 20 2 0 -15 33 -12 58 6 26 18 29 7 11 -45 -10 -28 -16 -32 -38 -28
-14 2 -35 8 -46 12 -20 8 -20 8 -1 -13 24 -27 67 -28 90 -3 10 10 21 47 26 81
5 34 11 65 14 68 8 8 -14 32 -29 32 -8 0 -28 -12 -45 -27z m50 -7 c0 -20 -39
-66 -56 -66 -22 0 -17 28 11 55 27 28 45 32 45 11z"/>
<path d="M3896 6789 c-30 -94 -6 -149 45 -98 l20 20 6 -20 c10 -38 18 -22 20
39 0 33 -1 60 -3 60 -2 0 -12 -17 -23 -38 -22 -42 -48 -69 -58 -58 -4 4 -2 26
4 49 7 25 8 46 3 51 -6 6 -11 4 -14 -5z"/>
<path d="M4230 6773 c-14 -19 -20 -38 -18 -62 3 -31 7 -36 31 -39 28 -3 67 21
67 41 0 6 -8 3 -18 -6 -22 -20 -62 -23 -62 -4 0 6 16 22 35 35 42 27 48 62 11
62 -15 0 -33 -11 -46 -27z m35 -13 c-10 -11 -22 -20 -27 -20 -4 0 -3 9 4 20 7
11 19 20 27 20 11 0 10 -5 -4 -20z"/>
<path d="M4857 6793 c-4 -3 -7 -27 -7 -52 0 -25 -5 -66 -11 -90 -6 -29 -6 -48
0 -54 10 -10 15 5 23 57 2 13 12 20 32 21 40 1 78 47 74 89 -4 39 -31 46 -64
15 l-24 -22 0 21 c0 22 -10 28 -23 15z m93 -32 c0 -24 -37 -71 -56 -71 -22 0
-16 34 11 64 28 31 45 33 45 7z"/>
<path d="M5146 6784 c-3 -9 -6 -38 -6 -66 0 -55 18 -63 31 -14 10 37 47 76 65
69 16 -6 19 13 4 22 -15 9 -48 -12 -65 -43 l-16 -27 6 38 c6 37 -7 52 -19 21z"/>
<path d="M5270 6773 c-14 -19 -20 -38 -18 -62 3 -31 7 -36 31 -39 28 -3 67 21
67 41 0 6 -8 3 -18 -6 -22 -20 -62 -23 -62 -4 0 6 16 22 35 35 42 27 48 62 11
62 -15 0 -33 -11 -46 -27z m35 -13 c-10 -11 -22 -20 -27 -20 -4 0 -3 9 4 20 7
11 19 20 27 20 11 0 10 -5 -4 -20z"/>
<path d="M5390 6773 c-14 -19 -20 -38 -18 -62 3 -31 7 -36 31 -39 28 -3 67 21
67 41 0 6 -8 3 -18 -6 -22 -20 -62 -23 -62 -4 0 6 16 22 35 35 42 27 48 62 11
62 -15 0 -33 -11 -46 -27z m35 -13 c-10 -11 -22 -20 -27 -20 -4 0 -3 9 4 20 7
11 19 20 27 20 11 0 10 -5 -4 -20z"/>
<path d="M5750 6773 c-14 -19 -20 -38 -18 -62 3 -31 7 -36 31 -39 28 -3 67 21
67 41 0 6 -8 3 -18 -6 -22 -20 -62 -23 -62 -4 0 6 16 22 35 35 42 27 48 62 11
62 -15 0 -33 -11 -46 -27z m35 -13 c-10 -11 -22 -20 -27 -20 -4 0 -3 9 4 20 7
11 19 20 27 20 11 0 10 -5 -4 -20z"/>
<path d="M5950 6763 c0 -21 -6 -66 -14 -101 -7 -35 -9 -65 -5 -68 10 -6 16 5
24 47 6 30 10 36 26 32 38 -10 97 67 84 108 -9 27 -34 24 -67 -8 l-28 -27 0
27 c0 15 -4 27 -10 27 -5 0 -10 -17 -10 -37z m95 7 c8 -13 -21 -66 -40 -74
-43 -16 -47 8 -9 53 27 32 39 38 49 21z"/>
<path d="M6134 6785 c-27 -18 -56 -78 -48 -99 9 -22 37 -20 60 5 l18 20 8 -20
c13 -37 23 -22 23 37 0 72 -17 88 -61 57z m36 -24 c0 -20 -36 -71 -51 -71 -16
0 -10 37 12 64 24 31 39 33 39 7z"/>
<path d="M6406 6769 c-60 -70 -33 -137 31 -77 l23 21 0 -21 c0 -12 6 -22 13
-22 13 0 15 99 2 119 -12 20 -43 11 -69 -20z m54 -9 c0 -22 -41 -70 -60 -70
-16 0 -12 19 11 56 23 38 49 45 49 14z"/>
<path d="M5004 6763 c-3 -16 -8 -34 -10 -41 -5 -17 13 -52 28 -52 7 0 22 10
35 22 l23 21 0 -21 c0 -12 6 -22 13 -22 8 0 11 14 9 48 -5 77 -7 79 -30 30
-34 -69 -79 -73 -52 -4 13 34 13 46 0 46 -5 0 -12 -12 -16 -27z"/>
<path d="M6225 6735 c-11 -82 8 -87 45 -14 24 46 37 49 46 12 3 -16 7 -34 10
-40 4 -15 34 -17 34 -3 0 6 -4 10 -9 10 -5 0 -11 18 -15 39 -3 21 -12 41 -20
44 -14 6 -45 -22 -64 -58 -9 -16 -10 -11 -5 23 4 26 2 42 -5 42 -6 0 -14 -25
-17 -55z"/>
<path d="M6525 6753 c-4 -21 -9 -45 -11 -53 -2 -8 1 -22 6 -30 12 -19 16 -6
24 68 6 59 -10 72 -19 15z"/>
<path d="M5451 5728 c-4 -13 -13 -58 -20 -100 -13 -84 -5 -118 28 -118 45 0
108 82 97 126 -9 33 -42 31 -78 -3 -32 -31 -34 -25 -13 43 8 27 15 55 15 62 0
20 -20 13 -29 -10z m69 -147 c-14 -27 -56 -55 -70 -46 -14 9 13 58 47 85 28
22 28 22 31 2 2 -12 -2 -30 -8 -41z"/>
<path d="M5627 5733 c-13 -12 -7 -33 8 -33 8 0 15 9 15 20 0 20 -11 26 -23 13z"/>
<path d="M6854 5729 c-3 -6 -1 -16 5 -22 9 -9 14 -8 21 3 9 15 4 30 -10 30 -5
0 -12 -5 -16 -11z"/>
<path d="M4705 5709 c-39 -9 -41 -10 -41 -52 0 -23 -2 -64 -4 -91 -3 -32 0
-51 7 -53 7 -3 13 9 15 27 3 28 9 34 52 51 59 22 86 45 86 74 0 42 -47 60
-115 44z m90 -43 c0 -20 -38 -47 -82 -61 -20 -6 -23 -3 -23 24 0 54 8 62 59
59 38 -2 46 -6 46 -22z"/>
<path d="M6149 5681 c-7 -20 -18 -31 -30 -31 -22 0 -25 -15 -6 -27 7 -5 12
-29 12 -58 0 -46 2 -50 26 -53 15 -2 32 5 44 18 20 22 14 26 -17 9 -29 -16
-40 1 -30 47 7 34 12 40 40 44 41 6 42 26 2 22 -28 -3 -29 -2 -20 22 6 16 6
27 -1 31 -5 4 -14 -7 -20 -24z"/>
<path d="M5723 5659 c-47 -17 -80 -108 -51 -137 27 -27 108 -1 108 34 0 12 -5
11 -26 -5 -15 -12 -35 -21 -45 -21 -28 0 -24 35 5 48 14 6 33 23 42 37 15 22
15 28 3 40 -10 9 -21 10 -36 4z m17 -27 c0 -12 -39 -46 -45 -41 -6 7 24 49 36
49 5 0 9 -4 9 -8z"/>
<path d="M6293 5657 c-34 -15 -66 -88 -54 -121 8 -20 17 -26 39 -26 30 0 82
33 82 51 0 6 -12 1 -26 -10 -15 -12 -35 -21 -45 -21 -34 0 -31 22 10 56 57 49
52 98 -6 71z m27 -26 c0 -11 -42 -43 -48 -37 -2 3 1 14 8 25 11 21 40 29 40
12z"/>
<path d="M7143 5659 c-47 -17 -80 -108 -51 -137 27 -27 108 -1 108 34 0 12 -5
11 -26 -5 -15 -12 -35 -21 -45 -21 -28 0 -24 35 5 48 14 6 33 23 42 37 15 22
15 28 3 40 -10 9 -21 10 -36 4z m17 -27 c0 -12 -39 -46 -45 -41 -6 7 24 49 36
49 5 0 9 -4 9 -8z"/>
<path d="M4872 5638 c-30 -33 -43 -74 -33 -102 18 -46 59 -42 100 10 54 69 -8
154 -67 92z m56 -10 c18 -18 14 -52 -9 -77 -45 -48 -81 9 -39 62 24 30 31 32
48 15z"/>
<path d="M5180 5641 c-13 -25 -13 -128 0 -136 6 -3 13 2 15 12 3 10 16 38 29
63 20 38 28 45 51 43 20 -1 25 2 23 15 -8 39 -50 21 -88 -37 -15 -23 -16 -22
-12 18 4 45 -1 52 -18 22z"/>
<path d="M5606 5651 c-13 -21 -19 -141 -7 -141 6 0 11 12 11 28 0 15 5 44 11
66 7 25 7 42 1 48 -6 6 -12 6 -16 -1z"/>
<path d="M6400 5641 c-13 -25 -13 -128 0 -136 6 -3 13 2 15 12 3 10 16 38 29
63 20 38 28 45 51 43 20 -1 25 2 23 15 -8 39 -50 21 -88 -37 -15 -23 -16 -22
-12 18 4 45 -1 52 -18 22z"/>
<path d="M6550 5658 c0 -2 -4 -29 -10 -61 -15 -96 4 -114 45 -43 14 24 32 50
40 56 13 11 15 7 15 -23 0 -40 8 -67 20 -67 5 0 23 24 41 53 l33 52 9 -45 c5
-25 14 -51 20 -58 15 -19 31 1 19 24 -6 11 -14 37 -19 59 -11 55 -36 58 -62 6
-29 -56 -41 -60 -41 -12 0 67 -29 66 -72 -2 l-27 -42 6 53 c4 36 2 52 -6 52
-6 0 -11 -1 -11 -2z"/>
<path d="M7246 5648 c-9 -27 -14 -99 -9 -118 8 -30 23 -20 38 24 17 48 44 78
67 73 23 -7 32 7 14 23 -20 16 -51 -2 -77 -43 l-21 -32 6 43 c4 26 2 42 -4 42
-6 0 -12 -6 -14 -12z"/>
<path d="M5001 5599 c-18 -83 12 -113 61 -64 l26 25 6 -25 c4 -14 13 -25 22
-25 12 0 13 4 4 20 -7 12 -8 39 -4 65 3 25 2 45 -2 45 -5 0 -20 -21 -34 -47
-14 -27 -33 -50 -44 -51 -17 -4 -18 1 -12 52 9 71 -8 75 -23 5z"/>
<path d="M5816 5633 c-2 -10 -6 -40 -8 -67 -4 -67 14 -70 49 -7 33 59 51 70
58 36 3 -14 7 -36 10 -50 4 -17 12 -25 25 -25 24 0 25 6 5 26 -8 9 -15 28 -15
44 0 33 -24 62 -45 53 -9 -3 -26 -23 -39 -45 l-24 -40 5 46 c4 29 2 46 -5 46
-6 0 -13 -8 -16 -17z"/>
<path d="M6836 5642 c-2 -4 -8 -36 -12 -70 -6 -53 -4 -62 10 -62 12 0 16 10
16 39 0 21 3 53 6 70 6 29 -7 44 -20 23z"/>
<path d="M6906 5633 c-2 -10 -6 -40 -8 -67 -4 -67 14 -70 49 -7 33 59 51 70
58 36 3 -14 7 -36 10 -50 4 -17 12 -25 25 -25 24 0 25 6 5 26 -8 9 -15 28 -15
44 0 33 -24 62 -45 53 -9 -3 -26 -23 -39 -45 l-24 -40 5 46 c4 29 2 46 -5 46
-6 0 -13 -8 -16 -17z"/>
<path d="M10079 4835 c-14 -8 -34 -26 -43 -40 -10 -15 -26 -25 -41 -25 -14 0
-25 -4 -25 -10 0 -5 9 -10 21 -10 28 0 21 -34 -9 -38 -27 -4 -29 -22 -3 -22
12 0 25 -11 33 -27 20 -42 57 -56 113 -42 26 7 49 18 52 26 9 22 -2 25 -33 8
-34 -18 -58 -19 -85 -5 -32 18 -23 38 18 42 52 4 56 28 4 28 -29 0 -41 4 -41
14 0 11 14 16 48 18 26 2 47 7 47 13 0 5 -17 8 -37 7 -42 -4 -48 6 -20 31 21
19 63 22 79 6 8 -8 13 -7 18 2 10 15 -21 39 -49 39 -12 -1 -33 -7 -47 -15z"/>
<path d="M5216 4807 c-14 -14 -26 -35 -26 -45 0 -10 -3 -21 -6 -24 -3 -3 -7
-33 -9 -67 -2 -47 0 -61 11 -61 10 0 14 14 14 49 0 45 3 50 28 59 24 9 25 10
5 11 -27 1 -31 36 -9 67 14 18 15 18 24 -5 8 -22 9 -22 16 -6 4 11 1 24 -8 33
-12 13 -18 11 -40 -11z"/>
<path d="M9628 4823 c-54 -4 -60 -7 -83 -41 -28 -42 -24 -50 31 -59 73 -11 86
-45 28 -69 -28 -12 -43 -13 -67 -5 -38 14 -37 14 -37 -3 0 -23 61 -39 96 -26
38 15 74 49 74 70 0 24 -30 46 -72 54 -44 8 -48 19 -13 42 17 11 36 14 56 10
38 -7 81 2 76 18 -4 13 -12 14 -89 9z"/>
<path d="M9863 4823 c-46 -4 -56 -8 -78 -37 -34 -44 -32 -54 13 -61 66 -12 73
-15 70 -38 -5 -32 -54 -53 -92 -39 -35 14 -54 1 -30 -19 24 -20 91 -15 122 8
28 21 41 68 24 85 -5 5 -30 15 -56 21 l-47 12 22 24 c19 20 28 22 66 17 46 -6
88 7 78 25 -4 5 -14 8 -23 7 -9 -1 -41 -3 -69 -5z"/>
<path d="M2607 4813 c-3 -5 -8 -24 -12 -44 -6 -31 -10 -35 -29 -32 -16 4 -30
-4 -50 -28 -50 -59 -15 -119 40 -68 19 18 24 19 24 6 0 -24 20 -31 38 -13 16
16 16 17 0 10 -15 -5 -18 0 -18 33 0 22 6 61 14 86 8 26 10 49 6 52 -5 3 -11
2 -13 -2z m-27 -104 c0 -19 -41 -69 -56 -69 -19 0 -18 30 2 58 16 23 54 31 54
11z"/>
<path d="M2807 4813 c-11 -17 -30 -172 -23 -188 11 -28 17 -12 21 56 2 35 9
79 14 96 9 29 0 55 -12 36z"/>
<path d="M3150 4779 c-10 -39 -15 -45 -38 -44 -50 0 -96 -104 -49 -113 11 -2
29 6 42 18 l22 21 6 -21 c6 -23 37 -25 45 -2 2 7 -2 10 -12 6 -21 -8 -22 44
-1 112 9 29 11 52 5 58 -5 5 -13 -8 -20 -35z m-20 -73 c0 -20 -39 -66 -56 -66
-17 0 -18 14 -3 43 19 36 59 52 59 23z"/>
<path d="M3511 4775 c-8 -31 -15 -43 -25 -39 -8 3 -23 1 -34 -5 -25 -13 -54
-74 -46 -95 8 -22 40 -20 63 3 19 19 19 19 24 -1 6 -21 37 -22 45 0 2 7 -2 10
-12 6 -20 -8 -21 20 -1 101 17 72 17 75 6 75 -5 0 -14 -20 -20 -45z m-21 -72
c0 -20 -38 -63 -57 -63 -19 0 -16 24 8 54 23 29 49 34 49 9z"/>
<path d="M4511 4775 c-8 -31 -15 -43 -25 -39 -8 3 -23 1 -34 -5 -25 -13 -54
-74 -46 -95 8 -22 40 -20 63 3 19 19 19 19 24 -1 6 -21 37 -22 45 0 2 7 -2 10
-12 6 -20 -8 -21 20 -1 101 17 72 17 75 6 75 -5 0 -14 -20 -20 -45z m-21 -72
c0 -20 -38 -63 -57 -63 -19 0 -16 24 8 54 23 29 49 34 49 9z"/>
<path d="M4921 4735 c-19 -130 -11 -147 33 -70 30 50 46 57 46 21 0 -35 10
-56 27 -56 11 0 13 5 8 18 -4 9 -10 30 -13 45 -7 43 -31 46 -64 7 -32 -39 -33
-36 -13 39 8 30 12 58 9 63 -13 21 -22 2 -33 -67z"/>
<path d="M1839 4788 c-3 -11 -9 -72 -11 -115 -3 -56 15 -79 20 -26 3 30 7 34
43 39 58 10 63 29 6 21 -39 -5 -47 -4 -47 9 0 36 20 54 60 54 22 0 40 5 40 10
0 8 -108 16 -111 8z"/>
<path d="M4158 4784 c-5 -4 -8 -16 -8 -26 0 -24 -23 -33 -50 -18 -18 10 -25 7
-52 -22 l-31 -33 5 28 c4 19 1 27 -8 27 -10 0 -14 -17 -14 -65 0 -67 14 -87
25 -35 8 39 42 80 65 80 39 0 49 -10 40 -41 -16 -55 13 -82 52 -48 l23 19 -28
-6 c-28 -6 -28 -6 -25 32 3 33 7 40 28 42 36 5 50 22 18 22 -21 0 -27 5 -30
26 -2 14 -6 22 -10 18z"/>
<path d="M3730 4752 c-23 -7 -50 -34 -50 -49 0 -8 13 -22 30 -31 39 -22 38
-30 -5 -38 -19 -3 -35 -11 -35 -16 0 -13 57 -3 77 13 21 18 16 33 -17 52 -16
10 -30 22 -30 28 0 5 14 12 30 16 29 5 39 17 23 26 -5 2 -15 2 -23 -1z"/>
<path d="M3818 4748 c-41 -14 -47 -47 -12 -75 24 -19 27 -25 14 -33 -8 -5 -26
-10 -40 -10 -17 0 -21 -3 -13 -11 14 -14 67 -3 84 18 11 13 8 19 -20 43 -37
29 -35 50 5 50 13 0 24 4 24 9 0 16 -14 19 -42 9z"/>
<path d="M4259 4745 c-15 -8 -29 -21 -32 -30 -6 -15 -1 -22 38 -50 17 -13 18
-16 5 -25 -8 -6 -23 -8 -32 -6 -21 5 -34 -9 -18 -19 18 -11 70 6 81 26 8 16 5
22 -21 37 -35 19 -36 44 -2 52 13 3 23 9 23 15 1 15 -14 15 -42 0z"/>
<path d="M1998 4730 c-29 -23 -53 -73 -44 -95 7 -19 40 -19 56 0 17 21 27 19
33 -7 11 -39 21 -10 18 50 -3 73 -19 87 -63 52z m42 -16 c0 -23 -39 -74 -56
-74 -18 0 -18 14 1 50 20 38 55 54 55 24z"/>
<path d="M2108 4745 c-13 -20 -20 -104 -10 -122 10 -16 12 -15 21 12 20 55 39
80 67 85 24 4 25 6 11 19 -14 11 -21 9 -46 -17 l-30 -29 -3 31 c-2 17 -6 27
-10 21z"/>
<path d="M2248 4730 c-29 -23 -53 -73 -44 -95 7 -19 40 -19 56 0 17 21 27 19
33 -7 11 -39 21 -10 18 50 -3 73 -19 87 -63 52z m42 -16 c0 -23 -39 -74 -56
-74 -18 0 -18 14 1 50 20 38 55 54 55 24z"/>
<path d="M2692 4739 c-30 -11 -56 -72 -42 -98 14 -27 31 -31 61 -15 32 16 53
68 39 94 -13 23 -30 29 -58 19z m36 -46 c2 -23 -3 -35 -19 -47 -12 -8 -26 -13
-31 -10 -14 9 -9 57 9 76 22 25 37 18 41 -19z"/>
<path d="M2882 4743 c-18 -7 -42 -57 -42 -87 0 -38 35 -53 68 -29 14 11 28 26
30 34 4 10 0 9 -15 -3 -19 -18 -63 -25 -63 -10 0 4 17 21 37 38 47 40 38 78
-15 57z m28 -22 c0 -5 -12 -16 -26 -26 -26 -17 -26 -10 -1 23 11 14 27 16 27
3z"/>
<path d="M3242 4743 c-18 -7 -42 -57 -42 -87 0 -38 35 -53 68 -29 14 11 28 26
30 34 4 10 0 9 -15 -3 -19 -18 -63 -25 -63 -10 0 4 17 21 37 38 47 40 38 78
-15 57z m28 -22 c0 -5 -12 -16 -26 -26 -26 -17 -26 -10 -1 23 11 14 27 16 27
3z"/>
<path d="M3586 4719 c-52 -61 -21 -128 44 -94 16 9 30 20 30 26 0 6 -6 6 -19
-1 -23 -12 -61 -13 -61 -2 0 4 16 20 35 35 38 31 47 67 16 67 -11 0 -31 -14
-45 -31z m44 2 c0 -13 -29 -35 -37 -28 -7 8 15 37 28 37 5 0 9 -4 9 -9z"/>
<path d="M3896 4719 c-52 -61 -21 -128 44 -94 16 9 30 20 30 26 0 6 -6 6 -19
-1 -23 -12 -61 -13 -61 -2 0 4 16 20 35 35 38 31 47 67 16 67 -11 0 -31 -14
-45 -31z m44 2 c0 -13 -29 -35 -37 -28 -7 8 15 37 28 37 5 0 9 -4 9 -9z"/>
<path d="M4816 4720 c-30 -37 -35 -85 -8 -98 19 -11 56 0 68 19 7 12 5 12 -43
-8 -20 -8 -27 24 -13 57 17 40 28 46 46 24 14 -18 14 -18 12 6 -4 36 -31 36
-62 0z"/>
<path d="M5076 4719 c-52 -61 -21 -128 44 -94 16 9 30 20 30 26 0 6 -6 6 -19
-1 -23 -12 -61 -13 -61 -2 0 4 16 20 35 35 38 31 47 67 16 67 -11 0 -31 -14
-45 -31z m44 2 c0 -13 -29 -35 -37 -28 -7 8 15 37 28 37 5 0 9 -4 9 -9z"/>
<path d="M2346 4724 c-10 -25 -7 -104 4 -104 5 0 21 20 36 45 14 25 29 45 34
45 4 0 10 -18 14 -40 5 -31 11 -40 26 -40 21 0 28 16 9 22 -6 2 -14 19 -18 38
-9 46 -38 46 -69 0 l-24 -35 7 36 c7 37 -8 62 -19 33z"/>
<path d="M4577 4733 c-10 -17 -17 -81 -11 -97 9 -23 40 -20 57 5 l15 21 7 -21
c12 -37 20 -22 22 39 1 33 0 60 -3 60 -2 0 -10 -15 -17 -33 -16 -36 -43 -67
-59 -67 -11 0 -6 48 7 83 7 16 -9 25 -18 10z"/>
<path d="M10079 4195 c-14 -8 -34 -26 -43 -40 -10 -15 -26 -25 -41 -25 -14 0
-25 -4 -25 -10 0 -5 9 -10 21 -10 28 0 21 -34 -9 -38 -27 -4 -29 -22 -3 -22
12 0 25 -11 33 -27 20 -42 57 -56 113 -42 26 7 49 18 52 26 9 22 -2 25 -33 8
-34 -18 -58 -19 -85 -5 -32 18 -23 38 18 42 52 4 56 28 4 28 -29 0 -41 4 -41
14 0 11 14 16 48 18 26 2 47 7 47 13 0 5 -17 8 -37 7 -42 -4 -48 6 -20 31 21
19 63 22 79 6 8 -8 13 -7 18 2 10 15 -21 39 -49 39 -12 -1 -33 -7 -47 -15z"/>
<path d="M9563 4148 c-67 -71 -79 -112 -43 -148 53 -53 207 19 160 75 -19 23
-46 27 -84 11 -27 -11 -38 -23 -42 -45 -8 -37 -24 -31 -24 9 0 32 48 95 81
105 21 7 26 35 6 35 -7 0 -31 -19 -54 -42z m102 -87 c8 -14 -44 -51 -71 -51
-28 0 -32 21 -8 44 17 17 69 22 79 7z"/>
<path d="M9805 4174 c-46 -24 -63 -43 -81 -90 -30 -79 3 -122 80 -104 48 11
110 54 125 86 19 42 13 70 -20 98 -35 30 -61 32 -104 10z m87 -31 c20 -18 23
-45 8 -73 -13 -24 -90 -70 -117 -70 -54 0 -53 67 2 125 36 39 76 46 107 18z"/>
<path d="M2127 4148 c18 -18 36 -28 40 -24 8 8 -45 56 -62 56 -5 0 5 -14 22
-32z"/>
<path d="M2697 4173 c-11 -17 -29 -131 -25 -158 4 -41 41 -46 78 -10 31 30 42
64 28 89 -12 22 -21 20 -58 -10 l-31 -27 7 29 c4 16 11 39 15 52 5 13 9 28 9
33 0 11 -17 12 -23 2z m49 -149 c-18 -26 -56 -33 -56 -10 0 8 15 29 32 47 32
33 33 33 36 11 2 -13 -4 -34 -12 -48z"/>
<path d="M3087 4173 c-11 -17 -30 -172 -23 -188 11 -28 17 -12 21 56 2 35 9
79 14 96 9 29 0 55 -12 36z"/>
<path d="M3170 4145 c-30 -32 -14 -32 25 0 20 16 25 24 14 25 -8 0 -26 -11
-39 -25z"/>
<path d="M3840 4155 c0 -8 7 -15 15 -15 8 0 15 7 15 15 0 8 -7 15 -15 15 -8 0
-15 -7 -15 -15z"/>
<path d="M4000 4154 c0 -9 5 -14 12 -12 18 6 21 28 4 28 -9 0 -16 -7 -16 -16z"/>
<path d="M4193 4153 c-22 -15 -31 -33 -15 -33 4 1 21 12 37 25 33 28 15 34
-22 8z"/>
<path d="M1871 4124 c-69 -62 -76 -135 -14 -150 29 -8 73 12 81 34 3 10 -3 9
-21 -3 -63 -41 -99 11 -57 80 33 53 80 73 80 35 0 -11 4 -20 9 -20 16 0 23 19
16 40 -10 31 -50 25 -94 -16z"/>
<path d="M4066 4125 c-4 -14 -17 -30 -29 -34 -20 -8 -20 -10 -4 -16 14 -6 16
-14 11 -41 -4 -21 -2 -40 5 -48 13 -16 45 -11 62 10 10 12 6 13 -21 7 -33 -6
-33 -6 -27 27 4 18 7 36 7 41 0 5 14 9 30 9 17 0 30 5 30 10 0 6 -11 10 -24
10 -19 0 -22 4 -18 25 6 33 -14 32 -22 0z"/>
<path d="M3910 4107 c-12 -7 -28 -20 -34 -30 -9 -15 -7 -22 12 -37 12 -10 28
-20 35 -23 18 -6 3 -18 -29 -22 -16 -2 -31 -4 -34 -4 -2 -1 1 -6 7 -12 8 -8
21 -8 47 1 46 15 48 43 5 65 -25 13 -28 19 -18 31 6 8 20 14 30 14 11 0 19 4
19 9 0 17 -16 20 -40 8z"/>
<path d="M1998 4105 c-13 -20 -20 -104 -10 -122 10 -16 12 -15 21 12 20 55 39
80 67 85 24 4 25 6 11 19 -14 11 -21 9 -46 -17 l-30 -29 -3 31 c-2 17 -6 27
-10 21z"/>
<path d="M2137 4099 c-28 -17 -50 -75 -37 -99 11 -20 21 -24 50 -20 19 2 50
30 50 43 0 6 -8 3 -18 -6 -23 -21 -62 -22 -62 -3 0 8 9 18 20 21 11 4 28 17
36 30 25 38 2 58 -39 34z m13 -34 c-27 -29 -37 -27 -20 4 6 12 18 21 27 21 13
0 12 -5 -7 -25z"/>
<path d="M2226 4072 c-9 -55 -7 -92 4 -92 6 0 23 20 38 45 15 25 30 45 34 45
4 0 8 -17 10 -37 4 -50 23 -52 48 -4 24 48 40 53 40 13 0 -35 23 -71 35 -53 4
7 2 18 -4 24 -6 6 -11 21 -11 33 0 63 -28 70 -62 17 l-23 -38 -3 30 c-7 58
-34 55 -74 -10 l-19 -30 7 41 c3 24 2 44 -4 48 -5 3 -12 -11 -16 -32z"/>
<path d="M2482 4087 c-66 -70 -11 -152 61 -89 9 8 17 20 17 25 0 6 -8 3 -18
-6 -20 -18 -57 -23 -66 -8 -4 5 10 19 29 31 24 15 35 29 35 46 0 31 -29 32
-58 1z m38 -5 c0 -11 -22 -32 -32 -32 -5 0 -4 9 2 20 11 20 30 28 30 12z"/>
<path d="M2855 4077 l-34 -34 6 29 c3 17 1 28 -5 28 -22 0 -30 -120 -8 -121 5
0 15 16 21 36 17 48 35 67 57 62 11 -3 18 0 18 8 0 28 -22 25 -55 -8z"/>
<path d="M3162 4103 c-18 -7 -42 -57 -42 -87 0 -38 35 -53 68 -29 14 11 28 26
30 34 4 10 0 9 -15 -3 -19 -18 -63 -25 -63 -10 0 4 17 21 37 38 47 40 38 78
-15 57z m28 -22 c0 -5 -12 -16 -26 -26 -26 -17 -26 -10 -1 23 11 14 27 16 27
3z"/>
<path d="M3282 4103 c-18 -7 -42 -57 -42 -87 0 -38 35 -53 68 -29 14 11 28 26
30 34 4 10 0 9 -15 -3 -19 -18 -63 -25 -63 -10 0 4 17 21 37 38 47 40 38 78
-15 57z m28 -22 c0 -5 -12 -16 -26 -26 -26 -17 -26 -10 -1 23 11 14 27 16 27
3z"/>
<path d="M3505 4077 l-34 -34 6 29 c3 17 1 28 -5 28 -22 0 -30 -120 -8 -121 5
0 15 16 21 36 17 48 35 67 57 62 11 -3 18 0 18 8 0 28 -22 25 -55 -8z"/>
<path d="M3592 4087 c-66 -70 -11 -152 61 -89 9 8 17 20 17 25 0 6 -8 3 -18
-6 -20 -18 -57 -23 -66 -8 -4 5 10 19 29 31 24 15 35 29 35 46 0 31 -29 32
-58 1z m38 -5 c0 -11 -22 -32 -32 -32 -5 0 -4 9 2 20 11 20 30 28 30 12z"/>
<path d="M4177 4099 c-28 -17 -50 -75 -37 -99 11 -20 21 -24 50 -20 19 2 50
30 50 43 0 6 -8 3 -18 -6 -23 -21 -62 -22 -62 -3 0 8 9 18 20 21 11 4 28 17
36 30 25 38 2 58 -39 34z m13 -34 c-27 -29 -37 -27 -20 4 6 12 18 21 27 21 13
0 12 -5 -7 -25z"/>
<path d="M4297 4099 c-28 -17 -50 -75 -37 -99 11 -20 21 -24 50 -20 19 2 50
30 50 43 0 6 -8 3 -18 -6 -23 -21 -62 -22 -62 -3 0 8 9 18 20 21 11 4 28 17
36 30 25 38 2 58 -39 34z m13 -34 c-27 -29 -37 -27 -20 4 6 12 18 21 27 21 13
0 12 -5 -7 -25z"/>
<path d="M2926 4078 c-3 -13 -6 -38 -6 -56 0 -42 23 -52 54 -23 23 22 23 22
29 2 10 -39 22 -21 22 34 0 60 -10 70 -26 28 -12 -32 -38 -63 -52 -63 -6 0 -7
20 -3 50 7 50 -6 70 -18 28z"/>
<path d="M3680 4088 c0 -19 33 -118 39 -117 3 0 25 29 48 65 26 40 36 64 27
64 -7 0 -26 -21 -41 -47 l-27 -47 -13 30 c-6 16 -12 37 -13 47 0 19 -20 24
-20 5z"/>
<path d="M3825 4088 c-3 -7 -6 -34 -7 -60 -3 -55 13 -61 18 -6 1 20 5 46 9 57
7 23 -12 30 -20 9z"/>
<path d="M3975 4039 c-6 -53 -3 -81 9 -68 9 10 16 129 7 129 -5 0 -12 -27 -16
-61z"/>
<path d="M10079 3555 c-14 -8 -34 -26 -43 -40 -10 -15 -26 -25 -41 -25 -14 0
-25 -4 -25 -10 0 -5 9 -10 21 -10 28 0 21 -34 -9 -38 -27 -4 -29 -22 -3 -22
12 0 25 -11 33 -27 20 -42 57 -56 113 -42 26 7 49 18 52 26 9 22 -2 25 -33 8
-34 -18 -58 -19 -85 -5 -32 18 -23 38 18 42 52 4 56 28 4 28 -29 0 -41 4 -41
14 0 11 14 16 48 18 26 2 47 7 47 13 0 5 -17 8 -37 7 -42 -4 -48 6 -20 31 21
19 63 22 79 6 8 -8 13 -7 18 2 10 15 -21 39 -49 39 -12 -1 -33 -7 -47 -15z"/>
<path d="M9628 3543 c-54 -4 -60 -7 -83 -41 -28 -42 -24 -50 31 -59 73 -11 86
-45 28 -69 -28 -12 -43 -13 -67 -5 -38 14 -37 14 -37 -3 0 -23 61 -39 96 -26
38 15 74 49 74 70 0 24 -30 46 -72 54 -44 8 -48 19 -13 42 17 11 36 14 56 10
38 -7 81 2 76 18 -4 13 -12 14 -89 9z"/>
<path d="M9863 3543 c-46 -4 -56 -8 -78 -37 -34 -44 -32 -54 13 -61 66 -12 73
-15 70 -38 -5 -32 -54 -53 -92 -39 -35 14 -54 1 -30 -19 24 -20 91 -15 122 8
28 21 41 68 24 85 -5 5 -30 15 -56 21 l-47 12 22 24 c19 20 28 22 66 17 46 -6
88 7 78 25 -4 5 -14 8 -23 7 -9 -1 -41 -3 -69 -5z"/>
<path d="M2940 3532 c0 -9 55 -52 66 -52 4 0 -5 14 -21 30 -28 30 -45 38 -45
22z"/>
<path d="M3170 3521 c-16 -31 -26 -191 -11 -191 7 0 11 19 11 50 0 27 5 72 11
100 12 56 7 74 -11 41z"/>
<path d="M2007 3524 c-8 -8 1 -24 14 -24 5 0 9 7 9 15 0 15 -12 20 -23 9z"/>
<path d="M2560 3515 c0 -8 7 -15 15 -15 8 0 15 7 15 15 0 8 -7 15 -15 15 -8 0
-15 -7 -15 -15z"/>
<path d="M3747 3524 c-8 -8 1 -24 14 -24 5 0 9 7 9 15 0 15 -12 20 -23 9z"/>
<path d="M1868 3503 c-62 -4 -81 -23 -23 -23 l35 0 -2 -65 c-4 -81 13 -81 18
0 5 65 13 75 62 75 20 0 31 4 27 10 -3 6 -18 9 -33 8 -15 -1 -53 -3 -84 -5z"/>
<path d="M4026 3485 c-4 -14 -17 -30 -29 -34 -20 -8 -20 -10 -4 -16 14 -6 16
-14 11 -41 -4 -21 -2 -40 5 -48 13 -16 45 -11 62 10 10 12 6 13 -21 7 -33 -6
-33 -6 -27 27 4 18 7 36 7 41 0 10 50 12 73 3 12 -4 13 -12 7 -35 -16 -55 13
-82 52 -48 l23 19 -28 -6 c-28 -6 -28 -6 -25 32 3 33 7 40 28 42 37 5 50 22
17 22 -22 0 -27 4 -27 26 0 14 -4 23 -10 19 -5 -3 -10 -15 -10 -25 0 -25 -11
-30 -52 -24 -30 5 -34 9 -30 30 6 32 -14 31 -22 -1z"/>
<path d="M2630 3467 c-12 -7 -28 -20 -34 -30 -9 -15 -7 -22 12 -37 12 -10 28
-20 35 -23 18 -6 3 -18 -29 -22 -16 -2 -31 -4 -34 -4 -2 -1 1 -6 7 -12 8 -8
21 -8 47 1 46 15 48 43 5 65 -25 13 -28 19 -18 31 6 8 20 14 30 14 11 0 19 4
19 9 0 17 -16 20 -40 8z"/>
<path d="M3818 3468 c-41 -14 -47 -47 -12 -75 24 -19 27 -25 14 -33 -8 -5 -26
-10 -40 -10 -17 0 -21 -3 -13 -11 14 -14 67 -3 84 18 11 13 8 19 -20 43 -37
29 -35 50 5 50 13 0 24 4 24 9 0 16 -14 19 -42 9z"/>
<path d="M2095 3437 l-34 -34 6 29 c3 17 1 28 -5 28 -22 0 -30 -120 -8 -121 5
0 15 16 21 36 17 48 35 67 57 62 11 -3 18 0 18 8 0 28 -22 25 -55 -8z"/>
<path d="M2184 3436 c-58 -58 -40 -127 21 -82 17 12 21 12 33 -5 7 -11 18 -17
23 -13 6 4 6 11 -2 20 -7 8 -9 27 -5 50 7 35 -5 64 -26 64 -6 0 -25 -15 -44
-34z m51 4 c7 -11 -7 -41 -31 -64 -36 -37 -47 -2 -13 45 21 30 34 36 44 19z"/>
<path d="M2295 3414 c-4 -36 -3 -60 4 -67 6 -6 12 -9 14 -6 1 2 16 24 32 49
l29 45 9 -42 c4 -24 12 -43 17 -43 5 0 19 18 31 40 13 22 26 40 30 40 3 0 9
-18 13 -40 4 -27 11 -40 22 -40 12 0 14 5 9 18 -4 9 -11 33 -14 52 -9 47 -33
50 -56 5 -24 -43 -35 -45 -35 -6 0 45 -20 49 -52 11 l-28 -34 0 37 c0 57 -17
44 -25 -19z"/>
<path d="M2964 3455 c-26 -18 -58 -81 -50 -101 7 -18 40 -18 56 1 17 20 27 19
33 -5 11 -41 22 -18 20 41 -2 76 -18 93 -59 64z m36 -24 c0 -24 -37 -71 -56
-71 -22 0 -17 25 12 59 29 35 44 39 44 12z"/>
<path d="M3248 3450 c-29 -23 -53 -73 -44 -95 7 -19 40 -19 56 0 17 21 27 19
33 -7 11 -39 21 -10 18 50 -3 73 -19 87 -63 52z m42 -16 c0 -23 -39 -74 -56
-74 -18 0 -18 14 1 50 20 38 55 54 55 24z"/>
<path d="M3627 3459 c-19 -11 -47 -60 -47 -83 0 -16 26 -46 40 -46 5 0 22 12
39 26 37 31 44 87 12 104 -23 12 -22 12 -44 -1z m41 -42 c3 -25 -26 -67 -47
-67 -17 0 -23 38 -10 62 24 45 52 48 57 5z"/>
<path d="M3896 3439 c-52 -61 -21 -128 44 -94 16 9 30 20 30 26 0 6 -6 6 -19
-1 -23 -12 -61 -13 -61 -2 0 4 16 20 35 35 38 31 47 67 16 67 -11 0 -31 -14
-45 -31z m44 2 c0 -13 -29 -35 -37 -28 -7 8 15 37 28 37 5 0 9 -4 9 -9z"/>
<path d="M4232 3447 c-66 -70 -11 -152 61 -89 9 8 17 20 17 25 0 6 -8 3 -18
-6 -20 -18 -57 -23 -66 -8 -4 5 10 19 29 31 24 15 35 29 35 46 0 31 -29 32
-58 1z m38 -5 c0 -11 -22 -32 -32 -32 -5 0 -4 9 2 20 11 20 30 28 30 12z"/>
<path d="M1986 3429 c-9 -48 -7 -99 4 -99 6 0 10 15 10 34 0 18 3 48 6 65 4
18 2 31 -3 31 -6 0 -13 -14 -17 -31z"/>
<path d="M2545 3448 c-3 -7 -6 -34 -7 -60 -3 -55 13 -61 18 -6 1 20 5 46 9 57
7 23 -12 30 -20 9z"/>
<path d="M2696 3438 c-3 -13 -6 -38 -6 -56 0 -42 23 -52 54 -23 23 22 23 22
29 2 10 -39 22 -21 22 34 0 60 -10 70 -26 28 -12 -32 -38 -63 -52 -63 -6 0 -7
20 -3 50 7 50 -6 70 -18 28z"/>
<path d="M3436 3444 c-10 -25 -7 -104 4 -104 5 0 21 20 36 45 14 25 29 45 34
45 4 0 10 -18 14 -40 5 -31 11 -40 26 -40 21 0 28 16 9 22 -6 2 -14 19 -18 38
-9 46 -38 46 -69 0 l-24 -35 7 36 c7 37 -8 62 -19 33z"/>
<path d="M3726 3429 c-9 -48 -7 -99 4 -99 6 0 10 15 10 34 0 18 3 48 6 65 4
18 2 31 -3 31 -6 0 -13 -14 -17 -31z"/>
</g>
</svg>
