<?xml version="1.0" standalone="no"?>
<!DOCTYPE svg PUBLIC "-//W3C//DTD SVG 20010904//EN"
 "http://www.w3.org/TR/2001/REC-SVG-20010904/DTD/svg10.dtd">
<svg version="1.0" xmlns="http://www.w3.org/2000/svg"
 width="1190.000000pt" height="1684.000000pt" viewBox="0 0 1190.000000 1684.000000"
 preserveAspectRatio="xMidYMid meet">
<metadata>
Created by potrace 1.16, written by Peter Selinger 2001-2019
</metadata>
<g transform="translate(0.000000,1684.000000) scale(0.100000,-0.100000)"
fill="#000000" stroke="none">
<path d="M6417 14734 c-3 -3 -13 -7 -24 -8 -17 -3 -18 -17 -21 -179 l-3 -177
36 0 35 0 0 179 c0 161 -5 203 -23 185z"/>
<path d="M8695 14729 c-4 -5 -4 -21 -1 -34 4 -17 -3 -42 -25 -82 l-32 -58 38
43 c35 40 39 42 55 27 10 -9 23 -36 29 -61 14 -56 -5 -101 -47 -110 -51 -11
-47 -14 15 -11 77 4 103 27 103 92 0 35 -6 48 -47 89 -38 39 -45 51 -36 65 7
11 8 23 1 34 -10 19 -43 23 -53 6z"/>
<path d="M6565 14714 c-19 -20 -19 -19 7 -44 16 -15 22 -31 21 -58 l-2 -37 11
40 c13 50 10 47 58 52 l40 5 0 -100 c0 -112 9 -132 61 -132 32 0 37 11 14 30
-12 10 -15 37 -15 126 0 63 -3 114 -7 114 -5 0 -26 -7 -48 -15 -56 -20 -82
-19 -90 4 -8 26 -31 33 -50 15z"/>
<path d="M6963 14705 c-57 -25 -91 -99 -73 -164 17 -65 47 -92 105 -97 44 -3
46 -3 19 6 -41 13 -54 46 -54 134 0 64 3 76 25 101 20 21 32 26 53 21 20 -5
23 -4 12 4 -20 13 -49 12 -87 -5z"/>
<path d="M7451 14711 c-11 -7 -7 -10 15 -13 l29 -3 5 -111 c6 -126 15 -144 67
-144 33 0 34 1 19 22 -12 16 -16 47 -16 116 0 88 -1 94 -26 117 -27 25 -67 32
-93 16z"/>
<path d="M7757 14695 c-82 -56 -92 -148 -24 -222 11 -13 26 -23 33 -23 7 0 19
-7 28 -15 9 -9 17 -11 21 -5 3 5 19 10 34 10 15 0 36 7 47 16 18 15 18 15 -3
5 -35 -17 -70 -13 -100 13 -24 21 -28 32 -31 92 -4 83 18 128 70 143 l33 9
-35 1 c-22 1 -49 -8 -73 -24z"/>
<path d="M8073 14700 c-42 -25 -63 -68 -63 -125 0 -87 44 -136 120 -134 45 1
45 1 13 10 -44 13 -63 53 -63 129 0 84 20 120 66 120 21 0 33 4 29 10 -10 17
-68 11 -102 -10z"/>
<path d="M8450 14590 c5 -143 8 -150 68 -150 33 0 43 14 17 24 -12 4 -15 27
-15 113 -1 117 -10 143 -51 143 l-24 0 5 -130z"/>
<path d="M8978 14699 c-47 -24 -68 -64 -68 -130 0 -47 4 -55 40 -91 39 -40 41
-40 100 -36 40 3 67 10 78 22 16 16 15 16 -13 2 -44 -23 -78 -20 -106 10 -21
23 -24 35 -24 104 0 63 4 82 19 99 25 28 72 28 87 0 15 -29 3 -85 -24 -104
l-21 -15 23 0 c12 0 36 9 52 21 24 17 29 27 29 63 0 35 -4 44 -29 59 -38 22
-97 21 -143 -4z"/>
<path d="M7091 14693 c-11 -12 -12 -20 -3 -34 15 -23 16 -133 2 -160 -8 -14
-7 -19 2 -19 7 0 19 -9 26 -20 13 -21 72 -29 72 -10 0 6 -4 10 -10 10 -6 0
-10 48 -10 125 l0 125 -32 0 c-18 -1 -39 -8 -47 -17z"/>
<path d="M7320 14580 l0 -130 34 0 35 0 3 114 3 115 -33 15 c-18 9 -35 16 -37
16 -3 0 -5 -58 -5 -130z"/>
<path d="M8213 14696 c-7 -8 -8 -18 -2 -27 5 -8 9 -48 9 -90 0 -63 -4 -81 -22
-105 l-22 -29 22 19 c22 19 23 19 38 -2 11 -15 26 -22 50 -22 38 0 41 4 19 26
-12 12 -15 41 -15 130 l0 114 -32 0 c-18 -1 -38 -7 -45 -14z"/>
<path d="M3908 12583 c8 -3 12 -32 12 -93 0 -61 -4 -90 -12 -93 -7 -3 7 -5 32
-5 25 0 39 2 33 5 -8 2 -13 22 -13 44 0 38 1 39 34 39 48 0 81 29 72 64 -4 16
-17 31 -32 36 -25 10 -150 13 -126 3z"/>
<path d="M3185 12550 c-255 -21 -1025 -46 -1715 -56 -463 -7 -641 -22 -275
-23 423 -2 1460 -31 1850 -53 272 -15 286 -15 374 10 40 12 120 27 177 34 57
7 104 15 104 18 0 3 -46 11 -102 18 -57 6 -137 21 -178 32 -99 28 -117 29
-235 20z"/>
<path d="M8523 12540 c-54 -19 -226 -50 -282 -50 -68 0 -25 -16 74 -28 58 -7
142 -23 188 -37 78 -22 91 -23 208 -15 297 22 1047 46 1752 56 246 4 442 11
435 15 -7 5 -103 9 -213 9 -506 0 -1805 41 -2060 65 -34 3 -67 -2 -102 -15z"/>
<path d="M5260 12523 c-17 -12 -25 -13 -28 -5 -2 7 -10 12 -18 12 -11 0 -14
-15 -14 -64 0 -42 -4 -66 -12 -69 -7 -3 3 -6 22 -6 l35 -1 -3 53 c-4 57 13 85
43 73 19 -7 22 -112 3 -119 -7 -3 3 -6 22 -6 l35 -1 -3 53 c-4 57 13 85 43 73
19 -7 22 -112 3 -119 -7 -3 3 -6 23 -6 39 -1 38 -3 23 96 -7 44 -37 60 -70 38
-22 -14 -27 -14 -46 0 -28 19 -28 19 -58 -2z"/>
<path d="M4428 8863 c8 -3 12 -32 12 -93 0 -61 -4 -90 -12 -93 -7 -3 7 -5 32
-5 25 0 39 2 33 5 -8 2 -13 22 -13 44 0 38 1 39 34 39 48 0 81 29 72 64 -4 16
-17 31 -32 36 -25 10 -150 13 -126 3z"/>
<path d="M3185 8830 c-255 -21 -1025 -46 -1715 -56 -463 -7 -641 -22 -275 -23
423 -2 1460 -31 1850 -53 272 -15 286 -15 374 10 40 12 120 27 177 34 57 7
104 15 104 18 0 3 -46 11 -102 18 -57 6 -137 21 -178 32 -99 28 -117 29 -235
20z"/>
<path d="M8523 8820 c-54 -19 -226 -50 -282 -50 -68 0 -25 -16 74 -28 58 -7
142 -23 188 -37 78 -22 91 -23 208 -15 297 22 1047 46 1752 56 246 4 442 11
435 15 -7 5 -103 9 -213 9 -506 0 -1805 41 -2060 65 -34 3 -67 -2 -102 -15z"/>
<path d="M5738 5153 c6 -2 12 -21 12 -41 0 -28 -3 -33 -12 -24 -32 32 -98 -10
-98 -64 0 -55 26 -73 107 -72 37 0 62 3 56 5 -9 3 -13 34 -13 104 l0 99 -32
-1 c-18 0 -27 -3 -20 -6z"/>
<path d="M4147 5126 c-23 -21 -27 -33 -27 -76 0 -42 4 -55 27 -76 24 -22 34
-24 89 -22 l62 3 4 48 3 47 -35 -1 c-19 0 -29 -3 -22 -6 18 -7 15 -70 -4 -77
-44 -17 -74 17 -74 84 0 77 54 116 102 73 17 -15 18 -15 18 3 0 16 -8 20 -58
22 -50 3 -62 0 -85 -22z"/>
<path d="M3175 5109 c-269 -20 -1032 -45 -1715 -55 -245 -4 -452 -10 -460 -15
-8 -5 75 -9 190 -9 407 0 1460 -30 1845 -51 287 -16 301 -16 392 10 46 12 129
28 185 35 57 7 96 15 88 18 -8 3 -60 11 -115 18 -55 7 -137 23 -183 36 -45 13
-92 23 -105 23 -12 -1 -67 -5 -122 -10z"/>
<path d="M8532 5104 c-37 -16 -244 -54 -298 -54 -70 0 -30 -16 70 -28 57 -7
137 -22 177 -34 85 -25 109 -25 389 -10 379 22 1419 51 1850 53 124 0 197 4
185 9 -11 5 -112 9 -225 9 -524 2 -1731 41 -2055 66 -41 3 -71 -1 -93 -11z"/>
<path d="M4385 5088 c-29 -16 -35 -28 -35 -70 0 -44 27 -68 76 -68 37 0 74 38
74 75 0 51 -70 90 -115 63z"/>
<path d="M4992 5084 c-12 -8 -22 -10 -22 -5 0 6 -8 11 -17 11 -15 0 -18 -8
-15 -55 3 -34 -1 -61 -8 -70 -11 -13 -7 -15 26 -15 30 0 35 3 26 12 -27 27 -2
118 32 118 25 0 36 -96 14 -118 -9 -9 -3 -12 27 -12 30 0 36 3 27 12 -19 19
-14 73 8 99 20 24 20 24 35 5 18 -24 20 -87 3 -104 -9 -9 -3 -12 27 -12 30 0
36 3 27 12 -7 7 -12 36 -12 65 0 47 -3 55 -25 65 -19 8 -29 8 -48 -4 -20 -14
-26 -14 -42 -2 -24 18 -35 18 -63 -2z"/>
</g>
</svg>
