<?xml version="1.0" standalone="no"?>
<!DOCTYPE svg PUBLIC "-//W3C//DTD SVG 20010904//EN"
 "http://www.w3.org/TR/2001/REC-SVG-20010904/DTD/svg10.dtd">
<svg version="1.0" xmlns="http://www.w3.org/2000/svg"
 width="1500.000000pt" height="2388.000000pt" viewBox="0 0 1500.000000 2388.000000"
 preserveAspectRatio="xMidYMid meet">

<g transform="translate(0.000000,2388.000000) scale(0.100000,-0.100000)"
fill="#000000" stroke="none">
<path d="M4360 17765 c-5 -6 -5 -16 0 -25 8 -12 10 -9 10 9 0 23 1 24 13 6 11
-14 16 -15 22 -5 6 9 4 11 -5 5 -9 -6 -12 -4 -8 7 7 17 -18 20 -32 3z"/>
<path d="M4280 17749 c-30 -10 -74 -26 -98 -35 l-43 -16 2 -210 c1 -115 5
-225 9 -244 4 -19 4 -37 -1 -40 -5 -3 -9 10 -9 29 0 45 -19 60 -64 52 -48 -10
-86 -46 -86 -84 0 -37 29 -58 78 -59 28 -1 33 2 29 18 -2 10 0 24 5 31 7 12 9
11 7 -1 -3 -31 3 -44 10 -20 4 14 4 30 0 35 -4 6 -3 17 3 25 8 12 9 12 4 -2
-3 -10 -1 -20 5 -24 5 -3 7 -15 4 -27 -4 -15 0 -12 11 8 10 17 16 45 15 64 -2
19 1 31 7 27 6 -3 10 55 11 151 1 86 4 160 6 164 3 3 26 12 52 19 27 7 53 17
59 21 6 5 13 7 16 4 3 -3 11 1 17 9 10 12 9 14 -6 11 -10 -2 -26 -4 -36 -4
-10 -1 -16 -4 -14 -8 3 -5 -5 -8 -16 -9 -12 0 -33 -2 -47 -5 -20 -3 -25 0 -25
20 0 21 10 28 65 48 36 13 72 26 80 27 8 2 16 13 16 24 1 26 4 26 -66 1z
m-112 -425 c0 -17 -3 -22 -8 -13 -5 6 -6 18 -3 26 8 19 11 16 11 -13z"/>
<path d="M12252 17283 c2 -10 10 -18 18 -18 22 0 18 29 -3 33 -14 3 -18 -1
-15 -15z"/>
<path d="M10972 17227 c-5 -6 -10 -58 -11 -114 -2 -98 -1 -103 19 -103 20 0
21 4 19 110 -1 109 -7 132 -27 107z m15 -12 c0 -8 -4 -12 -9 -9 -5 3 -6 10 -3
15 9 13 12 11 12 -6z"/>
<path d="M11076 17215 c-3 -8 1 -18 8 -22 7 -5 16 -15 19 -23 4 -12 6 -11 6 3
1 11 9 17 26 17 24 0 25 -3 25 -54 0 -74 6 -86 44 -86 26 1 28 2 14 11 -15 8
-18 24 -18 85 0 71 -1 74 -19 64 -24 -12 -71 -13 -71 -1 0 16 -28 20 -34 6z"/>
<path d="M12397 17224 c-3 -3 -3 -12 0 -20 3 -8 -3 -26 -12 -42 l-18 -27 21
18 c25 23 38 16 47 -23 10 -46 -2 -68 -38 -73 -25 -3 -22 -4 14 -5 25 -1 50 3
57 10 22 22 14 72 -17 102 -19 18 -27 34 -24 47 5 18 -15 27 -30 13z"/>
<path d="M11305 17195 c-47 -46 -22 -145 35 -145 20 0 20 0 0 20 -14 14 -20
33 -20 63 0 47 14 73 45 80 15 3 13 5 -8 6 -17 1 -37 -8 -52 -24z"/>
<path d="M11635 17211 c17 -7 21 -20 25 -82 l5 -74 35 -3 c28 -2 32 0 18 8
-14 9 -18 25 -18 73 0 71 -10 87 -54 86 -26 0 -28 -2 -11 -8z"/>
<path d="M11822 17210 c-32 -13 -52 -65 -41 -104 12 -41 35 -56 83 -55 34 2
36 3 11 6 -40 6 -55 28 -55 80 0 30 6 49 20 63 22 22 18 24 -18 10z"/>
<path d="M12001 17201 c-30 -30 -36 -76 -14 -114 16 -27 25 -32 58 -34 24 0
30 1 15 4 -33 7 -40 19 -40 78 0 57 7 71 35 78 15 4 14 5 -7 6 -16 0 -37 -8
-47 -18z"/>
<path d="M12250 17138 l5 -83 30 -3 c18 -2 25 1 18 5 -7 5 -13 39 -15 83 -3
66 -5 75 -23 78 -19 3 -20 -2 -15 -80z"/>
<path d="M12575 17208 c-49 -26 -60 -86 -24 -132 17 -21 28 -26 62 -25 38 1
39 2 12 8 -48 10 -68 70 -43 126 9 20 18 25 37 23 32 -4 40 -41 15 -69 -21
-23 -7 -25 24 -3 27 19 29 60 3 74 -25 13 -61 12 -86 -2z"/>
<path d="M11409 17203 c-6 -51 -2 -131 8 -140 6 -7 24 -13 40 -13 24 1 25 2
11 11 -15 8 -18 24 -18 79 0 63 -2 70 -20 70 -11 0 -20 -3 -21 -7z"/>
<path d="M11550 17130 c0 -72 2 -80 19 -80 17 0 20 9 23 75 3 74 -1 85 -33 85
-5 0 -9 -36 -9 -80z"/>
<path d="M11886 17195 c-8 -21 1 -35 20 -35 10 0 14 8 12 22 -4 27 -23 34 -32
13z"/>
<path d="M12105 17142 c1 -80 7 -92 43 -91 15 0 21 3 15 6 -9 3 -13 29 -13 79
0 71 -1 74 -23 74 -22 0 -23 -3 -22 -68z"/>
<path d="M10732 17174 c-7 -8 -11 -14 -9 -14 2 0 1 -19 -3 -42 -9 -49 4 -69
47 -67 17 1 21 3 11 6 -14 3 -18 15 -18 56 0 62 -9 81 -28 61z"/>
<path d="M10610 17162 c0 -7 -3 -11 -7 -9 -5 3 -9 -10 -10 -29 -3 -40 24 -74
59 -74 l22 0 -22 16 c-15 10 -22 26 -22 47 0 18 -5 39 -10 47 -7 11 -10 11
-10 2z"/>
<path d="M10472 17116 c-4 -45 7 -66 36 -66 15 0 22 3 15 8 -6 4 -13 22 -15
41 -5 39 -33 52 -36 17z"/>
<path d="M10241 17086 c-14 -16 4 -33 33 -33 17 0 17 2 2 12 -8 7 -13 14 -10
17 3 4 1 9 -4 12 -5 3 -15 0 -21 -8z m16 -11 c0 -8 -4 -12 -9 -9 -5 3 -6 10
-3 15 9 13 12 11 12 -6z"/>
<path d="M4685 16989 c-21 -39 -24 -54 -32 -169 -5 -75 -3 -88 15 -110 l20
-25 12 45 c6 25 15 56 20 70 8 21 8 19 4 -11 -6 -38 17 -109 35 -109 15 0 31
34 31 66 0 22 -3 25 -12 16 -21 -21 -27 -13 -17 23 27 97 -17 138 -58 55 l-23
-45 7 55 c3 30 12 74 20 98 9 28 11 48 5 59 -8 14 -12 11 -27 -18z"/>
<path d="M3145 16988 c-3 -13 -12 -67 -20 -121 -8 -53 -17 -102 -21 -108 -3
-6 -17 -8 -30 -5 -37 10 -43 -20 -11 -52 22 -22 28 -23 42 -12 12 10 24 11 54
1 46 -13 67 -7 75 22 11 43 8 47 -30 31 -48 -20 -67 -13 -54 20 5 13 12 52 16
86 4 34 10 56 14 49 6 -8 11 -6 19 9 16 31 13 67 -7 85 -25 23 -41 21 -47 -5z"/>
<path d="M11865 16985 c0 -14 5 -23 10 -22 6 2 10 12 10 22 0 10 -4 20 -10 22
-5 2 -10 -8 -10 -22z"/>
<path d="M3864 16943 c-8 -42 -13 -48 -38 -53 l-28 -5 23 -29 c15 -19 23 -44
24 -75 4 -106 85 -143 85 -39 0 30 -1 30 -19 14 -25 -22 -33 -8 -25 41 4 29
13 43 36 56 32 18 30 37 -4 37 -18 0 -20 5 -15 39 4 36 -5 61 -24 61 -4 0 -11
-21 -15 -47z"/>
<path d="M5196 16941 c-6 -47 -8 -50 -39 -53 l-32 -3 26 -26 c20 -21 25 -36
26 -76 1 -60 26 -105 57 -101 14 2 23 13 27 33 8 46 0 59 -22 39 -18 -17 -19
-15 -19 32 0 44 3 51 31 66 32 19 31 38 -3 38 -18 0 -20 5 -15 39 4 35 -5 61
-24 61 -3 0 -9 -22 -13 -49z"/>
<path d="M5406 16959 c-27 -32 -33 -49 -16 -49 21 0 60 33 60 51 0 31 -17 30
-44 -2z"/>
<path d="M3733 16888 c-56 -72 -33 -226 31 -202 42 16 58 153 22 193 -22 24
-39 27 -53 9z m28 -121 c-6 -15 -16 -27 -22 -27 -14 0 -3 84 14 115 11 18 12
16 15 -21 2 -22 -2 -52 -7 -67z"/>
<path d="M4562 16878 c-28 -31 -42 -71 -42 -121 1 -48 18 -77 48 -77 24 0 62
44 62 72 0 18 -2 18 -31 -6 -17 -14 -37 -26 -45 -26 -19 0 -18 41 3 85 19 39
33 46 33 15 0 -33 19 -22 26 15 4 22 2 41 -6 50 -17 20 -23 19 -48 -7z"/>
<path d="M3559 16885 c-4 -5 -10 -44 -13 -86 -7 -66 -5 -78 12 -99 l20 -25 7
55 c4 30 13 69 20 85 13 28 13 27 8 -28 -9 -93 29 -141 62 -77 15 29 21 80 9
80 -4 0 -13 -8 -21 -17 -13 -16 -14 -12 -10 32 3 27 1 58 -4 67 -15 27 -48 22
-62 -9 l-12 -27 -5 30 c-3 16 -8 25 -11 19z"/>
<path d="M4022 16874 c-12 -8 -22 -12 -22 -7 0 4 -11 -13 -25 -39 -28 -52 -31
-78 -14 -111 16 -30 28 -37 66 -37 36 0 63 29 63 67 0 28 -11 29 -35 3 -20
-23 -85 -28 -85 -7 0 21 17 40 29 33 20 -13 49 4 72 40 20 34 20 36 4 54 -22
24 -25 24 -53 4z m28 -33 c0 -13 -29 -35 -37 -28 -7 8 15 37 28 37 5 0 9 -4 9
-9z"/>
<path d="M4274 16875 c-12 -8 -24 -11 -28 -8 -3 3 -6 0 -6 -8 0 -8 -9 -25 -20
-39 -42 -53 -14 -140 44 -140 42 0 64 18 72 58 7 37 -4 41 -31 12 -11 -13 -31
-20 -52 -20 -30 0 -34 3 -31 23 2 17 9 21 29 19 20 -2 35 7 58 34 29 33 31 38
18 57 -18 28 -28 30 -53 12z m16 -45 c-11 -20 -30 -28 -30 -12 0 11 22 32 32
32 5 0 4 -9 -2 -20z"/>
<path d="M4367 16855 c-11 -62 -8 -140 5 -153 20 -20 28 -14 29 21 0 17 7 50
15 72 l14 40 -5 -48 c-5 -48 14 -107 35 -107 14 0 39 42 46 78 7 35 -1 40 -25
18 -15 -13 -16 -9 -16 47 0 56 -2 62 -22 65 -14 2 -27 -4 -35 -17 -17 -27 -26
-26 -30 2 -3 15 -6 10 -11 -18z"/>
<path d="M5005 16814 c-11 -113 26 -179 39 -71 4 28 13 63 21 77 12 23 13 20
8 -36 -6 -65 7 -104 33 -104 16 0 44 56 44 90 0 22 -15 27 -27 8 -5 -8 -10 11
-13 47 -4 52 -8 60 -27 63 -15 2 -26 -5 -37 -25 -14 -26 -15 -26 -16 -6 0 12
-4 24 -9 27 -5 4 -12 -28 -16 -70z"/>
<path d="M5354 16874 c-33 -16 -74 -81 -74 -117 0 -13 9 -36 21 -51 40 -51
119 -26 119 38 l0 27 -29 -20 c-29 -21 -91 -29 -91 -12 0 29 13 40 40 35 23
-5 32 0 55 30 42 56 18 98 -41 70z m26 -32 c0 -11 -22 -32 -32 -32 -5 0 -4 9
2 20 11 20 30 28 30 12z"/>
<path d="M5512 16874 c-12 -8 -22 -12 -22 -7 0 4 -11 -10 -25 -32 -44 -73 -25
-155 36 -155 49 0 69 16 69 56 l0 35 -26 -20 c-34 -26 -84 -28 -84 -3 0 20 20
54 20 35 0 -23 35 -14 63 15 29 30 35 60 15 80 -15 15 -19 15 -46 -4z m18 -44
c-11 -20 -30 -28 -30 -12 0 11 22 32 32 32 5 0 4 -9 -2 -20z"/>
<path d="M3295 16838 c-45 -53 -52 -81 -32 -124 21 -42 39 -43 68 -3 l22 31
13 -31 c15 -36 37 -40 58 -9 15 21 22 68 11 68 -3 0 -17 -12 -31 -27 l-25 -28
6 61 c11 108 -27 134 -90 62z m30 -53 c-27 -46 -43 -55 -31 -17 9 26 47 75 53
68 3 -3 -7 -26 -22 -51z"/>
<path d="M4853 16847 c-16 -18 -35 -48 -42 -66 -12 -28 -12 -37 2 -67 21 -42
39 -43 68 -2 l23 31 15 -31 c8 -18 20 -32 27 -32 18 0 44 40 44 69 l0 24 -23
-21 c-34 -32 -38 -28 -31 29 8 56 -8 99 -37 99 -9 0 -30 -15 -46 -33z m38 -34
c-11 -21 -27 -47 -36 -58 -16 -20 -16 -19 -9 5 6 24 50 90 60 90 2 0 -4 -17
-15 -37z"/>
<path d="M9780 16430 c0 -5 9 -10 20 -10 19 0 20 -7 20 -190 0 -183 -1 -190
-20 -190 -11 0 -20 -4 -20 -10 0 -5 25 -10 55 -10 30 0 55 5 55 10 0 6 -11 10
-25 10 l-25 0 0 167 c0 105 4 163 9 158 6 -6 39 -84 74 -175 38 -97 71 -166
79 -168 10 -2 34 47 83 173 37 96 69 175 71 175 2 0 4 -74 4 -165 0 -158 -1
-165 -20 -165 -11 0 -20 -4 -20 -10 0 -6 37 -10 90 -10 53 0 90 4 90 10 0 6
-9 10 -20 10 -19 0 -20 7 -20 190 0 183 1 190 20 190 11 0 20 5 20 10 0 6 -31
10 -73 10 l-73 0 -48 -132 c-27 -73 -51 -136 -55 -140 -4 -5 -32 54 -63 130
l-56 137 -76 3 c-48 2 -76 -1 -76 -8z"/>
<path d="M10453 16311 c-57 -27 -83 -71 -83 -141 0 -91 44 -141 139 -156 54
-9 124 18 152 57 26 37 16 37 -28 -1 -26 -24 -43 -30 -77 -30 -37 0 -48 5 -70
31 -18 21 -26 42 -26 70 l0 39 110 0 c107 0 110 1 110 23 0 29 -33 82 -63 102
-40 26 -115 29 -164 6z m112 -26 c14 -13 25 -31 25 -39 0 -8 3 -21 6 -30 5
-14 -4 -16 -65 -16 -65 0 -71 2 -71 20 0 26 26 77 42 83 26 10 39 7 63 -18z"/>
<path d="M10950 16319 c-14 -6 -35 -20 -47 -31 l-23 -21 0 26 c0 26 -2 27 -60
27 -33 0 -60 -4 -60 -10 0 -5 7 -10 15 -10 13 0 15 -21 15 -130 0 -109 -2
-130 -15 -130 -8 0 -15 -4 -15 -10 0 -6 33 -10 80 -10 47 0 80 4 80 10 0 6 -9
10 -21 10 -20 0 -21 4 -17 96 3 94 4 96 36 125 36 32 63 37 86 13 13 -12 16
-39 16 -125 0 -102 -1 -109 -20 -109 -11 0 -20 -4 -20 -10 0 -6 33 -10 80 -10
47 0 80 4 80 10 0 6 -9 10 -20 10 -19 0 -20 7 -20 116 0 63 -4 124 -10 134
-18 34 -90 49 -140 29z"/>
<path d="M11200 16310 c0 -5 9 -10 20 -10 19 0 20 -7 20 -105 0 -125 12 -158
65 -175 43 -14 83 -6 130 25 l35 24 0 -24 c0 -24 3 -25 60 -25 33 0 60 4 60
10 0 6 -9 10 -20 10 -19 0 -20 7 -20 140 l0 140 -60 0 c-33 0 -60 -4 -60 -10
0 -5 9 -10 20 -10 18 0 20 -7 20 -76 0 -88 -19 -138 -61 -159 -35 -19 -44 -19
-63 1 -13 12 -16 40 -16 135 l0 119 -65 0 c-37 0 -65 -4 -65 -10z"/>
<path d="M3710 15849 c-51 -66 -96 -117 -100 -112 -4 4 -21 48 -39 96 -43 120
-47 127 -80 127 -31 0 -41 -14 -41 -61 0 -17 -16 -94 -36 -171 -39 -158 -39
-191 4 -186 26 3 28 7 58 148 l30 145 22 -71 c45 -148 77 -150 183 -9 39 52
74 95 76 95 3 0 2 -19 -1 -42 -16 -99 -26 -210 -20 -233 3 -13 15 -27 25 -30
37 -12 47 10 48 108 0 50 7 137 15 192 14 92 14 101 -1 113 -34 25 -51 12
-143 -109z"/>
<path d="M4694 15962 c-5 -4 -18 -54 -28 -112 -10 -58 -22 -127 -28 -154 l-10
-49 -19 24 c-41 51 -118 186 -129 226 -13 44 -31 57 -60 48 -13 -4 -20 -21
-25 -63 -3 -31 -17 -108 -31 -170 -29 -135 -30 -170 -8 -179 36 -14 48 11 65
128 9 63 18 122 20 132 3 12 31 -22 86 -106 97 -145 105 -154 136 -140 20 9
24 23 35 110 7 54 22 137 33 183 11 47 17 95 14 108 -5 22 -30 29 -51 14z"/>
<path d="M4080 15946 l-95 -11 3 -45 c3 -48 -22 -233 -39 -287 -7 -23 -7 -38
1 -54 11 -20 17 -21 74 -15 185 20 214 24 225 30 14 9 15 43 1 51 -6 3 -58 -1
-116 -10 -58 -9 -108 -15 -111 -12 -3 3 -2 28 2 56 8 57 4 55 125 71 97 13
100 14 100 41 0 29 -21 32 -115 18 -47 -7 -88 -10 -91 -7 -3 3 1 30 9 59 13
52 15 54 53 61 21 4 65 7 96 7 72 1 88 8 88 37 0 23 -3 24 -57 23 -32 -1 -101
-7 -153 -13z"/>
<path d="M4863 15948 c-17 -22 -46 -207 -41 -265 10 -112 102 -174 215 -144
23 6 56 23 73 37 56 47 61 65 87 315 5 48 3 57 -13 63 -36 14 -53 -22 -64
-134 -14 -140 -18 -156 -46 -189 -28 -33 -85 -48 -126 -32 -63 24 -76 98 -44
244 10 42 14 86 11 97 -7 22 -37 27 -52 8z"/>
<path d="M2531 9053 c-17 -21 -31 -40 -31 -44 0 -4 -7 -24 -16 -45 -15 -36
-17 -37 -30 -19 -8 10 -14 32 -14 48 0 31 -14 29 -23 -3 -3 -13 4 -32 21 -51
l25 -31 -27 -85 -28 -85 -38 6 c-47 7 -70 0 -70 -23 0 -39 57 -56 90 -26 14
13 23 12 82 -11 68 -28 111 -27 121 0 4 11 -2 14 -21 14 -15 0 -53 5 -85 12
-66 15 -65 6 -16 122 29 72 34 78 66 84 70 13 121 100 88 151 -23 35 -58 30
-94 -14z m76 -20 c-8 -44 -52 -103 -78 -103 -22 0 -21 14 8 80 21 48 42 70 60
63 11 -4 14 -15 10 -40z m-227 -313 c12 -7 10 -11 -10 -18 -26 -10 -60 1 -60
18 0 13 50 13 70 0z"/>
<path d="M3206 9048 c-13 -24 -39 -81 -57 -128 -43 -115 -96 -194 -131 -198
-23 -3 -28 1 -28 18 0 58 64 140 108 140 19 0 23 3 15 11 -33 33 -143 -66
-157 -143 -6 -33 23 -63 53 -53 11 3 36 25 56 48 l35 41 -6 -30 c-4 -22 -1
-36 11 -47 21 -22 26 -22 68 7 35 24 36 24 42 5 16 -51 99 -43 151 13 l29 32
-38 -32 c-58 -49 -117 -43 -117 13 0 7 16 19 35 25 54 18 95 57 95 90 0 36
-23 44 -66 24 -37 -17 -60 -46 -88 -106 -19 -39 -60 -73 -76 -63 -27 17 2 124
71 266 21 44 39 86 39 94 0 27 -19 15 -44 -27z m144 -185 c0 -10 -6 -25 -13
-34 -16 -21 -75 -54 -83 -47 -15 16 55 98 84 98 6 0 12 -8 12 -17z"/>
<path d="M3526 9058 c-48 -64 -123 -233 -131 -298 -7 -47 49 -94 70 -60 4 6 3
10 -2 9 -27 -5 -33 4 -33 46 0 34 5 50 21 63 56 46 134 206 122 250 -7 30 -18
28 -47 -10z m29 -45 c-12 -50 -98 -194 -109 -183 -5 6 47 125 79 178 24 39 40
42 30 5z"/>
<path d="M4393 9048 c-10 -18 -30 -60 -43 -93 -24 -62 -68 -163 -78 -179 -3
-5 -1 -6 4 -3 6 3 8 -8 6 -28 -3 -25 1 -36 16 -44 16 -8 27 -6 56 14 44 30 42
30 49 5 3 -11 16 -24 29 -29 31 -12 37 -4 10 15 -22 15 -31 54 -11 54 5 0 8 4
5 9 -16 26 50 111 86 111 33 0 17 -41 -30 -77 -24 -18 -37 -33 -28 -33 8 0 34
18 56 39 49 47 50 74 4 79 -40 4 -76 -26 -113 -92 -29 -54 -72 -92 -91 -81
-22 14 10 136 64 243 46 90 56 122 41 122 -7 0 -22 -15 -32 -32z"/>
<path d="M5822 9052 c-11 -15 -38 -64 -60 -110 -70 -143 -83 -220 -41 -243 22
-11 24 -6 7 21 -10 15 -9 33 5 87 22 82 70 189 100 221 l22 24 6 -24 c6 -18 7
-15 8 15 1 45 -19 50 -47 9z"/>
<path d="M5958 9063 c-29 -32 -87 -147 -116 -228 -31 -89 -28 -128 10 -138 16
-5 18 -3 9 6 -16 16 -14 92 3 106 8 7 12 20 9 30 -5 20 71 183 94 203 11 9 16
9 24 -3 10 -16 12 1 3 25 -8 21 -17 20 -36 -1z"/>
<path d="M3391 8984 c-20 -25 -27 -44 -16 -44 8 0 55 51 55 60 0 18 -18 10
-39 -16z"/>
<path d="M3610 8965 c-10 -12 -9 -16 3 -21 20 -7 37 3 37 22 0 18 -24 18 -40
-1z"/>
<path d="M5650 8965 c-10 -12 -9 -16 3 -21 20 -7 37 3 37 22 0 18 -24 18 -40
-1z"/>
<path d="M5809 8913 c-13 -16 -12 -17 4 -4 9 7 17 15 17 17 0 8 -8 3 -21 -13z"/>
<path d="M5936 8913 c-6 -14 -5 -15 5 -6 7 7 10 15 7 18 -3 3 -9 -2 -12 -12z"/>
<path d="M4657 8883 c-3 -15 -1 -38 4 -51 16 -42 11 -120 -8 -130 -20 -10 -44
-5 -55 12 -12 17 -9 54 4 58 8 3 9 6 1 11 -6 4 -23 -10 -39 -31 -15 -20 -21
-31 -13 -25 13 11 18 9 29 -12 16 -31 46 -40 83 -26 31 12 42 44 33 99 -3 20
-9 56 -12 80 -7 48 -19 55 -27 15z"/>
<path d="M6206 8898 c-14 -40 -15 -48 -7 -52 12 -8 22 -80 15 -114 -8 -38 -29
-47 -60 -27 -25 16 -33 60 -12 67 6 2 9 10 7 17 -3 7 -18 -5 -38 -31 -19 -24
-28 -37 -21 -30 19 16 30 15 30 -3 0 -8 11 -22 25 -31 32 -21 69 -12 92 22 16
24 15 30 -1 102 -10 43 -20 82 -21 87 -1 6 -5 2 -9 -7z"/>
<path d="M2712 8879 c-18 -12 -44 -41 -58 -65 -52 -89 -9 -155 79 -119 23 9
53 30 67 48 24 31 23 31 -18 -5 -44 -39 -87 -49 -110 -26 -24 24 -13 47 28 59
64 19 113 84 87 117 -14 17 -37 15 -75 -9z m58 -18 c0 -21 -65 -81 -87 -81
-19 0 -16 12 12 50 39 53 75 68 75 31z"/>
<path d="M4922 8809 c-7 -50 -22 -121 -33 -157 -12 -37 -22 -69 -23 -72 0 -3
4 -6 9 -7 12 -3 28 41 56 147 36 138 40 180 16 180 -8 0 -17 -30 -25 -91z"/>
<path d="M5376 8885 c-3 -9 -6 -29 -6 -45 0 -16 -5 -41 -11 -57 -6 -15 -12
-44 -14 -63 -2 -19 -10 -55 -19 -80 -19 -54 -21 -89 -5 -73 14 14 76 236 81
287 3 40 -14 61 -26 31z"/>
<path d="M3881 8864 c-31 -26 -87 -124 -71 -124 4 0 10 -9 13 -20 7 -26 50
-42 79 -30 21 8 20 9 -9 9 -22 1 -36 8 -43 22 -14 26 0 44 39 52 38 8 93 63
89 91 -5 33 -57 34 -97 0z m79 0 c0 -23 -67 -84 -91 -84 -17 0 -18 3 -8 23 31
60 99 102 99 61z"/>
<path d="M4212 8862 c-33 -31 -72 -101 -72 -131 0 -29 34 -45 62 -30 24 13 53
39 43 39 -3 0 -16 -7 -29 -15 -21 -14 -24 -14 -36 0 -29 34 43 148 100 158 22
4 21 4 -6 6 -22 1 -41 -7 -62 -27z"/>
<path d="M5263 8877 c9 -8 17 -22 17 -33 0 -13 3 -15 11 -7 14 14 5 29 -24 43
-20 10 -20 10 -4 -3z"/>
<path d="M6020 8873 c-34 -23 -48 -41 -70 -87 -17 -36 -17 -43 -4 -68 8 -16
23 -28 34 -28 20 0 20 0 0 20 -21 21 -27 50 -10 50 6 0 10 6 9 13 -3 26 2 37
32 72 34 38 69 47 69 16 0 -10 -15 -33 -32 -51 -29 -28 -30 -31 -8 -20 61 31
79 92 30 98 -14 1 -36 -5 -50 -15z"/>
<path d="M3537 8810 c-19 -38 -31 -70 -26 -70 5 0 9 -6 9 -14 0 -25 28 -40 53
-28 l22 11 -22 0 c-32 1 -31 47 2 111 29 57 30 60 11 60 -8 0 -30 -31 -49 -70z"/>
<path d="M3702 8855 c-16 -13 -35 -39 -42 -57 -7 -18 -25 -46 -39 -63 -17 -19
-19 -24 -5 -12 26 21 34 22 34 1 0 -39 69 -58 106 -29 18 14 17 14 -9 5 -39
-14 -67 2 -67 40 0 59 44 130 82 130 21 0 24 -30 6 -48 -8 -8 -8 -12 -1 -12
19 0 35 28 28 50 -9 28 -56 26 -93 -5z"/>
<path d="M5008 8869 c-10 -5 -18 -15 -18 -22 0 -8 3 -9 8 -1 12 18 39 23 58
10 28 -21 13 -84 -31 -123 -39 -37 -38 -40 4 -18 40 20 76 96 64 132 -7 21
-17 29 -39 30 -16 2 -37 -2 -46 -8z"/>
<path d="M5184 8852 c-41 -35 -74 -90 -74 -124 0 -31 28 -52 51 -37 11 7 10 9
-5 9 -44 0 14 142 69 169 14 6 15 10 5 10 -8 0 -29 -12 -46 -27z"/>
<path d="M5450 8870 c-12 -8 -8 -10 14 -8 37 4 51 -18 42 -66 -7 -38 -21 -57
-66 -89 -21 -14 -18 -14 16 2 46 22 73 57 81 105 8 52 -43 85 -87 56z"/>
<path d="M5604 8855 c-19 -29 -43 -93 -44 -116 0 -27 36 -53 57 -40 17 10 16
10 -4 11 -32 0 -31 46 2 110 14 27 25 52 25 55 0 14 -21 2 -36 -20z"/>
<path d="M9030 8808 c-6 -24 -15 -56 -20 -72 -6 -16 -10 -36 -9 -45 1 -9 5 -5
9 9 5 16 8 19 9 8 1 -9 5 -20 11 -23 6 -4 7 1 3 11 -3 10 0 22 8 28 19 15 51
85 44 97 -4 5 -15 13 -25 19 -17 9 -20 5 -30 -32z"/>
<path d="M5260 8802 c0 -5 -9 -19 -19 -31 -21 -24 -18 -48 7 -68 25 -20 35
-15 18 8 -13 19 -13 25 0 50 16 33 18 49 4 49 -5 0 -10 -4 -10 -8z"/>
<path d="M5299 8713 c-13 -16 -12 -17 4 -4 9 7 17 15 17 17 0 8 -8 3 -21 -13z"/>
<path d="M4478 8693 c7 -3 16 -2 19 1 4 3 -2 6 -13 5 -11 0 -14 -3 -6 -6z"/>
<path d="M3632 7838 c-7 -7 -12 -28 -12 -47 0 -20 -16 -102 -36 -182 -36 -143
-38 -179 -11 -179 9 0 24 49 48 160 18 88 37 160 40 160 3 0 20 -43 38 -95 18
-52 39 -100 47 -106 20 -16 46 9 141 134 41 54 77 97 79 95 2 -3 -3 -73 -12
-156 -9 -83 -14 -158 -11 -166 4 -9 15 -16 26 -16 17 0 19 8 20 103 0 56 7
145 15 197 13 96 11 109 -21 110 -7 0 -51 -51 -98 -114 -92 -124 -112 -144
-124 -130 -5 5 -25 56 -45 114 -46 129 -57 145 -84 118z"/>
<path d="M4204 7731 c-82 -50 -136 -183 -103 -254 25 -56 108 -61 178 -12 31
21 72 75 57 75 -2 0 -27 -16 -56 -35 -62 -42 -111 -47 -134 -13 -9 12 -16 26
-16 30 0 4 26 25 58 47 103 70 142 130 107 165 -22 21 -53 20 -91 -3z m63 -37
c5 -16 -30 -56 -76 -89 -47 -32 -56 -30 -41 11 24 64 104 117 117 78z"/>
<path d="M4815 7718 c-13 -43 -35 -166 -35 -197 0 -104 85 -106 162 -3 l33 44
8 -53 c7 -49 21 -79 36 -79 3 0 13 4 21 10 12 7 12 12 -4 29 -16 18 -18 32
-13 103 4 46 8 94 9 107 6 53 -22 29 -59 -51 -41 -86 -100 -152 -131 -146 -25
5 -26 90 -3 163 10 33 16 65 14 72 -7 17 -32 17 -38 1z"/>
<path d="M4416 7698 c-16 -81 -26 -242 -16 -252 18 -18 42 6 90 92 88 157 116
162 135 22 11 -84 20 -100 53 -100 49 0 71 36 25 42 -29 3 -34 16 -48 121 -8
58 -36 91 -68 81 -35 -10 -60 -39 -103 -114 -21 -38 -42 -70 -47 -70 -4 0 -4
19 0 43 12 65 10 150 -4 154 -7 3 -14 -6 -17 -19z"/>
</g>
</svg>
